<svg xmlns="http://www.w3.org/2000/svg" xmlns:xlink="http://www.w3.org/1999/xlink" width="500" zoomAndPan="magnify" viewBox="0 0 375 374.999991" height="500" preserveAspectRatio="xMidYMid meet" version="1.0"><defs><g/></defs><rect x="-37.5" width="450" fill="#ffffff" y="-37.499999" height="449.999989" fill-opacity="1"/><rect x="-37.5" width="450" fill="#ffffff" y="-37.499999" height="449.999989" fill-opacity="1"/><rect x="-37.5" width="450" fill="#008037" y="-37.499999" height="449.999989" fill-opacity="1"/><path fill="#ffbf85" d="M 143.175781 146.808594 C 143.175781 146.808594 138.871094 153.289062 136.75 153.664062 C 138.621094 158.773438 143.800781 161.949219 143.800781 161.949219 C 143.800781 161.949219 147.980469 151.792969 151.914062 151.980469 C 155.84375 152.167969 159.328125 157.214844 164.417969 152.351562 C 169.511719 147.492188 169.386719 141.574219 169.386719 141.574219 C 169.386719 141.574219 173.941406 139.765625 173.003906 137.582031 C 172.070312 135.402344 171.507812 136.523438 170.195312 135.214844 C 168.886719 133.90625 168.886719 128.921875 168.574219 126.242188 C 168.261719 123.5625 164.328125 116.332031 160.492188 116.269531 C 156.65625 116.207031 138.683594 120.257812 136.75 124.183594 C 134.816406 128.113281 143.175781 146.808594 143.175781 146.808594 " fill-opacity="1" fill-rule="nonzero"/><path fill="#ba693f" d="M 147.109375 141.074219 C 147.109375 141.074219 147.421875 144.125 145.113281 144.625 C 145.796875 147.429688 139.871094 150.296875 134.878906 150.605469 C 129.886719 150.921875 128.011719 150.421875 128.011719 149.734375 C 128.011719 149.050781 130.507812 148.425781 130.320312 148.363281 C 130.132812 148.300781 122.519531 149.359375 120.210938 148.175781 C 117.902344 146.992188 123.457031 146.027344 123.269531 145.886719 C 123.082031 145.746094 114.472656 145.683594 113.847656 144.375 C 113.222656 143.066406 121.398438 141.882812 120.335938 141.382812 C 119.277344 140.886719 114.535156 141.507812 116.09375 140.136719 C 117.652344 138.765625 121.710938 137.582031 121.523438 137.457031 C 121.335938 137.335938 113.84375 138.269531 113.8125 137.148438 C 113.785156 136.023438 119.964844 134.28125 119.464844 134.03125 C 118.964844 133.78125 109.105469 134.589844 109.230469 132.972656 C 109.355469 131.351562 117.46875 129.109375 116.65625 128.921875 C 115.84375 128.734375 107.046875 128.796875 107.234375 127.488281 C 107.421875 126.179688 116.40625 122.8125 115.84375 122.6875 C 115.28125 122.566406 111.164062 122.066406 111.726562 121.003906 C 112.289062 119.945312 120.835938 114.773438 125.203125 116.707031 C 126.328125 111.535156 142.863281 106.921875 145.984375 108.976562 C 148.605469 106.421875 168.199219 106.050781 163.769531 117.328125 C 162.832031 120.132812 153.410156 121.566406 154.285156 122.441406 C 155.15625 123.3125 156.78125 125.867188 154.472656 126.488281 C 152.164062 127.113281 150.726562 126.988281 150.789062 127.363281 C 150.851562 127.734375 153.222656 130.167969 152.910156 130.726562 C 152.597656 131.289062 148.855469 132.160156 148.855469 132.160156 C 148.855469 132.160156 144.113281 124.734375 141.554688 129.101562 C 138.996094 133.46875 142.554688 142.445312 147.109375 141.074219 " fill-opacity="1" fill-rule="nonzero"/><path fill="#ba693f" d="M 165.253906 125.207031 C 164.375 125.054688 163.445312 125.453125 162.65625 125.800781 C 161.855469 126.148438 161.128906 126.589844 160.59375 127.289062 C 160.316406 127.65625 160.660156 128.164062 161.089844 127.972656 C 161.726562 127.691406 162.300781 127.335938 162.988281 127.183594 C 163.675781 127.027344 164.339844 127.199219 165.03125 127.148438 C 166.097656 127.070312 166.40625 125.40625 165.253906 125.207031 " fill-opacity="1" fill-rule="nonzero"/><path fill="#363636" d="M 162.46875 131 C 161.105469 131.285156 160.367188 132.382812 159.730469 133.5 C 159.554688 133.8125 159.898438 134.121094 160.136719 133.816406 C 160.6875 133.117188 163.367188 130.867188 163.710938 132.863281 C 163.847656 133.664062 164.917969 133.289062 164.789062 132.582031 C 164.566406 131.347656 163.757812 130.730469 162.46875 131 " fill-opacity="1" fill-rule="nonzero"/><path fill="#e89379" d="M 143.75 130.785156 C 141.878906 130.484375 141.492188 132.710938 142.253906 133.976562 C 142.507812 134.402344 143.058594 133.847656 142.910156 133.480469 C 142.511719 132.492188 143.410156 131.421875 144.339844 132.085938 C 144.738281 132.371094 145.128906 132.773438 145.421875 133.15625 C 145.777344 133.617188 146.09375 134.128906 146.34375 134.667969 C 144.65625 134.644531 143.082031 137.230469 145.367188 138 C 145.695312 138.109375 145.875 137.566406 145.570312 137.425781 C 144.390625 136.878906 145.585938 134.820312 146.859375 135.84375 C 147.179688 136.105469 147.578125 135.667969 147.527344 135.335938 C 147.234375 133.421875 145.832031 131.125 143.75 130.785156 " fill-opacity="1" fill-rule="nonzero"/><path fill="#c43b3b" d="M 158.652344 144.375 C 158.652344 144.375 156.222656 149.183594 160.136719 150.0625 C 164.046875 150.941406 166.699219 145.152344 166.125 145.167969 C 161.242188 145.300781 159.53125 142.476562 158.652344 144.375 " fill-opacity="1" fill-rule="nonzero"/><path fill="#a15a36" d="M 148.839844 132.160156 C 148.839844 132.160156 151.632812 127.03125 147.515625 123.933594 C 143.398438 120.835938 131.367188 124.496094 130.554688 125.867188 C 129.742188 127.238281 133.863281 126.363281 133.050781 127.738281 C 132.238281 129.105469 124.5 130.476562 123.753906 131.914062 C 123.003906 133.34375 128.121094 132.597656 127.433594 133.941406 C 127.066406 134.664062 122.414062 136.289062 118.15625 137.648438 C 119.855469 137.5625 121.421875 137.402344 121.507812 137.457031 C 121.691406 137.582031 117.636719 138.765625 116.078125 140.136719 C 114.515625 141.507812 119.257812 140.886719 120.320312 141.382812 C 121.382812 141.882812 113.207031 143.066406 113.832031 144.375 C 114.453125 145.683594 123.066406 145.746094 123.253906 145.886719 C 123.441406 146.027344 117.886719 146.992188 120.195312 148.175781 C 122.503906 149.359375 130.117188 148.300781 130.304688 148.363281 C 130.492188 148.425781 127.996094 149.050781 127.996094 149.734375 C 127.996094 150.421875 129.867188 150.917969 134.859375 150.609375 C 139.851562 150.296875 145.78125 147.429688 145.09375 144.625 C 147.402344 144.125 147.089844 141.070312 147.089844 141.070312 C 142.535156 142.445312 138.980469 133.46875 141.539062 129.101562 C 144.097656 124.734375 148.839844 132.160156 148.839844 132.160156 " fill-opacity="1" fill-rule="nonzero"/><path fill="#a15a36" d="M 156.769531 113.847656 C 156.175781 113.296875 155.15625 113.191406 154.386719 113.046875 C 153.089844 112.796875 150.777344 113.507812 151.445312 115.285156 C 151.554688 115.570312 151.90625 115.398438 151.933594 115.15625 C 152.105469 113.714844 153.53125 113.589844 154.695312 113.746094 C 155.097656 113.800781 155.546875 113.871094 155.914062 114.050781 C 156.8125 114.484375 156.835938 115.273438 156.753906 116.140625 C 156.71875 116.519531 157.214844 116.503906 157.257812 116.152344 C 157.359375 115.347656 157.421875 114.453125 156.769531 113.847656 " fill-opacity="1" fill-rule="nonzero"/><path fill="#a15a36" d="M 146.222656 114.042969 C 144.652344 113.414062 144.019531 112.304688 142.34375 112.558594 C 142.109375 112.59375 141.542969 113.136719 141.554688 113.132812 C 139.378906 113.957031 139.546875 113.816406 137.601562 113.855469 C 134.730469 113.917969 131.285156 114.738281 129.292969 116.917969 C 129.066406 117.171875 129.207031 117.730469 129.613281 117.515625 C 131.117188 116.71875 132.53125 115.78125 134.226562 115.4375 C 135.96875 115.085938 137.6875 115.382812 139.417969 115.15625 C 140.277344 115.046875 140.695312 114.726562 141.480469 114.496094 C 143.140625 114.003906 140.574219 113.492188 143.46875 114.253906 C 144.921875 114.632812 144.640625 114.550781 145.871094 115.03125 C 146.414062 115.246094 146.769531 114.257812 146.222656 114.042969 " fill-opacity="1" fill-rule="nonzero"/><path fill="#a15a36" d="M 148.730469 119.980469 C 147.199219 120.082031 146.269531 120.386719 144.660156 120.160156 C 143.46875 119.988281 142.679688 119.570312 141.5625 119.410156 C 139.328125 119.085938 137.5625 119.417969 135.472656 120.289062 C 133.140625 121.261719 131.011719 122.550781 128.546875 123.226562 C 125.101562 124.171875 121.4375 124.347656 117.894531 124.578125 C 117.382812 124.609375 117.222656 125.539062 117.785156 125.519531 C 123.128906 125.332031 128.066406 124.816406 132.976562 122.5625 C 134.5625 121.832031 136.167969 120.988281 137.902344 120.671875 C 139.957031 120.292969 141.304688 121.035156 143.199219 121.578125 C 145.332031 122.179688 146.535156 121.441406 148.730469 121.035156 C 149.222656 120.941406 149.308594 119.9375 148.730469 119.980469 " fill-opacity="1" fill-rule="nonzero"/><path fill="#a15a36" d="M 161.117188 111.988281 C 160.003906 109.277344 156.878906 109.617188 154.636719 110.414062 C 154.183594 110.574219 154.207031 111.457031 154.742188 111.285156 C 155.859375 110.933594 157.15625 110.492188 158.328125 110.894531 C 159.257812 111.214844 159.769531 112.023438 160.574219 112.511719 C 160.894531 112.707031 161.25 112.316406 161.117188 111.988281 " fill-opacity="1" fill-rule="nonzero"/><path fill="#e89379" d="M 169.90625 139.496094 C 169.609375 139.375 169.5 139.390625 169.191406 139.496094 C 168.570312 139.710938 168.648438 140.914062 169.328125 140.660156 C 169.6875 140.527344 169.835938 140.433594 170.054688 140.121094 C 170.195312 139.917969 170.148438 139.59375 169.90625 139.496094 " fill-opacity="1" fill-rule="nonzero"/><path fill="#e89379" d="M 149.527344 146.277344 C 148.980469 145.285156 148.164062 144.59375 147.796875 143.46875 C 147.628906 142.960938 147.535156 142.449219 147.496094 141.917969 C 147.464844 141.53125 147.515625 141.3125 147.1875 141.085938 C 147.136719 141.050781 147.066406 141.042969 147.011719 141.078125 C 146.207031 141.628906 146.691406 143.1875 146.976562 143.9375 C 147.367188 144.972656 148.164062 146.347656 149.3125 146.617188 C 149.507812 146.664062 149.613281 146.433594 149.527344 146.277344 " fill-opacity="1" fill-rule="nonzero"/><path fill="#ffbf85" d="M 107.121094 205.871094 C 107.121094 206.152344 103.191406 231.578125 102.066406 233.074219 C 100.945312 234.570312 98.324219 236.402344 94.765625 240.394531 C 91.207031 244.386719 87.746094 253.359375 86.152344 254.574219 C 86.996094 257.003906 88.027344 262.988281 88.679688 261.960938 C 89.335938 260.929688 107.496094 241.207031 108.710938 239.710938 C 109.929688 238.214844 121.535156 217.464844 120.039062 210.640625 C 118.539062 203.816406 107.121094 205.871094 107.121094 205.871094 " fill-opacity="1" fill-rule="nonzero"/><path fill="#d14d4d" d="M 116.714844 224.203125 C 118.976562 218.867188 120.671875 213.523438 120.042969 210.648438 C 119.804688 209.566406 119.300781 208.730469 118.648438 208.050781 L 110.132812 205.605469 C 108.394531 205.660156 107.125 205.878906 107.125 205.878906 C 107.125 206.03125 105.972656 213.550781 104.738281 220.65625 C 108.128906 222.046875 113.230469 223.914062 116.714844 224.203125 " fill-opacity="1" fill-rule="nonzero"/><path fill="#ffbf85" d="M 107.699219 190.898438 C 107.699219 191.175781 99.839844 200.710938 103.207031 208.378906 C 106.578125 216.042969 113.410156 216.230469 113.410156 216.230469 L 135.21875 226.886719 C 135.21875 226.886719 139.339844 232.960938 143.832031 236.046875 C 148.324219 239.132812 160.855469 243.929688 161.492188 244.335938 C 162.378906 244.90625 166.015625 241.222656 164.988281 240.347656 C 164.988281 240.347656 144.859375 222.679688 142.429688 221.089844 C 139.992188 219.503906 125.484375 204.453125 125.484375 204.453125 L 107.699219 190.898438 " fill-opacity="1" fill-rule="nonzero"/><path fill="#d14d4d" d="M 133.691406 212.828125 C 129.523438 208.644531 125.5 204.46875 125.5 204.46875 L 112.46875 194.539062 L 105.9375 194.09375 C 105.894531 194.125 105.683594 194.308594 105.367188 194.613281 C 103.371094 198.148438 101.128906 203.628906 103.222656 208.394531 C 106.589844 216.058594 113.425781 216.246094 113.425781 216.246094 L 125.792969 222.289062 C 128.265625 220.671875 131.570312 217.742188 133.691406 212.828125 " fill-opacity="1" fill-rule="nonzero"/><path fill="#ffbf85" d="M 135.902344 158.773438 C 135.902344 158.773438 114.394531 160.199219 112.914062 160.136719 C 111.4375 160.074219 109.484375 159.519531 106.300781 160.019531 C 103.835938 160.40625 89.765625 165.382812 85.832031 165.503906 C 85.707031 165.441406 86.707031 169.738281 86.707031 169.738281 C 86.707031 169.738281 110.027344 170.238281 112.914062 167.308594 C 123.167969 166.875 128.953125 169.429688 131.261719 168.492188 C 133.570312 167.558594 135.902344 158.773438 135.902344 158.773438 " fill-opacity="1" fill-rule="nonzero"/><path fill="#f0a57d" d="M 126.660156 159.253906 C 126.519531 159.253906 114.652344 160.082031 114.652344 160.082031 C 114.652344 160.082031 122.417969 167.121094 124.65625 168.027344 C 132.738281 169.507812 136.441406 168.742188 136.441406 168.742188 C 136.441406 168.742188 133.445312 159.347656 126.660156 159.253906 " fill-opacity="1" fill-rule="nonzero"/><path fill="#4ab8b4" d="M 129.074219 198.65625 C 129.074219 198.65625 130.382812 202.519531 128.511719 204.078125 C 131.882812 205.261719 130.257812 207.816406 130.257812 207.816406 C 130.257812 207.816406 133.191406 209.875 132.753906 210.433594 C 132.320312 210.996094 120.835938 213.113281 112.351562 210.433594 C 103.863281 207.753906 109.355469 204.886719 100.992188 202.644531 C 92.628906 200.402344 88.136719 193.171875 88.261719 191.425781 C 92.378906 189.808594 104.238281 182.703125 110.351562 184.074219 C 116.46875 185.445312 129.074219 198.65625 129.074219 198.65625 " fill-opacity="1" fill-rule="nonzero"/><path fill="#ffeccf" d="M 117.15625 181.207031 C 116.96875 181.332031 110.351562 183.886719 110.351562 184.074219 C 110.351562 184.261719 123.332031 199.15625 129.074219 198.65625 C 129.636719 198.46875 130.257812 194.074219 130.257812 194.074219 L 117.15625 181.207031 " fill-opacity="1" fill-rule="nonzero"/><path fill="#4ab8b4" d="M 134.753906 153.410156 C 134.753906 153.410156 136.503906 152.628906 137.828125 153.113281 C 139.152344 153.597656 145.402344 159.769531 144.710938 164.070312 C 144.019531 168.367188 134.191406 193.140625 130.257812 194.074219 C 129.886719 193.980469 115.003906 182.578125 114.441406 180.894531 C 113.878906 179.210938 127.640625 167.527344 134.753906 153.410156 " fill-opacity="1" fill-rule="nonzero"/><path fill="#42a3a0" d="M 128.761719 162.714844 C 128.761719 162.855469 121.726562 172.554688 119.535156 174.292969 C 125.4375 172.621094 129.136719 167.621094 129.183594 167.808594 C 129.230469 167.996094 126.515625 172.667969 126.703125 172.902344 C 126.890625 173.136719 137.757812 166.03125 135.902344 159.816406 C 134.050781 153.597656 128.761719 162.714844 128.761719 162.714844 " fill-opacity="1" fill-rule="nonzero"/><path fill="#ffbf85" d="M 132.789062 154.253906 C 132.789062 154.253906 114.160156 149.859375 112.613281 148.878906 C 111.070312 147.898438 110.320312 146.027344 104.613281 144.53125 C 98.902344 143.035156 92.304688 140.652344 91.367188 140.230469 C 90.429688 139.8125 86.265625 132.785156 85.796875 132.816406 C 85.328125 132.847656 86.359375 136.023438 86.078125 135.867188 C 85.796875 135.714844 82.460938 132.785156 82.242188 133.46875 C 82.023438 134.15625 83.675781 137.175781 83.582031 137.175781 C 83.488281 137.175781 79.371094 134.933594 79.308594 135.652344 C 79.246094 136.367188 81.523438 139.609375 81.523438 139.609375 C 81.523438 139.609375 76.875 137.894531 77.125 138.675781 C 77.375 139.453125 83.113281 144.84375 82.925781 145.496094 C 82.738281 146.152344 79.058594 148.144531 79.371094 148.988281 C 79.683594 149.828125 89.449219 146.621094 89.449219 146.621094 C 89.449219 146.621094 102.242188 155.792969 105.546875 156.542969 C 108.855469 157.289062 110.976562 157.527344 111.351562 157.773438 C 111.726562 158.023438 127.375 165.316406 131.78125 165.5 C 136.1875 165.6875 139.121094 156.652344 132.789062 154.253906 " fill-opacity="1" fill-rule="nonzero"/><path fill="#ffeccf" d="M 134.894531 165.503906 C 134.894531 165.503906 138.214844 159.628906 136.109375 154.488281 C 134.003906 149.34375 128.574219 147.804688 127.5 147.429688 C 126.421875 147.054688 127.5 148.554688 128.058594 150.703125 C 128.621094 152.851562 125.203125 150.792969 125.671875 153.785156 C 126.140625 156.777344 129.933594 156.402344 129.464844 158.085938 C 128.996094 159.769531 127.078125 159.066406 128.246094 161.3125 C 129.417969 163.554688 134.191406 166.519531 134.894531 165.503906 " fill-opacity="1" fill-rule="nonzero"/><path fill="#ffeccf" d="M 136.457031 152.980469 L 138.777344 151.917969 C 138.777344 151.917969 146.570312 157.945312 144.578125 164.707031 C 140.890625 156.25 136.457031 152.980469 136.457031 152.980469 " fill-opacity="1" fill-rule="nonzero"/><path fill="#ffbf85" d="M 88.65625 168.941406 C 88.328125 169.210938 87.734375 171.796875 86.238281 172.328125 C 84.742188 172.855469 82.339844 174.476562 82.027344 174.476562 C 81.714844 174.476562 83.179688 171.484375 83.179688 171.484375 C 83.179688 171.484375 75.535156 167.339844 75.535156 167.03125 C 75.535156 166.71875 80.125 167.402344 80.125 167.402344 C 80.125 167.402344 74.695312 161.980469 75.128906 161.917969 C 75.566406 161.855469 80.714844 164.535156 80.714844 164.441406 C 80.714844 164.351562 78.78125 160.171875 79.0625 160.113281 C 79.34375 160.050781 82.617188 163.039062 82.617188 162.949219 C 82.617188 162.855469 81.308594 159.300781 81.527344 159.269531 C 81.746094 159.238281 87.269531 164.535156 88.359375 166.03125 C 89.453125 167.527344 88.65625 168.941406 88.65625 168.941406 " fill-opacity="1" fill-rule="nonzero"/><path fill="#42a3a0" d="M 161.242188 244.34375 C 161.242188 244.34375 164.296875 241.507812 165.007812 240.382812 C 166.636719 239.722656 175.125 236.929688 175.667969 237.859375 C 176.210938 238.792969 166.175781 250.28125 165.007812 249.660156 C 163.835938 249.039062 161.078125 244.925781 161.242188 244.34375 " fill-opacity="1" fill-rule="nonzero"/><path fill="#42a3a0" d="M 86.152344 254.574219 C 85.90625 254.378906 80.554688 255.164062 80.460938 255.867188 C 80.367188 256.566406 82.800781 270.589844 83.394531 271.007812 C 83.988281 271.429688 90.011719 272.441406 89.917969 271.507812 C 89.824219 270.574219 87.609375 266.40625 87.609375 266.40625 C 87.609375 266.40625 88.945312 262.585938 88.679688 261.960938 C 88.417969 261.335938 86.652344 254.964844 86.152344 254.574219 " fill-opacity="1" fill-rule="nonzero"/><path fill="#ffeccf" d="M 82.488281 255.039062 C 82.46875 255.042969 83.832031 269.917969 83.957031 270.261719 C 84.082031 270.601562 89.761719 271.507812 89.917969 271.507812 C 89.917969 272.222656 89.542969 272.441406 83.113281 271.507812 C 81.960938 270.292969 79.527344 255.898438 79.714844 255.460938 C 79.902344 255.023438 82.488281 255.039062 82.488281 255.039062 " fill-opacity="1" fill-rule="nonzero"/><path fill="#ffeccf" d="M 164.117188 248.882812 C 164.117188 248.882812 174.769531 239.316406 175.507812 237.746094 C 175.519531 237.746094 175.785156 237.714844 175.753906 238.148438 C 175.722656 238.585938 169.6875 247.390625 165.167969 250.101562 C 164.738281 249.914062 164.117188 248.882812 164.117188 248.882812 " fill-opacity="1" fill-rule="nonzero"/><path fill="#ffeccf" d="M 164.988281 240.347656 C 164.988281 240.347656 165.105469 241.246094 165.617188 241.421875 C 166.125 241.597656 171.777344 238.8125 171.9375 238.210938 C 171.992188 238.195312 167.335938 239.289062 164.988281 240.347656 " fill-opacity="1" fill-rule="nonzero"/><path fill="#ffeccf" d="M 88.679688 261.960938 C 88.679688 261.960938 89.277344 263.25 87.609375 266.40625 C 88.074219 267.300781 88.734375 268.621094 88.734375 268.621094 C 88.734375 268.621094 86.21875 266.988281 86.617188 266.242188 C 87.015625 263.367188 88.183594 260.390625 88.183594 260.390625 L 88.679688 261.960938 " fill-opacity="1" fill-rule="nonzero"/><path fill="#ff9191" d="M 158.402344 144.957031 C 158.402344 144.957031 160.121094 147.089844 159.125 149.675781 C 157.863281 148.886719 157.464844 147.519531 158.402344 144.957031 " fill-opacity="1" fill-rule="nonzero"/><path fill="#ffffff" d="M 165.757812 145.15625 C 161.683594 145.144531 159.921875 143.09375 158.972656 143.90625 C 159.972656 144.53125 162.003906 145.664062 163.773438 145.765625 C 164.675781 145.816406 165.308594 145.53125 165.757812 145.15625 " fill-opacity="1" fill-rule="nonzero"/><path fill="#ffbf85" d="M 242.773438 103.804688 C 242.773438 103.804688 247.015625 109.414062 247.578125 115.023438 C 248.136719 120.632812 246.265625 122.75 247.578125 124.308594 C 248.886719 125.867188 250.136719 125.246094 250.320312 127.175781 C 250.511719 129.109375 247.140625 130.476562 247.140625 130.476562 C 247.140625 130.476562 247.324219 142.132812 241.179688 144.0625 C 235.035156 145.996094 229.730469 142.941406 229.730469 142.941406 C 229.730469 142.941406 227.980469 150.109375 228.167969 151.167969 C 221.242188 150.921875 218 146.496094 218 146.496094 C 218 146.496094 223.863281 139.765625 220.992188 133.59375 C 218.125 127.425781 207.824219 116.957031 212.945312 110.101562 C 218.058594 103.246094 240.148438 100.191406 242.773438 103.804688 " fill-opacity="1" fill-rule="nonzero"/><path fill="#a15a36" d="M 218.949219 138.691406 C 218.949219 138.691406 221.101562 141.820312 221.617188 141.820312 C 222.132812 141.820312 221.945312 137.335938 221.945312 137.335938 C 221.945312 137.335938 224.285156 139.390625 224.332031 138.457031 C 224.378906 137.523438 224.519531 131.957031 223.019531 129.574219 C 219.277344 130.089844 215.953125 125.042969 216.328125 119.386719 C 216.703125 113.730469 222.925781 114.898438 223.535156 122.332031 C 223.957031 123.03125 224.890625 121.675781 224.890625 121.675781 C 224.890625 121.675781 225.40625 124.386719 226.25 123.03125 C 227.09375 121.675781 227.796875 118.03125 227.28125 114.433594 C 227.609375 114.386719 230.507812 115.878906 230.695312 114.433594 C 230.882812 112.984375 229.480469 109.058594 229.757812 109.242188 C 230.042969 109.429688 233.738281 110.878906 233.972656 109.898438 C 234.207031 108.917969 233.128906 107.140625 233.128906 107.140625 C 233.128906 107.140625 237.855469 108.496094 238.511719 107.046875 C 239.167969 105.597656 238.042969 104.148438 238.042969 104.148438 C 238.042969 104.148438 243.753906 106.347656 243.988281 103.167969 C 244.222656 99.988281 231.023438 92.089844 218.011719 94.101562 C 217.453125 94.242188 220.304688 97.371094 222.273438 97.933594 C 214.597656 96.902344 204.253906 98.960938 203.925781 99.382812 C 203.597656 99.804688 209.074219 104.054688 209.214844 104.054688 C 209.355469 104.054688 207.765625 104.007812 207.53125 104.101562 C 207.296875 104.195312 209.777344 108.449219 209.636719 108.402344 C 209.496094 108.355469 205.097656 107.140625 204.675781 107.28125 C 204.253906 107.421875 206.078125 114.476562 207.433594 115.648438 C 206.921875 115.367188 205.003906 115.039062 204.628906 115.132812 C 204.253906 115.226562 206.03125 120.226562 206.03125 120.226562 C 206.03125 120.226562 204.253906 125.601562 207.855469 130.929688 C 211.460938 136.257812 216.375 138.457031 218.949219 138.691406 " fill-opacity="1" fill-rule="nonzero"/><path fill="#a15a36" d="M 243.933594 114.398438 C 243.132812 113.820312 241.644531 114.359375 240.855469 114.855469 C 239.929688 115.4375 239.113281 116.230469 238.527344 117.148438 C 238.390625 117.367188 238.566406 117.8125 238.863281 117.613281 C 239.195312 117.390625 239.515625 117.167969 239.828125 116.925781 C 240.398438 116.488281 240.828125 116.410156 241.5 116.324219 C 242.464844 116.203125 243.433594 116.148438 244.035156 115.335938 C 244.226562 115.074219 244.214844 114.597656 243.933594 114.398438 " fill-opacity="1" fill-rule="nonzero"/><path fill="#000000" d="M 241.167969 121.875 C 241.164062 121.523438 240.824219 121.269531 240.503906 121.300781 C 240.113281 121.332031 239.917969 121.6875 239.835938 122.027344 C 239.640625 122.875 239.546875 123.664062 239.632812 124.53125 C 239.734375 125.535156 241.058594 125.234375 241.132812 124.355469 C 241.199219 123.523438 241.175781 122.707031 241.167969 121.875 " fill-opacity="1" fill-rule="nonzero"/><path fill="#e89379" d="M 221.746094 124.019531 C 221.90625 124.113281 222.027344 124.242188 222.179688 124.34375 C 222.453125 124.523438 222.730469 124.167969 222.636719 123.902344 C 222.613281 123.84375 222.574219 123.804688 222.550781 123.753906 C 222.492188 122.78125 222.222656 121.917969 221.820312 121.023438 C 221.492188 120.292969 221.054688 119.324219 220.320312 118.914062 C 219.265625 118.324219 217.449219 119.6875 218.328125 120.777344 C 218.425781 120.898438 218.597656 120.832031 218.640625 120.699219 C 218.84375 120.09375 219.148438 119.335938 219.976562 119.605469 C 220.496094 119.777344 220.792969 120.40625 221.070312 120.839844 C 221.546875 121.585938 221.851562 122.363281 221.984375 123.203125 C 221.25 122.867188 220.222656 123.230469 220.054688 124.160156 C 219.941406 124.792969 220.074219 125.664062 220.394531 126.21875 C 220.570312 126.53125 220.777344 126.675781 221.058594 126.871094 C 221.453125 127.148438 221.628906 127.472656 222.132812 127.460938 C 222.46875 127.453125 222.605469 127.058594 222.457031 126.796875 C 222.316406 126.542969 222.171875 126.46875 221.914062 126.347656 C 221.429688 126.113281 221.09375 125.90625 220.914062 125.355469 C 220.847656 125.160156 220.683594 124.476562 220.78125 124.28125 C 220.96875 123.898438 221.429688 123.832031 221.746094 124.019531 " fill-opacity="1" fill-rule="nonzero"/><path fill="#e89379" d="M 247.519531 129.148438 C 247.109375 128.949219 246.835938 129.183594 246.414062 129.328125 C 245.988281 129.472656 245.984375 130.273438 246.511719 130.15625 C 247.007812 130.046875 247.359375 130.027344 247.617188 129.574219 C 247.707031 129.421875 247.6875 129.230469 247.519531 129.148438 " fill-opacity="1" fill-rule="nonzero"/><path fill="#c43b3b" d="M 244.773438 134.332031 C 244.75 134.238281 237.214844 131 236.28125 132.898438 C 235.34375 134.800781 236.757812 140.410156 240.355469 140.535156 C 243.957031 140.660156 244.890625 134.863281 244.773438 134.332031 " fill-opacity="1" fill-rule="nonzero"/><path fill="#ff9191" d="M 238.332031 139.777344 C 238.339844 139.78125 240.039062 136.445312 236.082031 135.453125 C 236.082031 135.460938 236.261719 138.105469 238.332031 139.777344 " fill-opacity="1" fill-rule="nonzero"/><path fill="#ffffff" d="M 236.285156 132.902344 C 236.28125 132.902344 236.28125 132.90625 236.28125 132.910156 C 238.085938 133.71875 242.933594 135.820312 243.867188 135.453125 C 244.265625 135.296875 244.535156 134.835938 244.722656 134.304688 C 244.183594 134 237.183594 131.070312 236.285156 132.902344 " fill-opacity="1" fill-rule="nonzero"/><path fill="#8c4e2e" d="M 236.210938 100.398438 C 234.988281 99.074219 233.472656 98.175781 231.636719 98.105469 C 228.644531 97.988281 226.261719 98.351562 223.546875 96.667969 C 223.21875 96.464844 222.894531 97 223.1875 97.222656 C 224.558594 98.265625 226.015625 98.886719 227.738281 99.105469 C 228.851562 99.242188 229.953125 99.140625 231.0625 99.210938 C 232.941406 99.328125 234.046875 100.230469 235.582031 101.160156 C 236.015625 101.421875 236.558594 100.773438 236.210938 100.398438 " fill-opacity="1" fill-rule="nonzero"/><path fill="#8c4e2e" d="M 231.523438 104.28125 C 230.835938 102.125 227.527344 102.273438 225.703125 101.753906 C 224.675781 101.460938 223.621094 100.886719 222.53125 100.90625 C 222.234375 100.914062 221.964844 101.105469 221.683594 101.171875 C 220.105469 101.542969 219.148438 101.761719 217.546875 101.460938 C 217.246094 101.40625 217.089844 102.011719 217.402344 102.082031 C 219.585938 102.582031 221.96875 101.78125 223.890625 102.695312 C 226.121094 103.753906 228.550781 104.207031 230.828125 105.132812 C 231.320312 105.332031 231.644531 104.671875 231.523438 104.28125 " fill-opacity="1" fill-rule="nonzero"/><path fill="#8c4e2e" d="M 224.386719 112.460938 C 223.292969 111.402344 222.050781 110.519531 220.835938 109.613281 C 219.972656 108.972656 220.09375 108.917969 219.238281 108.921875 C 218.914062 108.921875 219.332031 109.046875 218.480469 109.023438 C 217.527344 108.996094 217.144531 108.414062 216.527344 107.683594 C 215.835938 106.867188 215.398438 105.808594 214.574219 105.132812 C 214.285156 104.890625 213.984375 105.292969 214 105.5625 C 214.101562 107.148438 216.335938 110.265625 218.121094 110.402344 C 218.96875 110.46875 218.75 109.867188 219.257812 109.761719 C 220.738281 109.441406 222.738281 112.210938 223.976562 113.089844 C 224.351562 113.355469 224.675781 112.738281 224.386719 112.460938 " fill-opacity="1" fill-rule="nonzero"/><path fill="#8c4e2e" d="M 212.578125 127.457031 C 211.394531 125.269531 212.21875 123.234375 211.707031 120.976562 C 211.429688 119.761719 210.636719 119.1875 210.402344 118.015625 C 209.820312 115.097656 210.695312 113.113281 208.207031 110.765625 C 207.84375 110.425781 207.304688 111.160156 207.617188 111.484375 C 209.152344 113.097656 209.628906 114.542969 209.308594 116.984375 C 209.257812 117.375 208.960938 117.820312 209.007812 118.222656 C 209.222656 120.03125 210.300781 121.082031 210.449219 123.136719 C 210.589844 125.101562 209.820312 127.269531 212.078125 128.238281 C 212.535156 128.433594 212.746094 127.765625 212.578125 127.457031 " fill-opacity="1" fill-rule="nonzero"/><path fill="#8c4e2e" d="M 208.320312 127.746094 C 207.839844 126.785156 207.496094 125.753906 207.277344 124.699219 C 207.09375 123.824219 207.066406 122.976562 206.738281 122.136719 C 206.652344 121.914062 206.398438 122.007812 206.328125 122.179688 C 205.472656 124.175781 206.582031 126.542969 207.769531 128.164062 C 208.007812 128.488281 208.476562 128.058594 208.320312 127.746094 " fill-opacity="1" fill-rule="nonzero"/><path fill="#8c4e2e" d="M 214.179688 110.882812 C 213.859375 110.386719 213.417969 110.011719 212.898438 109.734375 C 212.285156 109.410156 211.382812 109.289062 210.941406 108.734375 C 210.710938 108.453125 210.394531 108.863281 210.539062 109.117188 C 210.964844 109.855469 211.53125 110.246094 212.296875 110.589844 C 213.414062 111.085938 213.902344 111.714844 214.222656 112.890625 C 214.261719 113.03125 214.402344 113.117188 214.539062 113.125 C 215.566406 113.210938 214.378906 111.191406 214.179688 110.882812 " fill-opacity="1" fill-rule="nonzero"/><path fill="#8c4e2e" d="M 215.589844 102.542969 C 214.183594 100.261719 211.359375 101.222656 209.257812 100.304688 C 208.921875 100.160156 208.734375 100.746094 209.039062 100.910156 C 209.964844 101.40625 210.792969 101.886719 211.84375 102 C 212.523438 102.070312 213.132812 102.144531 213.738281 102.484375 C 214.210938 102.75 214.621094 103.058594 215.125 103.265625 C 215.535156 103.4375 215.769531 102.832031 215.589844 102.542969 " fill-opacity="1" fill-rule="nonzero"/><path fill="#e89379" d="M 224.710938 130.554688 C 224.5 129.945312 223.71875 130.5 223.894531 131.023438 C 224.175781 131.863281 224.507812 133.121094 225.3125 133.609375 C 225.542969 133.75 225.777344 133.515625 225.753906 133.277344 C 225.660156 132.339844 225.019531 131.441406 224.710938 130.554688 " fill-opacity="1" fill-rule="nonzero"/><path fill="#ffbf85" d="M 233.972656 229.972656 C 233.972656 229.972656 227.328125 242.429688 225.640625 243.679688 C 221.804688 251.003906 197.371094 267.550781 197.371094 267.550781 L 194.660156 261.007812 C 194.660156 261.007812 213.691406 237.355469 219.246094 236.328125 C 220.027344 226.886719 222.648438 222.027344 222.648438 221.746094 C 222.648438 221.464844 233.972656 229.972656 233.972656 229.972656 " fill-opacity="1" fill-rule="nonzero"/><path fill="#4ab8b4" d="M 239.714844 211.554688 C 239.714844 212.613281 234.410156 232.621094 232.972656 233.992188 C 228.855469 231.808594 215.875 228.816406 215.066406 228.445312 C 215.6875 227.011719 220.867188 216.976562 220.554688 215.421875 C 220.246094 213.859375 219.558594 208.875 220.058594 207.628906 C 220.554688 206.382812 239.714844 211.554688 239.714844 211.554688 " fill-opacity="1" fill-rule="nonzero"/><path fill="#42a3a0" d="M 219.246094 208.003906 C 219.246094 208.191406 221.367188 211.617188 223.988281 213.675781 C 226.609375 215.730469 230.917969 214.859375 231.226562 215.292969 C 231.539062 215.730469 226.296875 220.78125 227.734375 221.027344 C 229.167969 221.277344 234.722656 217.601562 234.660156 217.789062 C 234.597656 217.972656 231.601562 223.398438 232.914062 223.519531 C 234.222656 223.644531 239.714844 215.980469 239.214844 213.238281 C 238.714844 210.496094 219.246094 208.003906 219.246094 208.003906 " fill-opacity="1" fill-rule="nonzero"/><path fill="#ffbf85" d="M 240.898438 194.417969 C 242.730469 192.867188 260.679688 187.875 265.175781 189.121094 C 269.667969 190.367188 283.894531 213.738281 284.394531 214.046875 C 284.894531 214.359375 280.273438 218.847656 280.273438 218.847656 C 280.273438 218.847656 262.863281 207.617188 260.804688 201.113281 C 256.5625 204.015625 241.210938 210.683594 240.898438 210.246094 C 240.585938 209.8125 240.898438 194.417969 240.898438 194.417969 " fill-opacity="1" fill-rule="nonzero"/><path fill="#4ab8b4" d="M 217.1875 198.96875 C 217.1875 198.96875 214.941406 205.761719 219.808594 209.625 C 224.675781 213.488281 232.101562 212.304688 232.910156 212.863281 C 233.722656 213.425781 244.082031 216.355469 244.707031 216.167969 C 245.328125 215.980469 249.011719 196.105469 247.636719 191.933594 C 246.265625 191.121094 244.457031 192.488281 244.457031 192.488281 C 244.457031 192.488281 240.523438 193.359375 240.148438 193.421875 C 239.777344 193.484375 217.1875 198.96875 217.1875 198.96875 " fill-opacity="1" fill-rule="nonzero"/><path fill="#42a3a0" d="M 241.398438 193.160156 C 241.398438 193.160156 241.835938 200.152344 229.980469 206.320312 C 227.980469 206.507812 232.101562 200.949219 231.851562 201.109375 C 231.601562 201.273438 218.246094 202.269531 217.125 200.027344 C 216 197.78125 241.398438 193.160156 241.398438 193.160156 " fill-opacity="1" fill-rule="nonzero"/><path fill="#ffbf85" d="M 212.863281 157.757812 C 211.367188 157.105469 200.226562 154.347656 199.058594 154.582031 C 197.886719 154.816406 192.738281 169.023438 193.253906 170.003906 C 193.769531 170.988281 196.53125 174.351562 196.203125 175.472656 C 195.875 176.59375 194.894531 176.828125 194.566406 177.671875 C 194.238281 178.511719 192.316406 182.8125 191.148438 181.921875 C 189.976562 181.035156 189.789062 179.867188 188.574219 179.632812 C 187.359375 179.398438 183.472656 178.230469 183.003906 176.6875 C 182.535156 175.148438 186.09375 168.042969 185.953125 167.386719 C 185.8125 166.734375 189.277344 145.140625 192.691406 143.363281 C 196.109375 141.589844 216.1875 147.242188 216.796875 148.085938 C 217.402344 148.925781 212.863281 157.757812 212.863281 157.757812 " fill-opacity="1" fill-rule="nonzero"/><path fill="#ffbf85" d="M 235.5625 157.761719 C 235.703125 157.761719 246.140625 162.246094 246.5625 162.105469 C 246.984375 161.964844 251.617188 147.242188 250.960938 146.496094 C 250.304688 145.75 247.496094 144.171875 247.589844 143.019531 C 247.683594 141.867188 249.746094 140.652344 249.835938 139.4375 C 249.929688 138.222656 251.804688 135.410156 253.488281 136.417969 C 255.171875 137.425781 255.640625 138.96875 256.390625 139.34375 C 257.140625 139.71875 259.433594 140.980469 259.480469 142.570312 C 259.527344 144.160156 257.515625 148.644531 257.515625 148.644531 C 257.515625 148.644531 254.050781 171.265625 251.851562 172.4375 C 249.652344 173.605469 235.328125 167.667969 235.328125 167.667969 L 235.5625 157.761719 " fill-opacity="1" fill-rule="nonzero"/><path fill="#bd4545" d="M 227.980469 151.542969 C 228.636719 151.824219 238.652344 156.355469 238.746094 156.777344 C 238.839844 157.199219 235.984375 170.144531 234.628906 170.285156 C 233.269531 170.425781 227.980469 151.542969 227.980469 151.542969 " fill-opacity="1" fill-rule="nonzero"/><path fill="#d14d4d" d="M 206.023438 160.390625 C 205.832031 160.203125 211.382812 144.75 211.539062 144.5 C 211.695312 144.25 217.6875 145.769531 217.6875 145.769531 C 217.6875 145.769531 227.109375 149.175781 228.667969 151.167969 C 230.230469 153.164062 242.691406 180.316406 241.289062 193.65625 C 235.644531 198.890625 210.074219 201.648438 210.945312 201.023438 C 211.820312 200.402344 214.941406 196.289062 214.941406 195.914062 C 214.941406 195.539062 211.632812 163.632812 211.195312 162.820312 C 210.757812 162.011719 206.023438 160.390625 206.023438 160.390625 " fill-opacity="1" fill-rule="nonzero"/><path fill="#bd4545" d="M 210.5 162.265625 C 210.5 162.265625 222.492188 167.683594 222.804688 169.179688 C 223.113281 170.675781 217.5625 169.179688 217.933594 169.179688 C 218.3125 169.179688 220.183594 171.484375 218.808594 171.921875 C 217.4375 172.355469 213.609375 165.820312 210.5 162.265625 " fill-opacity="1" fill-rule="nonzero"/><path fill="#e89379" d="M 258.238281 144.585938 C 257.710938 144.460938 257.054688 144.710938 257 144.066406 C 257.523438 143.605469 258.125 142.921875 257.886719 142.234375 C 257.855469 142.148438 257.746094 142.070312 257.65625 142.109375 C 257.179688 142.304688 256.898438 142.851562 256.617188 143.332031 C 256.609375 143.332031 256.605469 143.328125 256.601562 143.328125 C 256.109375 143.328125 255.457031 143.644531 255.074219 143.308594 C 255.066406 143.289062 255.070312 143.269531 255.066406 143.246094 C 255.03125 143.089844 254.949219 142.960938 254.886719 142.816406 C 254.976562 142.753906 255.058594 142.664062 255.113281 142.523438 C 255.28125 142.058594 255.503906 141.621094 255.808594 141.230469 C 256.078125 140.882812 256.347656 140.660156 256.375 140.203125 C 256.390625 139.984375 256.28125 139.773438 256.042969 139.753906 C 255.160156 139.679688 254.554688 141.054688 254.265625 141.890625 C 253.820312 141.449219 253.253906 141.09375 252.636719 140.828125 C 252.863281 140.398438 253.074219 139.964844 253.316406 139.546875 C 253.550781 139.140625 253.835938 138.839844 253.839844 138.359375 C 253.839844 138.132812 253.710938 137.886719 253.441406 137.957031 C 252.527344 138.191406 252.09375 139.695312 251.960938 140.566406 C 251.335938 140.355469 250.703125 140.207031 250.160156 140.125 C 249.738281 140.058594 249.605469 140.769531 249.96875 140.933594 C 251 141.394531 252.078125 141.753906 252.988281 142.441406 C 253.355469 142.71875 254.113281 143.332031 254.003906 143.867188 C 253.804688 144.8125 252.273438 143.777344 251.839844 143.578125 C 251.417969 143.382812 251.070312 144.097656 251.363281 144.398438 C 251.070312 144.589844 250.828125 144.585938 250.421875 144.5 C 250.09375 144.429688 249.902344 144.925781 250.21875 145.074219 C 250.886719 145.378906 251.53125 145.453125 252.015625 144.871094 C 252.679688 145.324219 253.457031 145.753906 254.203125 145.371094 C 254.585938 145.175781 254.847656 144.839844 254.992188 144.457031 C 255.359375 144.578125 255.703125 144.511719 256.066406 144.433594 C 256.078125 144.835938 256.171875 145.222656 256.515625 145.496094 C 257.003906 145.882812 257.730469 145.878906 258.230469 145.546875 C 258.507812 145.363281 258.699219 144.691406 258.238281 144.585938 " fill-opacity="1" fill-rule="nonzero"/><path fill="#42a3a0" d="M 244.9375 195.816406 C 243.710938 201.683594 241.402344 207.253906 241.011719 213.285156 C 240.949219 214.242188 242.234375 214.21875 242.292969 213.324219 C 242.683594 207.308594 244.992188 201.710938 246.214844 195.855469 C 246.414062 194.910156 245.117188 194.953125 244.9375 195.816406 " fill-opacity="1" fill-rule="nonzero"/><path fill="#ffeccf" d="M 189.855469 262.191406 C 189.746094 262.105469 186.5625 262.757812 186.515625 263.15625 C 186.46875 263.554688 194.089844 282.59375 196 281.789062 C 195.851562 275.496094 189.855469 262.191406 189.855469 262.191406 " fill-opacity="1" fill-rule="nonzero"/><path fill="#ffeccf" d="M 282.957031 224.207031 C 282.957031 224.207031 283.738281 226.511719 284.738281 226.449219 C 285.734375 226.386719 300.242188 213.769531 299.183594 211.648438 C 292.191406 215.046875 282.957031 224.207031 282.957031 224.207031 " fill-opacity="1" fill-rule="nonzero"/><path fill="#d14d4d" d="M 279.175781 218.847656 C 279.175781 218.847656 284.40625 214.019531 284.429688 213.675781 C 284.457031 213.332031 284.207031 209.25 284.859375 209.25 C 285.515625 209.25 286.421875 213.269531 286.515625 213.269531 C 286.609375 213.269531 299.402344 211.152344 299.183594 211.648438 C 298.964844 212.148438 283.332031 224.238281 282.957031 224.207031 C 282.582031 224.175781 279.023438 219.285156 279.175781 218.847656 " fill-opacity="1" fill-rule="nonzero"/><path fill="#d14d4d" d="M 189.851562 262.191406 C 189.847656 262.09375 195.4375 259.136719 195.59375 259.136719 C 195.75 259.136719 198.089844 268.421875 198.089844 268.421875 C 198.089844 268.421875 201.742188 267.957031 201.304688 268.671875 C 200.867188 269.386719 197.3125 272.347656 197.3125 272.347656 C 197.3125 272.347656 196.46875 281.757812 196 281.789062 C 195.53125 281.820312 189.886719 263 189.851562 262.191406 " fill-opacity="1" fill-rule="nonzero"/><g fill="#ffffff" fill-opacity="1"><g transform="translate(44.789064, 331.119588)"><g><path d="M 26.703125 -8.359375 C 27.085938 -8.359375 27.414062 -8.21875 27.6875 -7.9375 L 30.46875 -4.96875 C 29.09375 -3.21875 27.382812 -1.890625 25.34375 -0.984375 C 23.3125 -0.078125 20.890625 0.375 18.078125 0.375 C 15.535156 0.375 13.25 -0.0546875 11.21875 -0.921875 C 9.1875 -1.785156 7.457031 -2.988281 6.03125 -4.53125 C 4.613281 -6.082031 3.519531 -7.921875 2.75 -10.046875 C 1.988281 -12.171875 1.609375 -14.488281 1.609375 -17 C 1.609375 -18.6875 1.789062 -20.289062 2.15625 -21.8125 C 2.53125 -23.332031 3.066406 -24.734375 3.765625 -26.015625 C 4.472656 -27.296875 5.320312 -28.453125 6.3125 -29.484375 C 7.300781 -30.515625 8.421875 -31.394531 9.671875 -32.125 C 10.921875 -32.851562 12.28125 -33.40625 13.75 -33.78125 C 15.226562 -34.164062 16.804688 -34.359375 18.484375 -34.359375 C 19.734375 -34.359375 20.914062 -34.25 22.03125 -34.03125 C 23.144531 -33.8125 24.1875 -33.503906 25.15625 -33.109375 C 26.125 -32.722656 27.015625 -32.253906 27.828125 -31.703125 C 28.648438 -31.148438 29.390625 -30.546875 30.046875 -29.890625 L 27.6875 -26.65625 C 27.539062 -26.445312 27.359375 -26.265625 27.140625 -26.109375 C 26.921875 -25.953125 26.625 -25.875 26.25 -25.875 C 25.875 -25.875 25.492188 -26.003906 25.109375 -26.265625 C 24.734375 -26.535156 24.269531 -26.832031 23.71875 -27.15625 C 23.164062 -27.488281 22.46875 -27.785156 21.625 -28.046875 C 20.789062 -28.316406 19.734375 -28.453125 18.453125 -28.453125 C 17.035156 -28.453125 15.734375 -28.191406 14.546875 -27.671875 C 13.359375 -27.160156 12.335938 -26.414062 11.484375 -25.4375 C 10.640625 -24.46875 9.984375 -23.269531 9.515625 -21.84375 C 9.046875 -20.425781 8.8125 -18.8125 8.8125 -17 C 8.8125 -15.175781 9.0625 -13.550781 9.5625 -12.125 C 10.070312 -10.695312 10.765625 -9.488281 11.640625 -8.5 C 12.523438 -7.519531 13.554688 -6.773438 14.734375 -6.265625 C 15.921875 -5.753906 17.1875 -5.5 18.53125 -5.5 C 19.320312 -5.5 20.039062 -5.535156 20.6875 -5.609375 C 21.34375 -5.691406 21.945312 -5.828125 22.5 -6.015625 C 23.050781 -6.203125 23.570312 -6.441406 24.0625 -6.734375 C 24.550781 -7.035156 25.046875 -7.414062 25.546875 -7.875 C 25.722656 -8.007812 25.90625 -8.125 26.09375 -8.21875 C 26.28125 -8.3125 26.484375 -8.359375 26.703125 -8.359375 Z M 26.703125 -8.359375 "/></g></g></g><g fill="#ffffff" fill-opacity="1"><g transform="translate(75.648811, 331.119588)"><g><path d="M 9.140625 -21.78125 C 9.585938 -22.1875 10.054688 -22.554688 10.546875 -22.890625 C 11.046875 -23.222656 11.570312 -23.507812 12.125 -23.75 C 12.675781 -24 13.265625 -24.1875 13.890625 -24.3125 C 14.523438 -24.445312 15.210938 -24.515625 15.953125 -24.515625 C 17.265625 -24.515625 18.425781 -24.289062 19.4375 -23.84375 C 20.457031 -23.394531 21.3125 -22.765625 22 -21.953125 C 22.695312 -21.140625 23.21875 -20.171875 23.5625 -19.046875 C 23.914062 -17.921875 24.09375 -16.6875 24.09375 -15.34375 L 24.09375 0 L 17.65625 0 L 17.65625 -15.34375 C 17.65625 -16.6875 17.34375 -17.726562 16.71875 -18.46875 C 16.09375 -19.207031 15.171875 -19.578125 13.953125 -19.578125 C 13.046875 -19.578125 12.195312 -19.378906 11.40625 -18.984375 C 10.613281 -18.597656 9.859375 -18.054688 9.140625 -17.359375 L 9.140625 0 L 2.671875 0 L 2.671875 -34.921875 L 9.140625 -34.921875 Z M 9.140625 -21.78125 "/></g></g></g><g fill="#ffffff" fill-opacity="1"><g transform="translate(102.200372, 331.119588)"><g><path d="M 32.84375 -29 L 33.171875 -28.484375 C 32.921875 -27.015625 32.515625 -25.625 31.953125 -24.3125 C 31.390625 -23 30.550781 -21.894531 29.4375 -21 C 28.332031 -20.113281 26.84375 -19.578125 24.96875 -19.390625 L 24.96875 0 L 21.59375 0 L 20.984375 -3.328125 L 20.796875 -3.328125 C 19.984375 -2.015625 18.863281 -1.050781 17.4375 -0.4375 C 16.019531 0.164062 14.515625 0.46875 12.921875 0.46875 C 9.867188 0.46875 7.566406 -0.253906 6.015625 -1.703125 C 4.472656 -3.160156 3.703125 -5.484375 3.703125 -8.671875 L 3.703125 -25.0625 L 7.875 -25.0625 L 7.875 -8.953125 C 7.875 -4.953125 9.726562 -2.953125 13.4375 -2.953125 C 16.21875 -2.953125 18.144531 -3.734375 19.21875 -5.296875 C 20.300781 -6.859375 20.84375 -9.101562 20.84375 -12.03125 L 20.84375 -25.0625 L 24.96875 -25.0625 L 24.96875 -22.296875 C 26.46875 -22.546875 27.425781 -23.269531 27.84375 -24.46875 C 28.269531 -25.675781 28.484375 -27.1875 28.484375 -29 Z M 32.84375 -29 "/></g></g></g><g fill="#ffffff" fill-opacity="1"><g transform="translate(133.762546, 331.119588)"><g><path d="M 15.296875 -10.09375 C 13.710938 -10.019531 12.398438 -9.882812 11.359375 -9.6875 C 10.316406 -9.488281 9.484375 -9.234375 8.859375 -8.921875 C 8.242188 -8.609375 7.804688 -8.253906 7.546875 -7.859375 C 7.296875 -7.460938 7.171875 -7.03125 7.171875 -6.5625 C 7.171875 -5.625 7.429688 -4.957031 7.953125 -4.5625 C 8.472656 -4.175781 9.203125 -3.984375 10.140625 -3.984375 C 11.210938 -3.984375 12.144531 -4.171875 12.9375 -4.546875 C 13.726562 -4.929688 14.515625 -5.53125 15.296875 -6.34375 Z M 2.125 -20.796875 C 3.550781 -22.078125 5.125 -23.03125 6.84375 -23.65625 C 8.5625 -24.289062 10.414062 -24.609375 12.40625 -24.609375 C 13.84375 -24.609375 15.128906 -24.375 16.265625 -23.90625 C 17.398438 -23.445312 18.359375 -22.796875 19.140625 -21.953125 C 19.929688 -21.117188 20.535156 -20.125 20.953125 -18.96875 C 21.378906 -17.8125 21.59375 -16.546875 21.59375 -15.171875 L 21.59375 0 L 18.640625 0 C 18.035156 0 17.570312 -0.0820312 17.25 -0.25 C 16.925781 -0.425781 16.664062 -0.785156 16.46875 -1.328125 L 15.953125 -2.875 C 15.335938 -2.34375 14.742188 -1.875 14.171875 -1.46875 C 13.609375 -1.0625 13.019531 -0.722656 12.40625 -0.453125 C 11.800781 -0.179688 11.148438 0.0195312 10.453125 0.15625 C 9.765625 0.300781 8.988281 0.375 8.125 0.375 C 7.0625 0.375 6.09375 0.234375 5.21875 -0.046875 C 4.34375 -0.328125 3.585938 -0.742188 2.953125 -1.296875 C 2.328125 -1.847656 1.84375 -2.535156 1.5 -3.359375 C 1.15625 -4.191406 0.984375 -5.148438 0.984375 -6.234375 C 0.984375 -7.117188 1.207031 -8.003906 1.65625 -8.890625 C 2.113281 -9.785156 2.890625 -10.59375 3.984375 -11.3125 C 5.085938 -12.039062 6.554688 -12.644531 8.390625 -13.125 C 10.234375 -13.601562 12.535156 -13.875 15.296875 -13.9375 L 15.296875 -15.171875 C 15.296875 -16.691406 14.972656 -17.804688 14.328125 -18.515625 C 13.691406 -19.222656 12.773438 -19.578125 11.578125 -19.578125 C 10.679688 -19.578125 9.9375 -19.472656 9.34375 -19.265625 C 8.75 -19.054688 8.226562 -18.828125 7.78125 -18.578125 C 7.34375 -18.335938 6.925781 -18.113281 6.53125 -17.90625 C 6.144531 -17.695312 5.691406 -17.59375 5.171875 -17.59375 C 4.722656 -17.59375 4.34375 -17.703125 4.03125 -17.921875 C 3.726562 -18.148438 3.476562 -18.421875 3.28125 -18.734375 Z M 2.125 -20.796875 "/></g></g></g><g fill="#ffffff" fill-opacity="1"><g transform="translate(157.738558, 331.119588)"><g/></g></g><g fill="#ffffff" fill-opacity="1"><g transform="translate(168.860246, 331.119588)"><g><path d="M 9.140625 -6.375 C 9.742188 -5.664062 10.398438 -5.171875 11.109375 -4.890625 C 11.816406 -4.609375 12.554688 -4.46875 13.328125 -4.46875 C 14.117188 -4.46875 14.835938 -4.613281 15.484375 -4.90625 C 16.140625 -5.195312 16.703125 -5.65625 17.171875 -6.28125 C 17.640625 -6.914062 18 -7.738281 18.25 -8.75 C 18.5 -9.769531 18.625 -11 18.625 -12.4375 C 18.625 -13.71875 18.519531 -14.804688 18.3125 -15.703125 C 18.113281 -16.597656 17.8125 -17.332031 17.40625 -17.90625 C 17.007812 -18.488281 16.519531 -18.910156 15.9375 -19.171875 C 15.363281 -19.441406 14.695312 -19.578125 13.9375 -19.578125 C 12.914062 -19.578125 12.035156 -19.351562 11.296875 -18.90625 C 10.554688 -18.46875 9.835938 -17.816406 9.140625 -16.953125 Z M 9.140625 -21.359375 C 10.085938 -22.316406 11.140625 -23.082031 12.296875 -23.65625 C 13.453125 -24.226562 14.75 -24.515625 16.1875 -24.515625 C 17.570312 -24.515625 18.820312 -24.238281 19.9375 -23.6875 C 21.0625 -23.132812 22.015625 -22.34375 22.796875 -21.3125 C 23.585938 -20.28125 24.195312 -19.035156 24.625 -17.578125 C 25.050781 -16.117188 25.265625 -14.484375 25.265625 -12.671875 C 25.265625 -10.722656 25.019531 -8.945312 24.53125 -7.34375 C 24.039062 -5.738281 23.34375 -4.363281 22.4375 -3.21875 C 21.53125 -2.082031 20.445312 -1.203125 19.1875 -0.578125 C 17.9375 0.0351562 16.535156 0.34375 14.984375 0.34375 C 14.234375 0.34375 13.5625 0.269531 12.96875 0.125 C 12.375 -0.0195312 11.828125 -0.222656 11.328125 -0.484375 C 10.835938 -0.753906 10.378906 -1.070312 9.953125 -1.4375 C 9.535156 -1.800781 9.140625 -2.210938 8.765625 -2.671875 L 8.5 -1.21875 C 8.394531 -0.757812 8.21875 -0.441406 7.96875 -0.265625 C 7.71875 -0.0859375 7.378906 0 6.953125 0 L 2.671875 0 L 2.671875 -34.921875 L 9.140625 -34.921875 Z M 9.140625 -21.359375 "/></g></g></g><g fill="#ffffff" fill-opacity="1"><g transform="translate(195.599114, 331.119588)"><g><path d="M 13.484375 -25.53125 C 16.546875 -25.53125 18.8125 -24.859375 20.28125 -23.515625 C 21.75 -22.171875 22.484375 -20.03125 22.484375 -17.09375 L 22.484375 0 L 19.484375 0 L 18.6875 -3.5625 L 18.5 -3.5625 C 17.40625 -2.1875 16.25 -1.171875 15.03125 -0.515625 C 13.8125 0.140625 12.160156 0.46875 10.078125 0.46875 C 7.796875 0.46875 5.90625 -0.128906 4.40625 -1.328125 C 2.90625 -2.535156 2.15625 -4.421875 2.15625 -6.984375 C 2.15625 -9.484375 3.140625 -11.410156 5.109375 -12.765625 C 7.078125 -14.117188 10.101562 -14.859375 14.1875 -14.984375 L 18.453125 -15.125 L 18.453125 -16.625 C 18.453125 -18.71875 18 -20.171875 17.09375 -20.984375 C 16.1875 -21.796875 14.90625 -22.203125 13.25 -22.203125 C 11.945312 -22.203125 10.703125 -22.003906 9.515625 -21.609375 C 8.328125 -21.222656 7.21875 -20.78125 6.1875 -20.28125 L 4.921875 -23.375 C 6.015625 -23.96875 7.3125 -24.472656 8.8125 -24.890625 C 10.3125 -25.316406 11.867188 -25.53125 13.484375 -25.53125 Z M 18.40625 -12.265625 L 14.703125 -12.125 C 11.585938 -12 9.425781 -11.5 8.21875 -10.625 C 7.019531 -9.757812 6.421875 -8.53125 6.421875 -6.9375 C 6.421875 -5.53125 6.847656 -4.5 7.703125 -3.84375 C 8.566406 -3.1875 9.671875 -2.859375 11.015625 -2.859375 C 13.097656 -2.859375 14.847656 -3.441406 16.265625 -4.609375 C 17.691406 -5.785156 18.40625 -7.59375 18.40625 -10.03125 Z M 18.46875 -39.53125 L 18.46875 -39.0625 C 17.78125 -38.1875 17.03125 -37.332031 16.21875 -36.5 C 15.414062 -35.675781 14.609375 -34.957031 13.796875 -34.34375 L 11.5 -34.34375 L 11.5 -34.859375 C 12.09375 -35.628906 12.609375 -36.347656 13.046875 -37.015625 C 13.484375 -37.691406 13.9375 -38.53125 14.40625 -39.53125 Z M 19.96875 -34.53125 C 19.8125 -32.65625 19.15625 -31.160156 18 -30.046875 C 16.84375 -28.941406 15.175781 -28.390625 13 -28.390625 C 10.78125 -28.390625 9.113281 -28.9375 8 -30.03125 C 6.894531 -31.125 6.28125 -32.625 6.15625 -34.53125 L 8.640625 -34.53125 C 8.765625 -33.25 9.191406 -32.421875 9.921875 -32.046875 C 10.660156 -31.671875 11.703125 -31.484375 13.046875 -31.484375 C 14.234375 -31.484375 15.226562 -31.6875 16.03125 -32.09375 C 16.84375 -32.5 17.328125 -33.3125 17.484375 -34.53125 Z M 19.96875 -34.53125 "/></g></g></g><g fill="#ffffff" fill-opacity="1"><g transform="translate(221.8697, 331.119588)"><g><path d="M 11.015625 0.375 C 9.921875 0.375 8.953125 0.21875 8.109375 -0.09375 C 7.265625 -0.414062 6.550781 -0.875 5.96875 -1.46875 C 5.394531 -2.0625 4.957031 -2.78125 4.65625 -3.625 C 4.363281 -4.46875 4.21875 -5.421875 4.21875 -6.484375 L 4.21875 -19.515625 L 1.9375 -19.515625 C 1.59375 -19.515625 1.300781 -19.625 1.0625 -19.84375 C 0.820312 -20.0625 0.703125 -20.390625 0.703125 -20.828125 L 0.703125 -23.34375 L 4.5625 -24.046875 L 5.875 -30.3125 C 6.050781 -31.007812 6.53125 -31.359375 7.3125 -31.359375 L 10.6875 -31.359375 L 10.6875 -24 L 16.90625 -24 L 16.90625 -19.515625 L 10.6875 -19.515625 L 10.6875 -6.90625 C 10.6875 -6.238281 10.84375 -5.707031 11.15625 -5.3125 C 11.476562 -4.925781 11.9375 -4.734375 12.53125 -4.734375 C 12.84375 -4.734375 13.109375 -4.765625 13.328125 -4.828125 C 13.546875 -4.898438 13.734375 -4.976562 13.890625 -5.0625 C 14.046875 -5.15625 14.1875 -5.234375 14.3125 -5.296875 C 14.445312 -5.367188 14.585938 -5.40625 14.734375 -5.40625 C 14.921875 -5.40625 15.078125 -5.363281 15.203125 -5.28125 C 15.328125 -5.195312 15.453125 -5.050781 15.578125 -4.84375 L 17.515625 -1.75 C 16.628906 -1.050781 15.625 -0.519531 14.5 -0.15625 C 13.375 0.195312 12.210938 0.375 11.015625 0.375 Z M 11.015625 0.375 "/></g></g></g><g fill="#ffffff" fill-opacity="1"><g transform="translate(239.54733, 331.119588)"><g/></g></g><g fill="#ffffff" fill-opacity="1"><g transform="translate(250.669018, 331.119588)"><g><path d="M 17.640625 -17.078125 C 17.023438 -17.773438 16.363281 -18.265625 15.65625 -18.546875 C 14.945312 -18.828125 14.1875 -18.96875 13.375 -18.96875 C 12.59375 -18.96875 11.878906 -18.835938 11.234375 -18.578125 C 10.597656 -18.328125 10.050781 -17.910156 9.59375 -17.328125 C 9.144531 -16.753906 8.796875 -15.992188 8.546875 -15.046875 C 8.296875 -14.097656 8.171875 -12.945312 8.171875 -11.59375 C 8.171875 -10.25 8.269531 -9.128906 8.46875 -8.234375 C 8.675781 -7.347656 8.972656 -6.640625 9.359375 -6.109375 C 9.742188 -5.578125 10.207031 -5.203125 10.75 -4.984375 C 11.300781 -4.765625 11.910156 -4.65625 12.578125 -4.65625 C 13.710938 -4.65625 14.664062 -4.878906 15.4375 -5.328125 C 16.21875 -5.785156 16.953125 -6.4375 17.640625 -7.28125 Z M 27.421875 -26.390625 L 24.09375 -26.390625 L 24.09375 0 L 20.125 0 C 19.289062 0 18.757812 -0.375 18.53125 -1.125 L 17.984375 -3.25 C 17.503906 -2.707031 16.992188 -2.21875 16.453125 -1.78125 C 15.910156 -1.34375 15.328125 -0.960938 14.703125 -0.640625 C 14.078125 -0.316406 13.40625 -0.0703125 12.6875 0.09375 C 11.976562 0.257812 11.203125 0.34375 10.359375 0.34375 C 9.054688 0.34375 7.863281 0.09375 6.78125 -0.40625 C 5.695312 -0.914062 4.765625 -1.671875 3.984375 -2.671875 C 3.203125 -3.679688 2.59375 -4.925781 2.15625 -6.40625 C 1.71875 -7.894531 1.5 -9.625 1.5 -11.59375 C 1.5 -13.382812 1.742188 -15.03125 2.234375 -16.53125 C 2.722656 -18.03125 3.421875 -19.316406 4.328125 -20.390625 C 5.234375 -21.472656 6.320312 -22.3125 7.59375 -22.90625 C 8.875 -23.5 10.289062 -23.796875 11.84375 -23.796875 C 13.15625 -23.796875 14.265625 -23.597656 15.171875 -23.203125 C 16.078125 -22.816406 16.898438 -22.289062 17.640625 -21.625 L 17.640625 -26.390625 L 12.40625 -26.390625 L 12.40625 -30.3125 L 17.640625 -30.3125 L 17.640625 -34.921875 L 24.09375 -34.921875 L 24.09375 -30.3125 L 27.421875 -30.3125 Z M 27.421875 -26.390625 "/></g></g></g><g fill="#ffffff" fill-opacity="1"><g transform="translate(277.407886, 331.119588)"><g><path d="M 13.484375 -25.53125 C 16.546875 -25.53125 18.8125 -24.859375 20.28125 -23.515625 C 21.75 -22.171875 22.484375 -20.03125 22.484375 -17.09375 L 22.484375 0 L 19.484375 0 L 18.6875 -3.5625 L 18.5 -3.5625 C 17.40625 -2.1875 16.25 -1.171875 15.03125 -0.515625 C 13.8125 0.140625 12.160156 0.46875 10.078125 0.46875 C 7.796875 0.46875 5.90625 -0.128906 4.40625 -1.328125 C 2.90625 -2.535156 2.15625 -4.421875 2.15625 -6.984375 C 2.15625 -9.484375 3.140625 -11.410156 5.109375 -12.765625 C 7.078125 -14.117188 10.101562 -14.859375 14.1875 -14.984375 L 18.453125 -15.125 L 18.453125 -16.625 C 18.453125 -18.71875 18 -20.171875 17.09375 -20.984375 C 16.1875 -21.796875 14.90625 -22.203125 13.25 -22.203125 C 11.945312 -22.203125 10.703125 -22.003906 9.515625 -21.609375 C 8.328125 -21.222656 7.21875 -20.78125 6.1875 -20.28125 L 4.921875 -23.375 C 6.015625 -23.96875 7.3125 -24.472656 8.8125 -24.890625 C 10.3125 -25.316406 11.867188 -25.53125 13.484375 -25.53125 Z M 18.40625 -12.265625 L 14.703125 -12.125 C 11.585938 -12 9.425781 -11.5 8.21875 -10.625 C 7.019531 -9.757812 6.421875 -8.53125 6.421875 -6.9375 C 6.421875 -5.53125 6.847656 -4.5 7.703125 -3.84375 C 8.566406 -3.1875 9.671875 -2.859375 11.015625 -2.859375 C 13.097656 -2.859375 14.847656 -3.441406 16.265625 -4.609375 C 17.691406 -5.785156 18.40625 -7.59375 18.40625 -10.03125 Z M 5.6875 -32.84375 C 4.8125 -33.5 3.972656 -34.222656 3.171875 -35.015625 C 2.378906 -35.804688 1.640625 -36.65625 0.953125 -37.5625 L 0.953125 -38.03125 L 5.03125 -38.03125 C 5.53125 -37.03125 5.988281 -36.195312 6.40625 -35.53125 C 6.832031 -34.863281 7.34375 -34.140625 7.9375 -33.359375 L 7.9375 -32.84375 Z M 6.109375 -28.390625 L 6.109375 -28.90625 C 6.890625 -29.8125 7.734375 -30.769531 8.640625 -31.78125 C 9.546875 -32.800781 10.359375 -33.84375 11.078125 -34.90625 L 15.421875 -34.90625 C 16.140625 -33.84375 16.953125 -32.800781 17.859375 -31.78125 C 18.765625 -30.769531 19.609375 -29.8125 20.390625 -28.90625 L 20.390625 -28.390625 L 18.046875 -28.390625 C 17.265625 -28.890625 16.46875 -29.46875 15.65625 -30.125 C 14.851562 -30.78125 14.046875 -31.46875 13.234375 -32.1875 C 12.421875 -31.46875 11.609375 -30.78125 10.796875 -30.125 C 9.984375 -29.46875 9.1875 -28.890625 8.40625 -28.390625 Z M 6.109375 -28.390625 "/></g></g></g><g fill="#ffffff" fill-opacity="1"><g transform="translate(303.67848, 331.119588)"><g><path d="M 23.859375 -24.140625 L 23.859375 0 L 19.890625 0 C 19.054688 0 18.523438 -0.375 18.296875 -1.125 L 17.875 -2.8125 C 17.382812 -2.34375 16.878906 -1.910156 16.359375 -1.515625 C 15.847656 -1.128906 15.300781 -0.796875 14.71875 -0.515625 C 14.132812 -0.234375 13.5 -0.015625 12.8125 0.140625 C 12.132812 0.296875 11.398438 0.375 10.609375 0.375 C 9.296875 0.375 8.128906 0.148438 7.109375 -0.296875 C 6.085938 -0.753906 5.234375 -1.390625 4.546875 -2.203125 C 3.859375 -3.015625 3.332031 -3.984375 2.96875 -5.109375 C 2.613281 -6.234375 2.4375 -7.46875 2.4375 -8.8125 L 2.4375 -24.140625 L 8.90625 -24.140625 L 8.90625 -8.8125 C 8.90625 -7.46875 9.210938 -6.421875 9.828125 -5.671875 C 10.441406 -4.929688 11.359375 -4.5625 12.578125 -4.5625 C 13.484375 -4.5625 14.332031 -4.757812 15.125 -5.15625 C 15.925781 -5.5625 16.6875 -6.109375 17.40625 -6.796875 L 17.40625 -24.140625 Z M 23.859375 -24.140625 "/></g></g></g></svg>