<svg xmlns="http://www.w3.org/2000/svg" xmlns:xlink="http://www.w3.org/1999/xlink" width="500" zoomAndPan="magnify" viewBox="0 0 375 374.999991" height="500" preserveAspectRatio="xMidYMid meet" version="1.0"><defs><g/><clipPath id="id1"><path d="M 84.066406 204 L 120 204 L 120 238 L 84.066406 238 Z M 84.066406 204 " clip-rule="nonzero"/></clipPath><clipPath id="id2"><path d="M 197 242 L 230.316406 242 L 230.316406 273.75 L 197 273.75 Z M 197 242 " clip-rule="nonzero"/></clipPath><clipPath id="id3"><path d="M 203 249 L 230.316406 249 L 230.316406 272 L 203 272 Z M 203 249 " clip-rule="nonzero"/></clipPath></defs><rect x="-37.5" width="450" fill="#ffffff" y="-37.499999" height="449.999989" fill-opacity="1"/><rect x="-37.5" width="450" fill="#008037" y="-37.499999" height="449.999989" fill-opacity="1"/><g fill="#ffffff" fill-opacity="1"><g transform="translate(29.003909, 314.755175)"><g><path d="M 16.734375 -5.390625 C 18.296875 -5.390625 19.691406 -5.644531 20.921875 -6.15625 C 22.148438 -6.664062 23.191406 -7.40625 24.046875 -8.375 C 24.898438 -9.34375 25.554688 -10.519531 26.015625 -11.90625 C 26.472656 -13.300781 26.703125 -14.878906 26.703125 -16.640625 C 26.703125 -18.378906 26.472656 -19.941406 26.015625 -21.328125 C 25.554688 -22.722656 24.898438 -23.898438 24.046875 -24.859375 C 23.191406 -25.828125 22.148438 -26.570312 20.921875 -27.09375 C 19.691406 -27.613281 18.296875 -27.875 16.734375 -27.875 L 10.859375 -27.875 L 10.859375 -18.640625 L 16.734375 -18.640625 L 16.734375 -14.8125 L 10.859375 -14.8125 L 10.859375 -5.390625 Z M 16.734375 -33.265625 C 19.285156 -33.265625 21.609375 -32.847656 23.703125 -32.015625 C 25.796875 -31.191406 27.585938 -30.039062 29.078125 -28.5625 C 30.566406 -27.09375 31.71875 -25.34375 32.53125 -23.3125 C 33.351562 -21.28125 33.765625 -19.054688 33.765625 -16.640625 C 33.765625 -14.210938 33.351562 -11.976562 32.53125 -9.9375 C 31.71875 -7.894531 30.566406 -6.140625 29.078125 -4.671875 C 27.585938 -3.203125 25.796875 -2.054688 23.703125 -1.234375 C 21.609375 -0.410156 19.285156 0 16.734375 0 L 3.9375 0 L 3.9375 -14.8125 L -0.046875 -14.8125 L -0.046875 -18.640625 L 3.9375 -18.640625 L 3.9375 -33.265625 Z M 16.734375 -33.265625 "/></g></g></g><g fill="#ffffff" fill-opacity="1"><g transform="translate(64.317582, 314.755175)"><g><path d="M 14.96875 -9.875 C 13.425781 -9.800781 12.140625 -9.664062 11.109375 -9.46875 C 10.085938 -9.28125 9.273438 -9.035156 8.671875 -8.734375 C 8.066406 -8.429688 7.640625 -8.082031 7.390625 -7.6875 C 7.140625 -7.300781 7.015625 -6.878906 7.015625 -6.421875 C 7.015625 -5.503906 7.269531 -4.851562 7.78125 -4.46875 C 8.289062 -4.082031 9.003906 -3.890625 9.921875 -3.890625 C 10.972656 -3.890625 11.882812 -4.078125 12.65625 -4.453125 C 13.4375 -4.828125 14.207031 -5.414062 14.96875 -6.21875 Z M 2.078125 -20.359375 C 3.472656 -21.609375 5.007812 -22.539062 6.6875 -23.15625 C 8.375 -23.78125 10.195312 -24.09375 12.15625 -24.09375 C 13.550781 -24.09375 14.800781 -23.863281 15.90625 -23.40625 C 17.019531 -22.945312 17.960938 -22.304688 18.734375 -21.484375 C 19.503906 -20.671875 20.097656 -19.695312 20.515625 -18.5625 C 20.929688 -17.4375 21.140625 -16.203125 21.140625 -14.859375 L 21.140625 0 L 18.25 0 C 17.65625 0 17.195312 -0.0820312 16.875 -0.25 C 16.5625 -0.414062 16.304688 -0.769531 16.109375 -1.3125 L 15.609375 -2.8125 C 15.015625 -2.300781 14.4375 -1.84375 13.875 -1.4375 C 13.320312 -1.039062 12.742188 -0.707031 12.140625 -0.4375 C 11.546875 -0.175781 10.910156 0.0195312 10.234375 0.15625 C 9.554688 0.289062 8.796875 0.359375 7.953125 0.359375 C 6.910156 0.359375 5.960938 0.222656 5.109375 -0.046875 C 4.253906 -0.316406 3.515625 -0.722656 2.890625 -1.265625 C 2.273438 -1.804688 1.800781 -2.484375 1.46875 -3.296875 C 1.132812 -4.109375 0.96875 -5.039062 0.96875 -6.09375 C 0.96875 -6.96875 1.1875 -7.835938 1.625 -8.703125 C 2.070312 -9.578125 2.832031 -10.367188 3.90625 -11.078125 C 4.988281 -11.796875 6.425781 -12.382812 8.21875 -12.84375 C 10.007812 -13.3125 12.257812 -13.578125 14.96875 -13.640625 L 14.96875 -14.859375 C 14.96875 -16.335938 14.65625 -17.421875 14.03125 -18.109375 C 13.40625 -18.804688 12.503906 -19.15625 11.328125 -19.15625 C 10.453125 -19.15625 9.722656 -19.050781 9.140625 -18.84375 C 8.566406 -18.644531 8.0625 -18.425781 7.625 -18.1875 C 7.1875 -17.945312 6.773438 -17.722656 6.390625 -17.515625 C 6.015625 -17.316406 5.570312 -17.21875 5.0625 -17.21875 C 4.625 -17.21875 4.253906 -17.328125 3.953125 -17.546875 C 3.648438 -17.765625 3.398438 -18.03125 3.203125 -18.34375 Z M 2.078125 -20.359375 "/></g></g></g><g fill="#ffffff" fill-opacity="1"><g transform="translate(87.783644, 314.755175)"><g><path d="M 8.484375 -20.875 C 8.953125 -21.332031 9.441406 -21.753906 9.953125 -22.140625 C 10.472656 -22.523438 11.019531 -22.851562 11.59375 -23.125 C 12.164062 -23.40625 12.78125 -23.617188 13.4375 -23.765625 C 14.101562 -23.921875 14.828125 -24 15.609375 -24 C 16.890625 -24 18.023438 -23.773438 19.015625 -23.328125 C 20.015625 -22.890625 20.851562 -22.269531 21.53125 -21.46875 C 22.21875 -20.675781 22.734375 -19.726562 23.078125 -18.625 C 23.421875 -17.53125 23.59375 -16.328125 23.59375 -15.015625 L 23.59375 0 L 17.28125 0 L 17.28125 -15.015625 C 17.28125 -16.328125 16.972656 -17.34375 16.359375 -18.0625 C 15.753906 -18.789062 14.851562 -19.15625 13.65625 -19.15625 C 12.769531 -19.15625 11.9375 -18.960938 11.15625 -18.578125 C 10.382812 -18.203125 9.644531 -17.671875 8.9375 -16.984375 L 8.9375 0 L 2.609375 0 L 2.609375 -23.625 L 6.515625 -23.625 C 7.304688 -23.625 7.832031 -23.257812 8.09375 -22.53125 Z M 8.484375 -20.875 "/></g></g></g><g fill="#ffffff" fill-opacity="1"><g transform="translate(113.770475, 314.755175)"><g><path d="M 11.421875 -12.703125 C 12.710938 -12.703125 13.664062 -13.03125 14.28125 -13.6875 C 14.90625 -14.34375 15.21875 -15.191406 15.21875 -16.234375 C 15.21875 -17.316406 14.90625 -18.164062 14.28125 -18.78125 C 13.664062 -19.40625 12.710938 -19.71875 11.421875 -19.71875 C 10.117188 -19.71875 9.160156 -19.40625 8.546875 -18.78125 C 7.941406 -18.164062 7.640625 -17.316406 7.640625 -16.234375 C 7.640625 -15.203125 7.945312 -14.351562 8.5625 -13.6875 C 9.175781 -13.03125 10.128906 -12.703125 11.421875 -12.703125 Z M 17.390625 0.96875 C 17.390625 0.550781 17.257812 0.210938 17 -0.046875 C 16.75 -0.304688 16.40625 -0.507812 15.96875 -0.65625 C 15.53125 -0.8125 15.015625 -0.921875 14.421875 -0.984375 C 13.828125 -1.054688 13.191406 -1.113281 12.515625 -1.15625 C 11.835938 -1.195312 11.140625 -1.234375 10.421875 -1.265625 C 9.710938 -1.296875 9.015625 -1.347656 8.328125 -1.421875 C 7.785156 -1.097656 7.34375 -0.71875 7 -0.28125 C 6.65625 0.144531 6.484375 0.632812 6.484375 1.1875 C 6.484375 1.570312 6.570312 1.925781 6.75 2.25 C 6.925781 2.570312 7.21875 2.847656 7.625 3.078125 C 8.039062 3.304688 8.582031 3.484375 9.25 3.609375 C 9.925781 3.742188 10.769531 3.8125 11.78125 3.8125 C 12.820312 3.8125 13.703125 3.738281 14.421875 3.59375 C 15.140625 3.457031 15.71875 3.265625 16.15625 3.015625 C 16.601562 2.765625 16.921875 2.460938 17.109375 2.109375 C 17.296875 1.753906 17.390625 1.375 17.390625 0.96875 Z M 23.671875 -22.859375 L 23.671875 -20.53125 C 23.671875 -20.164062 23.566406 -19.875 23.359375 -19.65625 C 23.160156 -19.445312 22.820312 -19.289062 22.34375 -19.1875 L 20.421875 -18.796875 C 20.679688 -18.046875 20.8125 -17.242188 20.8125 -16.390625 C 20.8125 -15.210938 20.570312 -14.15625 20.09375 -13.21875 C 19.613281 -12.28125 18.953125 -11.476562 18.109375 -10.8125 C 17.265625 -10.144531 16.269531 -9.628906 15.125 -9.265625 C 13.976562 -8.910156 12.742188 -8.734375 11.421875 -8.734375 C 10.578125 -8.734375 9.785156 -8.800781 9.046875 -8.9375 C 8.410156 -8.539062 8.09375 -8.109375 8.09375 -7.640625 C 8.09375 -7.191406 8.304688 -6.867188 8.734375 -6.671875 C 9.171875 -6.472656 9.742188 -6.332031 10.453125 -6.25 C 11.171875 -6.164062 11.984375 -6.109375 12.890625 -6.078125 C 13.796875 -6.054688 14.71875 -6.007812 15.65625 -5.9375 C 16.601562 -5.863281 17.53125 -5.726562 18.4375 -5.53125 C 19.34375 -5.34375 20.148438 -5.03125 20.859375 -4.59375 C 21.578125 -4.15625 22.15625 -3.578125 22.59375 -2.859375 C 23.03125 -2.140625 23.25 -1.21875 23.25 -0.09375 C 23.25 0.957031 22.988281 1.976562 22.46875 2.96875 C 21.945312 3.96875 21.191406 4.859375 20.203125 5.640625 C 19.222656 6.421875 18.015625 7.046875 16.578125 7.515625 C 15.140625 7.992188 13.503906 8.234375 11.671875 8.234375 C 9.847656 8.234375 8.265625 8.0625 6.921875 7.71875 C 5.585938 7.375 4.484375 6.914062 3.609375 6.34375 C 2.734375 5.769531 2.082031 5.109375 1.65625 4.359375 C 1.226562 3.609375 1.015625 2.828125 1.015625 2.015625 C 1.015625 0.960938 1.332031 0.0703125 1.96875 -0.65625 C 2.613281 -1.394531 3.5 -1.988281 4.625 -2.4375 C 4.03125 -2.769531 3.550781 -3.207031 3.1875 -3.75 C 2.832031 -4.289062 2.65625 -5 2.65625 -5.875 C 2.65625 -6.570312 2.910156 -7.3125 3.421875 -8.09375 C 3.929688 -8.875 4.722656 -9.523438 5.796875 -10.046875 C 4.585938 -10.679688 3.628906 -11.535156 2.921875 -12.609375 C 2.222656 -13.691406 1.875 -14.953125 1.875 -16.390625 C 1.875 -17.566406 2.113281 -18.628906 2.59375 -19.578125 C 3.082031 -20.523438 3.753906 -21.328125 4.609375 -21.984375 C 5.460938 -22.648438 6.46875 -23.160156 7.625 -23.515625 C 8.789062 -23.867188 10.054688 -24.046875 11.421875 -24.046875 C 13.429688 -24.046875 15.207031 -23.648438 16.75 -22.859375 Z M 23.671875 -22.859375 "/></g></g></g><g fill="#ffffff" fill-opacity="1"><g transform="translate(138.130264, 314.755175)"><g/></g></g><g fill="#ffffff" fill-opacity="1"><g transform="translate(149.015402, 314.755175)"><g><path d="M 10.765625 0.359375 C 9.703125 0.359375 8.753906 0.203125 7.921875 -0.109375 C 7.097656 -0.421875 6.40625 -0.863281 5.84375 -1.4375 C 5.28125 -2.019531 4.851562 -2.722656 4.5625 -3.546875 C 4.269531 -4.378906 4.125 -5.3125 4.125 -6.34375 L 4.125 -19.09375 L 1.90625 -19.09375 C 1.5625 -19.09375 1.269531 -19.195312 1.03125 -19.40625 C 0.800781 -19.625 0.6875 -19.945312 0.6875 -20.375 L 0.6875 -22.859375 L 4.46875 -23.546875 L 5.75 -29.65625 C 5.914062 -30.34375 6.382812 -30.6875 7.15625 -30.6875 L 10.453125 -30.6875 L 10.453125 -23.5 L 16.546875 -23.5 L 16.546875 -19.09375 L 10.453125 -19.09375 L 10.453125 -6.765625 C 10.453125 -6.109375 10.609375 -5.585938 10.921875 -5.203125 C 11.234375 -4.816406 11.679688 -4.625 12.265625 -4.625 C 12.566406 -4.625 12.820312 -4.660156 13.03125 -4.734375 C 13.25 -4.804688 13.4375 -4.882812 13.59375 -4.96875 C 13.75 -5.050781 13.890625 -5.125 14.015625 -5.1875 C 14.148438 -5.257812 14.285156 -5.296875 14.421875 -5.296875 C 14.597656 -5.296875 14.75 -5.253906 14.875 -5.171875 C 15 -5.085938 15.125 -4.945312 15.25 -4.75 L 17.140625 -1.71875 C 16.273438 -1.03125 15.289062 -0.507812 14.1875 -0.15625 C 13.082031 0.1875 11.941406 0.359375 10.765625 0.359375 Z M 10.765625 0.359375 "/></g></g></g><g fill="#ffffff" fill-opacity="1"><g transform="translate(166.317037, 314.755175)"><g><path d="M 8.9375 -21.3125 C 9.382812 -21.707031 9.847656 -22.070312 10.328125 -22.40625 C 10.804688 -22.738281 11.316406 -23.019531 11.859375 -23.25 C 12.398438 -23.488281 12.976562 -23.671875 13.59375 -23.796875 C 14.21875 -23.929688 14.890625 -24 15.609375 -24 C 16.890625 -24 18.023438 -23.773438 19.015625 -23.328125 C 20.015625 -22.890625 20.851562 -22.269531 21.53125 -21.46875 C 22.21875 -20.675781 22.734375 -19.726562 23.078125 -18.625 C 23.421875 -17.53125 23.59375 -16.328125 23.59375 -15.015625 L 23.59375 0 L 17.28125 0 L 17.28125 -15.015625 C 17.28125 -16.328125 16.972656 -17.34375 16.359375 -18.0625 C 15.753906 -18.789062 14.851562 -19.15625 13.65625 -19.15625 C 12.769531 -19.15625 11.9375 -18.960938 11.15625 -18.578125 C 10.382812 -18.203125 9.644531 -17.671875 8.9375 -16.984375 L 8.9375 0 L 2.609375 0 L 2.609375 -34.171875 L 8.9375 -34.171875 Z M 8.9375 -21.3125 "/></g></g></g><g fill="#ffffff" fill-opacity="1"><g transform="translate(192.303866, 314.755175)"><g><path d="M 32.140625 -28.375 L 32.453125 -27.875 C 32.210938 -26.4375 31.816406 -25.078125 31.265625 -23.796875 C 30.710938 -22.515625 29.894531 -21.4375 28.8125 -20.5625 C 27.726562 -19.6875 26.269531 -19.160156 24.4375 -18.984375 L 24.4375 0 L 21.140625 0 L 20.53125 -3.25 L 20.359375 -3.25 C 19.554688 -1.96875 18.457031 -1.03125 17.0625 -0.4375 C 15.675781 0.15625 14.207031 0.453125 12.65625 0.453125 C 9.65625 0.453125 7.398438 -0.253906 5.890625 -1.671875 C 4.378906 -3.097656 3.625 -5.367188 3.625 -8.484375 L 3.625 -24.53125 L 7.703125 -24.53125 L 7.703125 -8.75 C 7.703125 -4.84375 9.519531 -2.890625 13.15625 -2.890625 C 15.875 -2.890625 17.757812 -3.648438 18.8125 -5.171875 C 19.875 -6.703125 20.40625 -8.90625 20.40625 -11.78125 L 20.40625 -24.53125 L 24.4375 -24.53125 L 24.4375 -21.828125 C 25.90625 -22.066406 26.84375 -22.773438 27.25 -23.953125 C 27.664062 -25.128906 27.875 -26.601562 27.875 -28.375 Z M 13.296875 8.0625 C 12.648438 8.0625 12.085938 7.847656 11.609375 7.421875 C 11.140625 6.992188 10.90625 6.351562 10.90625 5.5 C 10.90625 4.613281 11.140625 3.960938 11.609375 3.546875 C 12.085938 3.140625 12.648438 2.9375 13.296875 2.9375 C 13.929688 2.9375 14.484375 3.140625 14.953125 3.546875 C 15.429688 3.960938 15.671875 4.613281 15.671875 5.5 C 15.671875 6.351562 15.429688 6.992188 14.953125 7.421875 C 14.484375 7.847656 13.929688 8.0625 13.296875 8.0625 Z M 13.296875 8.0625 "/></g></g></g><g fill="#ffffff" fill-opacity="1"><g transform="translate(223.194616, 314.755175)"><g><path d="M 19.765625 -18.359375 C 19.578125 -18.117188 19.390625 -17.929688 19.203125 -17.796875 C 19.023438 -17.671875 18.765625 -17.609375 18.421875 -17.609375 C 18.117188 -17.609375 17.828125 -17.691406 17.546875 -17.859375 C 17.265625 -18.035156 16.9375 -18.226562 16.5625 -18.4375 C 16.195312 -18.644531 15.765625 -18.835938 15.265625 -19.015625 C 14.765625 -19.191406 14.140625 -19.28125 13.390625 -19.28125 C 12.441406 -19.28125 11.617188 -19.109375 10.921875 -18.765625 C 10.222656 -18.421875 9.644531 -17.925781 9.1875 -17.28125 C 8.726562 -16.644531 8.390625 -15.863281 8.171875 -14.9375 C 7.953125 -14.019531 7.84375 -12.988281 7.84375 -11.84375 C 7.84375 -9.4375 8.328125 -7.585938 9.296875 -6.296875 C 10.265625 -5.015625 11.585938 -4.375 13.265625 -4.375 C 13.847656 -4.375 14.347656 -4.421875 14.765625 -4.515625 C 15.191406 -4.617188 15.5625 -4.75 15.875 -4.90625 C 16.1875 -5.0625 16.457031 -5.226562 16.6875 -5.40625 C 16.914062 -5.59375 17.132812 -5.757812 17.34375 -5.90625 C 17.550781 -6.0625 17.753906 -6.1875 17.953125 -6.28125 C 18.160156 -6.382812 18.394531 -6.4375 18.65625 -6.4375 C 19.144531 -6.4375 19.523438 -6.253906 19.796875 -5.890625 L 21.609375 -3.59375 C 20.941406 -2.820312 20.222656 -2.175781 19.453125 -1.65625 C 18.691406 -1.144531 17.898438 -0.738281 17.078125 -0.4375 C 16.265625 -0.144531 15.4375 0.0546875 14.59375 0.171875 C 13.757812 0.285156 12.929688 0.34375 12.109375 0.34375 C 10.648438 0.34375 9.269531 0.0703125 7.96875 -0.46875 C 6.675781 -1.007812 5.539062 -1.800781 4.5625 -2.84375 C 3.582031 -3.882812 2.804688 -5.160156 2.234375 -6.671875 C 1.660156 -8.179688 1.375 -9.90625 1.375 -11.84375 C 1.375 -13.570312 1.625 -15.175781 2.125 -16.65625 C 2.632812 -18.144531 3.378906 -19.429688 4.359375 -20.515625 C 5.335938 -21.597656 6.546875 -22.445312 7.984375 -23.0625 C 9.429688 -23.6875 11.101562 -24 13 -24 C 14.800781 -24 16.378906 -23.707031 17.734375 -23.125 C 19.097656 -22.539062 20.320312 -21.703125 21.40625 -20.609375 Z M 19.765625 -18.359375 "/></g></g></g><g fill="#ffffff" fill-opacity="1"><g transform="translate(245.377384, 314.755175)"><g/></g></g><g fill="#ffffff" fill-opacity="1"><g transform="translate(256.262523, 314.755175)"><g><path d="M 8.9375 -21.3125 C 9.382812 -21.707031 9.847656 -22.070312 10.328125 -22.40625 C 10.804688 -22.738281 11.316406 -23.019531 11.859375 -23.25 C 12.398438 -23.488281 12.976562 -23.671875 13.59375 -23.796875 C 14.21875 -23.929688 14.890625 -24 15.609375 -24 C 16.890625 -24 18.023438 -23.773438 19.015625 -23.328125 C 20.015625 -22.890625 20.851562 -22.269531 21.53125 -21.46875 C 22.21875 -20.675781 22.734375 -19.726562 23.078125 -18.625 C 23.421875 -17.53125 23.59375 -16.328125 23.59375 -15.015625 L 23.59375 0 L 17.28125 0 L 17.28125 -15.015625 C 17.28125 -16.328125 16.972656 -17.34375 16.359375 -18.0625 C 15.753906 -18.789062 14.851562 -19.15625 13.65625 -19.15625 C 12.769531 -19.15625 11.9375 -18.960938 11.15625 -18.578125 C 10.382812 -18.203125 9.644531 -17.671875 8.9375 -16.984375 L 8.9375 0 L 2.609375 0 L 2.609375 -34.171875 L 8.9375 -34.171875 Z M 8.9375 -21.3125 "/></g></g></g><g fill="#ffffff" fill-opacity="1"><g transform="translate(282.249353, 314.755175)"><g><path d="M 9.125 -23.625 L 9.125 0 L 2.796875 0 L 2.796875 -23.625 Z M 9.875 -30.34375 C 9.875 -29.8125 9.765625 -29.316406 9.546875 -28.859375 C 9.335938 -28.398438 9.050781 -27.992188 8.6875 -27.640625 C 8.332031 -27.285156 7.914062 -27.007812 7.4375 -26.8125 C 6.957031 -26.613281 6.441406 -26.515625 5.890625 -26.515625 C 5.367188 -26.515625 4.875 -26.613281 4.40625 -26.8125 C 3.945312 -27.007812 3.539062 -27.285156 3.1875 -27.640625 C 2.832031 -27.992188 2.550781 -28.398438 2.34375 -28.859375 C 2.144531 -29.316406 2.046875 -29.8125 2.046875 -30.34375 C 2.046875 -30.882812 2.144531 -31.382812 2.34375 -31.84375 C 2.550781 -32.3125 2.832031 -32.722656 3.1875 -33.078125 C 3.539062 -33.429688 3.945312 -33.707031 4.40625 -33.90625 C 4.875 -34.101562 5.367188 -34.203125 5.890625 -34.203125 C 6.441406 -34.203125 6.957031 -34.101562 7.4375 -33.90625 C 7.914062 -33.707031 8.332031 -33.429688 8.6875 -33.078125 C 9.050781 -32.722656 9.335938 -32.3125 9.546875 -31.84375 C 9.765625 -31.382812 9.875 -30.882812 9.875 -30.34375 Z M 9.875 -30.34375 "/></g></g></g><g fill="#ffffff" fill-opacity="1"><g transform="translate(294.165716, 314.755175)"><g><path d="M 13.390625 -25.03125 C 15.460938 -25.03125 17.265625 -24.570312 18.796875 -23.65625 C 20.328125 -22.738281 21.492188 -21.445312 22.296875 -19.78125 C 23.109375 -18.113281 23.515625 -16.164062 23.515625 -13.9375 L 23.515625 -11.5 L 6.6875 -11.5 C 6.75 -8.71875 7.457031 -6.601562 8.8125 -5.15625 C 10.175781 -3.707031 12.082031 -2.984375 14.53125 -2.984375 C 16.09375 -2.984375 17.476562 -3.125 18.6875 -3.40625 C 19.894531 -3.695312 21.140625 -4.117188 22.421875 -4.671875 L 22.421875 -1.140625 C 21.160156 -0.597656 19.921875 -0.195312 18.703125 0.0625 C 17.484375 0.320312 16.03125 0.453125 14.34375 0.453125 C 11.988281 0.453125 9.925781 -0.0195312 8.15625 -0.96875 C 6.382812 -1.914062 5 -3.320312 4 -5.1875 C 3.007812 -7.050781 2.515625 -9.359375 2.515625 -12.109375 C 2.515625 -14.796875 2.960938 -17.097656 3.859375 -19.015625 C 4.765625 -20.941406 6.035156 -22.425781 7.671875 -23.46875 C 9.304688 -24.507812 11.210938 -25.03125 13.390625 -25.03125 Z M 13.34375 -21.734375 C 11.414062 -21.734375 9.894531 -21.113281 8.78125 -19.875 C 7.664062 -18.632812 7 -16.914062 6.78125 -14.71875 L 19.296875 -14.71875 C 19.265625 -16.789062 18.773438 -18.476562 17.828125 -19.78125 C 16.878906 -21.082031 15.382812 -21.734375 13.34375 -21.734375 Z M 15.59375 -35.109375 C 15.96875 -34.441406 16.5 -33.6875 17.1875 -32.84375 C 17.875 -32.007812 18.585938 -31.1875 19.328125 -30.375 C 20.078125 -29.5625 20.742188 -28.863281 21.328125 -28.28125 L 21.328125 -27.78125 L 18.484375 -27.78125 C 17.691406 -28.269531 16.867188 -28.875 16.015625 -29.59375 C 15.160156 -30.3125 14.316406 -31.082031 13.484375 -31.90625 C 12.660156 -31.082031 11.835938 -30.3125 11.015625 -29.59375 C 10.191406 -28.875 9.378906 -28.269531 8.578125 -27.78125 L 5.828125 -27.78125 L 5.828125 -28.28125 C 6.378906 -28.863281 7.019531 -29.5625 7.75 -30.375 C 8.488281 -31.1875 9.191406 -32.007812 9.859375 -32.84375 C 10.535156 -33.6875 11.070312 -34.441406 11.46875 -35.109375 Z M 13.296875 8.0625 C 12.648438 8.0625 12.085938 7.847656 11.609375 7.421875 C 11.140625 6.992188 10.90625 6.351562 10.90625 5.5 C 10.90625 4.613281 11.140625 3.960938 11.609375 3.546875 C 12.085938 3.140625 12.648438 2.9375 13.296875 2.9375 C 13.929688 2.9375 14.484375 3.140625 14.953125 3.546875 C 15.429688 3.960938 15.671875 4.613281 15.671875 5.5 C 15.671875 6.351562 15.429688 6.992188 14.953125 7.421875 C 14.484375 7.847656 13.929688 8.0625 13.296875 8.0625 Z M 13.296875 8.0625 "/></g></g></g><g fill="#ffffff" fill-opacity="1"><g transform="translate(320.014967, 314.755175)"><g><path d="M 8.484375 -20.875 C 8.953125 -21.332031 9.441406 -21.753906 9.953125 -22.140625 C 10.472656 -22.523438 11.019531 -22.851562 11.59375 -23.125 C 12.164062 -23.40625 12.78125 -23.617188 13.4375 -23.765625 C 14.101562 -23.921875 14.828125 -24 15.609375 -24 C 16.890625 -24 18.023438 -23.773438 19.015625 -23.328125 C 20.015625 -22.890625 20.851562 -22.269531 21.53125 -21.46875 C 22.21875 -20.675781 22.734375 -19.726562 23.078125 -18.625 C 23.421875 -17.53125 23.59375 -16.328125 23.59375 -15.015625 L 23.59375 0 L 17.28125 0 L 17.28125 -15.015625 C 17.28125 -16.328125 16.972656 -17.34375 16.359375 -18.0625 C 15.753906 -18.789062 14.851562 -19.15625 13.65625 -19.15625 C 12.769531 -19.15625 11.9375 -18.960938 11.15625 -18.578125 C 10.382812 -18.203125 9.644531 -17.671875 8.9375 -16.984375 L 8.9375 0 L 2.609375 0 L 2.609375 -23.625 L 6.515625 -23.625 C 7.304688 -23.625 7.832031 -23.257812 8.09375 -22.53125 Z M 8.484375 -20.875 "/></g></g></g><path fill="#a1332e" d="M 128.523438 130.027344 C 128.523438 130.027344 133.488281 137.707031 141.9375 136.332031 C 143.949219 135.964844 140.933594 131.949219 140.933594 131.949219 C 140.933594 131.949219 145.59375 132.445312 146.402344 130.878906 C 147.207031 129.3125 146.460938 128.007812 146.460938 128.007812 C 146.460938 128.007812 150.574219 129.398438 150.558594 126.554688 C 150.546875 123.707031 133.46875 114.023438 128.523438 130.027344 " fill-opacity="1" fill-rule="nonzero"/><path fill="#f68766" d="M 147.5 127.101562 C 147.5 127.101562 154.53125 136.199219 154.652344 136.714844 C 158.753906 137.492188 165.894531 134.089844 165.894531 134.089844 L 161.675781 126.847656 L 147.5 127.101562 " fill-opacity="1" fill-rule="nonzero"/><path fill="#da675c" d="M 147.851562 127.515625 L 149.660156 129.917969 C 149.660156 129.917969 155.3125 132.574219 159.722656 132.355469 C 164.132812 132.132812 164.167969 131.125 164.167969 131.125 L 161.984375 127.378906 L 147.851562 127.515625 " fill-opacity="1" fill-rule="nonzero"/><path fill="#f68766" d="M 115.929688 114.25 C 115.929688 114.25 111.9375 122.914062 118.863281 128.203125 C 125.792969 133.496094 138.398438 130.019531 140.027344 124.113281 C 150.15625 130.4375 168.246094 133.257812 183.917969 115.925781 C 199.589844 98.59375 187.351562 74.351562 172.925781 67.046875 C 164.296875 58.679688 154.933594 54.191406 143.5625 58.71875 C 132.1875 63.246094 115.929688 114.25 115.929688 114.25 " fill-opacity="1" fill-rule="nonzero"/><path fill="#a1332e" d="M 128.613281 108.183594 C 128.613281 108.183594 129.824219 116.179688 132.582031 117.351562 C 135.339844 118.523438 132.742188 109.734375 132.742188 109.734375 C 132.742188 109.734375 136.644531 113.226562 137.539062 111.546875 C 138.429688 109.867188 133.511719 100.578125 128.355469 97.738281 C 126.960938 96.707031 128.160156 92.273438 128.160156 92.273438 C 128.160156 92.273438 131.820312 93.90625 131.417969 91.117188 C 131.011719 88.328125 128.691406 84.320312 128.453125 84.214844 C 128.210938 84.117188 139.550781 74.230469 140.410156 72.683594 C 141.265625 71.140625 138.0625 70.707031 138.0625 70.707031 C 138.0625 70.707031 154.535156 64.867188 154.191406 63.421875 C 153.84375 61.972656 152.339844 61.433594 152.339844 61.433594 C 152.339844 61.433594 161.917969 62.003906 169.226562 65.445312 C 169.261719 65.761719 176.3125 63.816406 175.464844 62.105469 C 174.613281 60.394531 169.46875 58.171875 169.46875 58.171875 C 169.46875 58.171875 175.441406 56.835938 175.363281 55.5625 C 175.285156 54.289062 170.507812 51.582031 167.757812 52.371094 C 167.683594 52.335938 174.425781 50.441406 174.058594 48.34375 C 173.6875 46.242188 161.285156 37.5 142.421875 50.570312 C 142.402344 50.515625 143.355469 48.316406 142.148438 47.507812 C 140.933594 46.699219 111.546875 56.195312 116.621094 85.6875 C 108.246094 104.703125 115.929688 114.25 115.929688 114.25 C 115.929688 114.25 119.835938 106.582031 128.613281 108.183594 " fill-opacity="1" fill-rule="nonzero"/><path fill="#7d2726" d="M 141.417969 81.871094 C 141.417969 81.871094 147.070312 78.628906 149.707031 76.535156 C 152.347656 74.441406 153.53125 73.238281 152.40625 72.152344 C 151.28125 71.0625 147.066406 71.480469 143.410156 75.710938 C 139.75 79.941406 139.828125 82.269531 141.417969 81.871094 " fill-opacity="1" fill-rule="nonzero"/><path fill="#7d2726" d="M 167.429688 65.007812 C 167.429688 65.007812 165.003906 65.371094 165.640625 67.171875 C 166.273438 68.96875 173.402344 69.457031 173.875 67.640625 C 174.34375 65.820312 171.828125 63.695312 167.429688 65.007812 " fill-opacity="1" fill-rule="nonzero"/><path fill="#bf4f56" d="M 135.121094 120.707031 C 135.121094 120.707031 130.625 124.078125 128.585938 121.207031 C 126.546875 118.335938 129.746094 115.960938 129.746094 115.960938 C 129.746094 115.960938 125.566406 113.558594 122.273438 116.835938 C 118.980469 120.109375 119.683594 126.550781 125.667969 127.652344 C 131.65625 128.753906 138.113281 123.242188 135.121094 120.707031 " fill-opacity="1" fill-rule="nonzero"/><path fill="#7d2726" d="M 133.722656 54.652344 C 130.105469 57.25 127.386719 61.933594 125.554688 65.917969 C 124.628906 67.933594 123.863281 70.046875 123.316406 72.199219 C 122.808594 74.195312 122.113281 76.476562 122.941406 78.449219 C 123.152344 78.957031 123.832031 78.558594 123.683594 78.089844 C 123.035156 76.046875 124.160156 73.128906 124.78125 71.167969 C 125.421875 69.15625 126.226562 67.203125 127.199219 65.332031 C 129.121094 61.625 131.832031 58.84375 134.324219 55.585938 C 134.628906 55.183594 134.292969 54.242188 133.722656 54.652344 " fill-opacity="1" fill-rule="nonzero"/><path fill="#7d2726" d="M 151.21875 55.558594 C 144.128906 55.65625 137.371094 60.914062 133.425781 66.445312 C 133.125 66.867188 133.636719 67.617188 133.992188 67.128906 C 136.050781 64.289062 138.601562 61.894531 141.605469 60.070312 C 144.679688 58.203125 147.917969 57.347656 151.292969 56.261719 C 151.609375 56.160156 151.582031 55.554688 151.21875 55.558594 " fill-opacity="1" fill-rule="nonzero"/><path fill="#7d2726" d="M 165.910156 51.320312 C 160.507812 47.101562 152.601562 49.917969 147.429688 52.972656 C 147.113281 53.15625 147.351562 53.757812 147.714844 53.558594 C 150.746094 51.890625 154.105469 50.589844 157.59375 50.394531 C 160.5 50.226562 162.976562 51.046875 165.667969 51.96875 C 166.046875 52.101562 166.15625 51.515625 165.910156 51.320312 " fill-opacity="1" fill-rule="nonzero"/><path fill="#7d2726" d="M 162.949219 56.367188 C 160.957031 55.730469 158.414062 56.136719 156.386719 56.4375 C 155.882812 56.511719 155.871094 57.433594 156.378906 57.363281 C 157.453125 57.214844 158.527344 57.117188 159.613281 57.09375 C 160.6875 57.074219 161.792969 57.242188 162.855469 57.101562 C 163.203125 57.054688 163.316406 56.488281 162.949219 56.367188 " fill-opacity="1" fill-rule="nonzero"/><path fill="#7d2726" d="M 118.390625 89.292969 C 117.253906 92.394531 116.789062 95.589844 117.097656 98.886719 C 117.355469 101.640625 118.070312 105.28125 119.949219 107.429688 C 120.179688 107.695312 120.535156 107.386719 120.449219 107.09375 C 119.617188 104.246094 118.34375 101.765625 118.039062 98.746094 C 117.726562 95.625 118.113281 92.503906 119.097656 89.53125 C 119.265625 89.027344 118.582031 88.769531 118.390625 89.292969 " fill-opacity="1" fill-rule="nonzero"/><path fill="#7d2726" d="M 128.15625 106.039062 C 125.148438 103.875 123.386719 99.925781 122.585938 96.417969 C 122.457031 95.84375 121.738281 96.117188 121.84375 96.652344 C 122.308594 98.921875 123.070312 101.085938 124.285156 103.070312 C 125.132812 104.453125 126.207031 106.402344 127.871094 106.8125 C 128.308594 106.917969 128.484375 106.273438 128.15625 106.039062 " fill-opacity="1" fill-rule="nonzero"/><path fill="#7d2726" d="M 140.945312 133.386719 C 139.90625 132.886719 138.695312 132.71875 137.625 132.242188 C 136.492188 131.734375 135.460938 131.0625 134.507812 130.265625 C 134.078125 129.90625 133.761719 130.730469 134.109375 131.050781 C 135.078125 131.933594 136.140625 132.683594 137.316406 133.261719 C 138.335938 133.765625 139.675781 134.375 140.835938 134.269531 C 141.304688 134.226562 141.328125 133.574219 140.945312 133.386719 " fill-opacity="1" fill-rule="nonzero"/><path fill="#7d2726" d="M 143.945312 129.425781 C 143.414062 129.078125 142.714844 128.964844 142.128906 128.714844 C 141.480469 128.4375 140.882812 128.082031 140.3125 127.664062 C 139.792969 127.289062 139.402344 128.230469 139.851562 128.570312 C 140.429688 129.003906 141.042969 129.378906 141.699219 129.683594 C 142.285156 129.960938 143.085938 130.34375 143.746094 130.253906 C 144.121094 130.199219 144.289062 129.648438 143.945312 129.425781 " fill-opacity="1" fill-rule="nonzero"/><path fill="#040606" d="M 154.011719 88.339844 C 153.726562 87.382812 153.242188 86.003906 152.484375 85.304688 C 151.816406 84.683594 150.949219 85.199219 150.828125 86.035156 C 150.757812 86.542969 150.957031 87.222656 151.3125 87.742188 C 151.675781 88.765625 152.195312 89.722656 152.796875 90.648438 C 152.980469 90.933594 153.40625 91.058594 153.703125 90.871094 C 154.613281 90.3125 154.261719 89.183594 154.011719 88.339844 " fill-opacity="1" fill-rule="nonzero"/><path fill="#bf4f56" d="M 175.789062 83.550781 C 175.21875 82.753906 174.367188 82.101562 173.398438 81.898438 C 172.480469 81.707031 172.398438 81.933594 171.609375 81.371094 C 170.730469 80.75 170.074219 79.101562 169.582031 78.128906 C 169.320312 77.617188 168.808594 78.117188 168.957031 78.550781 C 169.398438 79.816406 170.132812 82.953125 171.472656 83.574219 C 172.246094 83.933594 173.121094 83.488281 173.9375 84.046875 C 175.742188 85.273438 174.386719 86.964844 173.664062 88.351562 C 173.304688 89.042969 174.128906 90.128906 174.769531 89.375 C 176.28125 87.59375 177.304688 85.667969 175.789062 83.550781 " fill-opacity="1" fill-rule="nonzero"/><path fill="#040606" d="M 180.378906 79.03125 C 180.09375 78.074219 179.609375 76.695312 178.851562 75.996094 C 178.183594 75.375 177.316406 75.886719 177.195312 76.726562 C 177.125 77.234375 177.328125 77.914062 177.679688 78.433594 C 178.042969 79.457031 178.5625 80.414062 179.164062 81.339844 C 179.351562 81.625 179.773438 81.746094 180.070312 81.5625 C 180.980469 81.003906 180.632812 79.878906 180.378906 79.03125 " fill-opacity="1" fill-rule="nonzero"/><path fill="#a82532" d="M 170.207031 99.855469 C 170.207031 99.855469 166.65625 103.1875 158.269531 102.191406 C 149.886719 101.199219 147.265625 99.152344 145.050781 101.957031 C 142.839844 104.761719 145.050781 117.152344 158.152344 118.085938 C 171.253906 119.019531 173.699219 106.984375 173.640625 103.1875 C 173.585938 99.386719 171.167969 99.183594 170.207031 99.855469 " fill-opacity="1" fill-rule="nonzero"/><path fill="#f14458" d="M 147.320312 112.902344 C 147.320312 112.902344 153.269531 109.96875 153.925781 117.296875 C 149.847656 116.332031 147.320312 112.902344 147.320312 112.902344 " fill-opacity="1" fill-rule="nonzero"/><path fill="#ffffff" d="M 168.636719 104.101562 C 169.707031 103.070312 169.703125 101.472656 169.527344 100.355469 C 168.140625 101.246094 164.566406 102.9375 158.273438 102.191406 C 150.332031 101.25 147.5625 99.367188 145.410156 101.554688 C 146.359375 103.023438 147.984375 104.660156 150.5625 104.722656 C 151.585938 101.839844 154.621094 102.96875 154.546875 106.164062 C 160.097656 107.175781 166.851562 105.8125 168.636719 104.101562 " fill-opacity="1" fill-rule="nonzero"/><path fill="#f68766" d="M 154.953125 224.316406 C 154.953125 224.316406 142.199219 241.144531 139.054688 241.730469 C 135.910156 242.3125 109.882812 234.015625 107.261719 227.238281 C 111.28125 222.445312 119.199219 216.253906 119.78125 216.308594 C 120.363281 216.371094 136.203125 225.660156 136.550781 225.542969 C 136.902344 225.425781 144.585938 216.019531 144.585938 216.019531 L 154.953125 224.316406 " fill-opacity="1" fill-rule="nonzero"/><path fill="#f68766" d="M 162.871094 221.160156 C 162.871094 221.160156 176.902344 234.132812 177.3125 234.660156 C 177.71875 235.183594 178.183594 239.800781 184.066406 247.746094 C 189.945312 255.695312 198.390625 260.484375 198.796875 261.011719 C 199.203125 261.539062 204.5625 251.253906 204.5625 251.253906 C 204.5625 251.253906 190.644531 227.824219 189.421875 225.953125 C 188.199219 224.082031 175.738281 207.78125 174.921875 207.488281 C 174.109375 207.195312 162.871094 221.160156 162.871094 221.160156 " fill-opacity="1" fill-rule="nonzero"/><path fill="#f68766" d="M 115.183594 160.351562 C 115.183594 160.351562 110.835938 161.519531 109.941406 165.261719 C 109.050781 169 112.5625 170.285156 112.5625 170.285156 C 112.5625 170.285156 111.804688 173.480469 114.019531 175.273438 C 116.230469 177.0625 117.820312 175.699219 118.636719 176.480469 C 119.453125 177.257812 120.035156 179.867188 122.558594 180.921875 C 125.082031 181.972656 129.351562 173.945312 130.167969 172.273438 C 130.980469 170.597656 133.96875 173.050781 134.589844 169.660156 C 135.210938 166.273438 129.507812 160.507812 129.507812 160.507812 L 115.183594 160.351562 " fill-opacity="1" fill-rule="nonzero"/><path fill="#2d2c34" d="M 161.53125 219.992188 C 161.414062 220.167969 157.222656 226.535156 156.640625 226.421875 C 156.058594 226.304688 141.792969 216.195312 141.328125 213.972656 C 141.617188 212.394531 145.984375 207.3125 145.984375 206.84375 C 145.984375 206.378906 161.53125 219.992188 161.53125 219.992188 " fill-opacity="1" fill-rule="nonzero"/><path fill="#2d2c34" d="M 147.90625 191.59375 C 147.730469 191.769531 142.316406 201.234375 145.695312 207.136719 C 149.070312 213.039062 162.523438 224.78125 162.929688 224.839844 C 163.335938 224.898438 176.261719 208.1875 176.378906 207.894531 C 176.496094 207.605469 171.429688 201.351562 171.429688 201.351562 L 171.894531 197.4375 L 147.90625 191.59375 " fill-opacity="1" fill-rule="nonzero"/><path fill="#f68766" d="M 204.160156 145.039062 C 204.160156 145.039062 202.058594 143.757812 202.289062 138.769531 C 202.523438 133.785156 206.714844 133.355469 207.609375 133.902344 C 207.21875 130.046875 210.09375 127.238281 212.421875 128.527344 C 214.75 129.808594 214.050781 132.964844 214.050781 132.964844 C 214.050781 132.964844 218.089844 130.121094 219.488281 133.902344 C 220.886719 137.679688 218.632812 140.71875 218.632812 140.71875 C 218.632812 140.71875 221.816406 141.265625 222.089844 143.5625 C 222.359375 145.859375 220.070312 147.300781 220.070312 147.300781 C 220.070312 147.300781 222.359375 148.625 221.46875 150.574219 C 220.574219 152.519531 218.359375 153.496094 217.429688 152.09375 C 215.914062 154.625 212.578125 155.050781 211.917969 154.3125 C 211.257812 153.574219 204.160156 145.039062 204.160156 145.039062 " fill-opacity="1" fill-rule="nonzero"/><path fill="#314877" d="M 170.558594 136.828125 C 170.558594 136.828125 175.273438 136.140625 178.183594 141.75 C 179.640625 145.375 192.160156 156.769531 194.546875 155.425781 C 196.933594 154.082031 202.988281 147.652344 202.582031 146.890625 C 202.175781 146.132812 202.640625 143.914062 203.863281 144.789062 C 205.085938 145.664062 214.34375 155.773438 213.644531 157.644531 C 212.945312 159.515625 211.550781 159.105469 211.550781 159.105469 C 211.550781 159.105469 195.304688 173.304688 191.753906 172.894531 C 188.199219 172.488281 173.933594 156.476562 173.933594 156.476562 L 170.558594 136.828125 " fill-opacity="1" fill-rule="nonzero"/><path fill="#314877" d="M 152.640625 136.082031 C 152.640625 136.082031 150.582031 134.332031 151.515625 133.199219 C 152.449219 132.070312 172.167969 131.296875 172.75 132.230469 C 173.332031 133.160156 170.886719 135.734375 170.886719 135.734375 C 170.886719 135.734375 184.476562 167.167969 173.644531 195.332031 C 174.457031 198.140625 174.457031 199.347656 172.90625 199.191406 C 171.351562 199.035156 144.722656 194.515625 144.644531 189.761719 C 145.265625 188.050781 146.972656 188.050781 146.972656 188.050781 C 146.972656 188.050781 151.398438 156.652344 148.992188 151.042969 C 146.585938 150.183594 132.535156 148.238281 131.796875 148.199219 C 132.222656 149.5625 132.183594 149.601562 131.40625 149.910156 C 130.628906 150.222656 129.273438 159.222656 130.203125 160.585938 C 131.136719 162.144531 115.765625 162.960938 115.027344 161.171875 C 114.289062 159.378906 115.800781 158.871094 115.800781 158.25 C 115.800781 157.625 115.609375 141.304688 118.636719 138.5 C 121.664062 135.691406 147.5 137.328125 147.5 137.328125 C 147.5 137.328125 148.914062 135.34375 152.640625 136.082031 " fill-opacity="1" fill-rule="nonzero"/><path fill="#bf4f56" d="M 219.800781 147.257812 C 218.789062 147.78125 217.785156 148.054688 216.636719 147.703125 C 215.234375 147.273438 214.957031 145.789062 214.734375 144.507812 C 214.84375 144.5 214.953125 144.488281 215.066406 144.464844 C 216.601562 144.105469 217.777344 142.546875 218.488281 141.25 C 218.570312 141.101562 218.429688 140.855469 218.269531 141.019531 C 217.574219 141.75 216.878906 142.539062 216.066406 143.140625 C 214.75 144.121094 213.773438 143.734375 212.824219 142.671875 C 213.738281 141.097656 213.554688 139.386719 212.78125 137.863281 C 212.839844 137.851562 212.902344 137.828125 212.964844 137.789062 C 213.335938 137.554688 213.539062 136.871094 213.6875 136.492188 C 214.074219 135.511719 214.535156 134.234375 214.304688 133.175781 C 214.246094 132.894531 213.949219 132.917969 213.839844 133.15625 C 213.53125 133.839844 213.445312 134.628906 213.234375 135.347656 C 213.078125 135.871094 212.878906 136.808594 212.40625 137.203125 C 211.335938 135.519531 209.59375 134.152344 207.96875 133.597656 C 207.671875 133.496094 207.476562 134.03125 207.773438 134.132812 C 210.332031 135.015625 212.488281 137.445312 212.359375 140.300781 C 212.324219 141.058594 212.191406 142.234375 211.394531 142.617188 C 210.402344 143.097656 209.234375 142.730469 208.519531 142.007812 C 207.628906 141.105469 207.519531 139.890625 207.234375 138.722656 C 207.113281 138.238281 206.550781 138.59375 206.492188 138.914062 C 206.464844 139.078125 206.445312 139.25 206.433594 139.417969 C 206.382812 139.394531 206.332031 139.363281 206.285156 139.316406 C 206.164062 139.199219 206.148438 139.046875 206.136719 138.882812 C 206.105469 138.359375 205.382812 138.382812 205.261719 138.84375 C 205.132812 139.347656 205.238281 139.917969 205.699219 140.222656 C 205.941406 140.386719 206.203125 140.421875 206.457031 140.371094 C 206.628906 141.746094 207.367188 143.0625 208.601562 143.75 C 209.324219 144.15625 210.148438 144.253906 210.90625 144.082031 C 212.125 144.191406 213.789062 144.90625 213.425781 146.339844 C 213.199219 147.222656 212.453125 147.988281 212.496094 148.90625 C 212.503906 149.121094 212.71875 149.289062 212.929688 149.234375 C 213.851562 148.996094 214.445312 147.589844 214.59375 146.386719 C 214.835938 147.027344 215.183594 147.617188 215.683594 148.011719 C 215.375 149.71875 215.78125 151.121094 217.253906 152.125 C 217.464844 152.269531 217.722656 151.9375 217.5625 151.753906 C 217.105469 151.238281 216.570312 150.757812 216.3125 150.105469 C 216.082031 149.535156 216.070312 148.871094 216.050781 148.246094 C 216.167969 148.308594 216.292969 148.367188 216.425781 148.40625 C 217.53125 148.746094 219.496094 148.738281 219.984375 147.449219 C 220.03125 147.332031 219.925781 147.195312 219.800781 147.257812 " fill-opacity="1" fill-rule="nonzero"/><path fill="#e1e5bf" d="M 107.257812 227.234375 C 108.894531 231.46875 119.664062 236.296875 128.285156 239.179688 C 130.683594 234.742188 132.589844 228.125 133.632812 224.03125 C 128.945312 221.421875 120.207031 216.351562 119.777344 216.308594 C 119.195312 216.25 111.277344 222.445312 107.257812 227.234375 " fill-opacity="1" fill-rule="nonzero"/><path fill="#e1e5bf" d="M 191.171875 228.808594 C 187.84375 231.316406 182.863281 235.628906 179.777344 240.902344 C 180.734375 242.789062 182.09375 245.082031 184.070312 247.75 C 189.953125 255.695312 198.394531 260.488281 198.800781 261.011719 C 199.210938 261.539062 204.566406 251.257812 204.566406 251.257812 C 204.566406 251.257812 195.21875 235.515625 191.171875 228.808594 " fill-opacity="1" fill-rule="nonzero"/><g clip-path="url(#id1)"><path fill="#bc2e3a" d="M 108.71875 226.421875 C 108.71875 226.421875 105.925781 239.042969 104.234375 237.699219 C 102.546875 236.355469 103.128906 227.0625 103.128906 227.0625 C 103.128906 227.0625 84.847656 223.964844 84.496094 221.6875 C 84.148438 219.40625 112.96875 202.054688 116.054688 204.332031 C 119.140625 206.613281 119.777344 216.308594 119.777344 216.308594 L 108.71875 226.421875 " fill-opacity="1" fill-rule="nonzero"/></g><g clip-path="url(#id2)"><path fill="#bc2e3a" d="M 203.804688 251.605469 C 203.804688 251.605469 205.027344 240.675781 207.066406 242.429688 C 209.105469 244.183594 209.6875 251.605469 209.6875 251.605469 C 209.6875 251.605469 228.609375 246.695312 230.066406 249.734375 C 227.445312 255.929688 205.378906 273.632812 204.5625 273.691406 C 203.746094 273.75 198.097656 262.632812 197.921875 261.03125 C 197.75 259.433594 203.804688 251.605469 203.804688 251.605469 " fill-opacity="1" fill-rule="nonzero"/></g><path fill="#e1e5bf" d="M 210.6875 250.832031 C 210.804688 250.03125 209.910156 249.828125 209.476562 250.390625 C 208.546875 251.601562 208.253906 254.316406 209.140625 255.609375 C 209.546875 256.199219 210.402344 255.6875 210.429688 255.085938 C 210.460938 254.359375 210.234375 253.667969 210.277344 252.9375 C 210.316406 252.207031 210.585938 251.542969 210.6875 250.832031 " fill-opacity="1" fill-rule="nonzero"/><path fill="#e1e5bf" d="M 212.203125 250.402344 C 211.605469 251.667969 211.566406 253.324219 211.835938 254.679688 C 212.066406 255.84375 213.554688 255.316406 213.410156 254.269531 C 213.238281 253.003906 213.386719 251.914062 213.53125 250.660156 C 213.640625 249.710938 212.554688 249.660156 212.203125 250.402344 " fill-opacity="1" fill-rule="nonzero"/><path fill="#e1e5bf" d="M 102.996094 223.863281 C 102.027344 223.683594 101.539062 225.019531 101.347656 225.726562 C 101.167969 226.386719 100.867188 227.84375 101.574219 228.304688 C 102.1875 228.707031 102.789062 227.929688 102.585938 227.335938 C 102.5 227.078125 102.644531 226.570312 102.710938 226.304688 C 102.757812 226.117188 102.820312 225.929688 102.898438 225.753906 C 102.921875 225.699219 102.941406 225.648438 102.964844 225.597656 C 103.007812 225.542969 103.03125 225.503906 103.046875 225.472656 C 103.746094 225.171875 103.902344 224.03125 102.996094 223.863281 " fill-opacity="1" fill-rule="nonzero"/><path fill="#e1e5bf" d="M 99.0625 223.453125 C 98.328125 224.414062 97.964844 226.28125 98.539062 227.402344 C 98.765625 227.839844 99.351562 227.78125 99.503906 227.300781 C 99.824219 226.289062 99.496094 225.238281 100.195312 224.339844 C 100.8125 223.542969 99.714844 222.59375 99.0625 223.453125 " fill-opacity="1" fill-rule="nonzero"/><path fill="#87212d" d="M 117.574219 206.402344 C 111.496094 207.472656 106.050781 210.171875 100.683594 213.125 C 98.042969 214.578125 95.511719 216.027344 92.996094 217.675781 C 91.757812 218.488281 90.40625 218.996094 89.085938 219.640625 C 87.898438 220.226562 86.707031 221.464844 85.453125 221.839844 C 85.207031 221.910156 85.121094 222.4375 85.449219 222.414062 C 86.164062 222.351562 86.53125 222.128906 87.144531 221.726562 C 88.523438 220.820312 89.839844 220.191406 91.328125 219.492188 C 94.03125 218.21875 96.453125 216.332031 99.128906 214.957031 C 105.0625 211.902344 111.054688 208.570312 117.675781 207.3125 C 118.175781 207.214844 118.140625 206.300781 117.574219 206.402344 " fill-opacity="1" fill-rule="nonzero"/><g clip-path="url(#id3)"><path fill="#87212d" d="M 229.574219 249.171875 C 225.265625 252.894531 221.464844 257.152344 217.070312 260.796875 C 212.636719 264.480469 207.839844 267.679688 203.375 271.308594 C 203.132812 271.503906 203.324219 272.011719 203.644531 271.820312 C 208.421875 268.957031 212.886719 265.25 217.183594 261.714844 C 221.660156 258.035156 226.074219 254.015625 229.960938 249.710938 C 230.238281 249.40625 229.953125 248.847656 229.574219 249.171875 " fill-opacity="1" fill-rule="nonzero"/></g><path fill="#1a191d" d="M 159.597656 221.90625 C 154.871094 217.164062 150.421875 212.339844 146.25 207.105469 C 145.863281 206.617188 145.3125 207.316406 145.5625 207.761719 C 148.792969 213.464844 154.273438 218.339844 159.085938 222.695312 C 159.5 223.066406 159.949219 222.261719 159.597656 221.90625 " fill-opacity="1" fill-rule="nonzero"/><path fill="#1a191d" d="M 171.40625 200.695312 C 171.367188 200.605469 171.289062 200.546875 171.15625 200.558594 C 171.148438 200.558594 171.136719 200.5625 171.128906 200.5625 C 169.253906 199.707031 166.664062 198.710938 164.632812 199.101562 C 164.320312 199.164062 164.246094 199.679688 164.546875 199.804688 C 165.5625 200.226562 166.78125 200.226562 167.855469 200.457031 C 168.273438 200.546875 168.6875 200.652344 169.101562 200.757812 C 168.390625 200.863281 167.703125 201.035156 167.175781 201.378906 C 166.96875 201.515625 166.808594 202.050781 167.167969 202.128906 C 168.378906 202.378906 169.953125 201.703125 171.105469 201.332031 C 171.117188 201.335938 171.128906 201.339844 171.140625 201.34375 C 171.511719 201.460938 171.722656 200.878906 171.40625 200.695312 " fill-opacity="1" fill-rule="nonzero"/><path fill="#1a191d" d="M 161.578125 197.910156 C 158.566406 198.910156 155.824219 201.65625 152.527344 201.542969 C 152.070312 201.527344 151.9375 202.335938 152.425781 202.375 C 153.984375 202.492188 155.320312 202.011719 156.703125 201.328125 C 158.378906 200.503906 160.222656 199.714844 161.746094 198.625 C 162.003906 198.441406 162.027344 197.757812 161.578125 197.910156 " fill-opacity="1" fill-rule="nonzero"/><path fill="#1f2e4b" d="M 176.1875 149.097656 C 176.011719 148.328125 175.839844 147.542969 175.648438 146.765625 C 175.6875 146.730469 175.722656 146.699219 175.753906 146.644531 C 176.039062 146.171875 176.234375 145.660156 176.316406 145.113281 C 176.382812 144.6875 176.464844 143.976562 176.050781 143.703125 C 175.890625 143.597656 175.664062 143.644531 175.566406 143.820312 C 175.367188 144.195312 175.460938 144.527344 175.441406 144.929688 C 175.429688 145.148438 175.394531 145.363281 175.335938 145.570312 C 174.875 143.964844 174.257812 142.425781 173.199219 141.097656 C 172.726562 140.507812 171.945312 141.382812 172.339844 141.917969 C 174.066406 144.289062 174.625 147.136719 175.304688 149.9375 C 176.097656 153.214844 176.511719 156.453125 176.980469 159.78125 C 177.042969 160.203125 177.59375 160.09375 177.621094 159.707031 C 177.867188 156.164062 176.980469 152.53125 176.1875 149.097656 " fill-opacity="1" fill-rule="nonzero"/><path fill="#1f2e4b" d="M 154.386719 154.246094 C 153.011719 152.386719 150.765625 151.195312 148.753906 150.140625 C 148.3125 149.910156 147.898438 150.785156 148.308594 151.03125 C 148.464844 151.125 148.617188 151.226562 148.769531 151.324219 C 148.726562 151.464844 148.730469 151.617188 148.804688 151.746094 C 149.320312 152.640625 149.804688 153.546875 150.242188 154.484375 C 150.597656 155.253906 150.882812 156.113281 151.375 156.804688 C 151.625 157.164062 152.082031 156.761719 152.039062 156.425781 C 151.863281 155.085938 151.15625 153.710938 150.398438 152.46875 C 151.558594 153.332031 152.703125 154.222656 153.964844 154.902344 C 154.308594 155.089844 154.570312 154.492188 154.386719 154.246094 " fill-opacity="1" fill-rule="nonzero"/><path fill="#1f2e4b" d="M 168.320312 136.84375 C 164.972656 134.617188 159.808594 135.6875 156.003906 135.546875 C 155.398438 135.527344 155.21875 136.601562 155.875 136.65625 C 157.921875 136.828125 159.96875 136.820312 162.019531 136.910156 C 164.054688 136.996094 166.003906 137.527344 168.023438 137.664062 C 168.398438 137.691406 168.648438 137.0625 168.320312 136.84375 " fill-opacity="1" fill-rule="nonzero"/><path fill="#1f2e4b" d="M 172 193.550781 C 169.585938 191.65625 165.996094 191.136719 163.078125 190.445312 C 159.753906 189.65625 156.449219 188.902344 153.324219 187.488281 C 152.832031 187.265625 152.503906 188.167969 152.992188 188.398438 C 156.097656 189.867188 159.386719 190.671875 162.71875 191.429688 C 165.789062 192.128906 168.792969 193.355469 171.855469 193.949219 C 172.050781 193.988281 172.136719 193.65625 172 193.550781 " fill-opacity="1" fill-rule="nonzero"/><path fill="#1f2e4b" d="M 163.527344 186.707031 C 160.222656 179.574219 156.871094 172.734375 154.753906 165.113281 C 154.574219 164.464844 153.761719 165.050781 153.902344 165.597656 C 155.84375 173 158.582031 180.785156 163.066406 187.050781 C 163.265625 187.328125 163.648438 186.972656 163.527344 186.707031 " fill-opacity="1" fill-rule="nonzero"/><path fill="#1f2e4b" d="M 155.753906 178.8125 C 154.613281 175.886719 153.453125 173.265625 153.078125 170.097656 C 153 169.421875 152.113281 169.734375 152.179688 170.328125 C 152.53125 173.378906 153.328125 176.734375 155.25 179.191406 C 155.480469 179.488281 155.867188 179.105469 155.753906 178.8125 " fill-opacity="1" fill-rule="nonzero"/><path fill="#1f2e4b" d="M 173.949219 152.953125 C 173.871094 152.601562 173.417969 152.664062 173.390625 153.015625 C 173.089844 157.222656 173.46875 161.402344 172.890625 165.613281 C 172.28125 170.035156 171.113281 174.355469 169.519531 178.515625 C 169.371094 178.90625 169.890625 179.09375 170.042969 178.710938 C 171.675781 174.628906 172.882812 170.40625 173.5625 166.058594 C 174.207031 161.917969 174.875 157.097656 173.949219 152.953125 " fill-opacity="1" fill-rule="nonzero"/><path fill="#1f2e4b" d="M 196.214844 160.164062 C 195.808594 159.46875 194.757812 157.722656 193.792969 157.785156 C 193.695312 157.789062 193.613281 157.808594 193.535156 157.832031 C 193.414062 157.535156 193.285156 157.242188 193.136719 156.949219 C 192.824219 156.328125 192.050781 156.882812 192.257812 157.453125 C 192.539062 158.226562 192.769531 158.988281 192.953125 159.757812 C 193.03125 160.519531 193.21875 161.320312 193.269531 162.054688 C 193.351562 163.222656 193.359375 164.394531 193.324219 165.5625 C 193.300781 166.4375 194.402344 166.429688 194.492188 165.605469 C 194.667969 164.050781 194.648438 162.472656 194.398438 160.933594 C 194.378906 160.695312 194.355469 160.453125 194.332031 160.214844 C 194.320312 160.132812 194.308594 159.976562 194.296875 159.792969 C 194.796875 160.46875 195.289062 161.476562 195.410156 161.753906 C 195.804688 162.644531 195.964844 163.597656 196.222656 164.53125 C 196.398438 165.152344 197.183594 164.75 197.230469 164.273438 C 197.378906 162.820312 196.9375 161.421875 196.214844 160.164062 " fill-opacity="1" fill-rule="nonzero"/><path fill="#1f2e4b" d="M 131.78125 146.863281 C 131.792969 146.84375 131.804688 146.824219 131.8125 146.804688 C 132.453125 144.980469 132.457031 141.113281 130.171875 140.339844 C 129.738281 140.195312 129.433594 140.726562 129.554688 141.097656 C 129.816406 141.90625 130.429688 142.507812 130.707031 143.324219 C 130.882812 143.832031 130.972656 144.347656 130.988281 144.867188 C 130.441406 144.0625 129.789062 143.34375 129.007812 142.699219 C 128.421875 142.21875 127.734375 143.347656 128.296875 143.78125 C 129.011719 144.386719 129.625 145.070312 130.140625 145.828125 C 130.558594 146.46875 130.910156 147.148438 131.199219 147.839844 C 131.4375 148.417969 132.15625 147.894531 131.984375 147.390625 C 131.921875 147.210938 131.851562 147.035156 131.78125 146.863281 " fill-opacity="1" fill-rule="nonzero"/></svg>