<svg xmlns="http://www.w3.org/2000/svg" xmlns:xlink="http://www.w3.org/1999/xlink" width="500" zoomAndPan="magnify" viewBox="0 0 375 374.999991" height="500" preserveAspectRatio="xMidYMid meet" version="1.0"><defs><g/></defs><rect x="-37.5" width="450" fill="#ffffff" y="-37.499999" height="449.999989" fill-opacity="1"/><rect x="-37.5" width="450" fill="#008037" y="-37.499999" height="449.999989" fill-opacity="1"/><path fill="#ffffff" d="M 283.828125 129.699219 C 283.769531 129.238281 283.667969 128.789062 283.519531 128.347656 C 283.371094 127.90625 283.179688 127.484375 282.945312 127.082031 C 282.710938 126.679688 282.441406 126.304688 282.132812 125.960938 C 281.824219 125.613281 281.484375 125.296875 281.113281 125.019531 C 280.742188 124.742188 280.347656 124.5 279.925781 124.300781 C 279.507812 124.101562 279.074219 123.945312 278.621094 123.835938 C 278.171875 123.722656 277.714844 123.65625 277.25 123.636719 C 276.789062 123.617188 276.328125 123.644531 275.867188 123.71875 C 275.410156 123.792969 274.964844 123.910156 274.53125 124.074219 C 274.09375 124.238281 273.679688 124.441406 273.289062 124.6875 C 272.894531 124.933594 272.527344 125.21875 272.191406 125.539062 C 271.855469 125.859375 271.554688 126.210938 271.289062 126.589844 C 271.023438 126.972656 270.796875 127.375 270.609375 127.800781 C 270.425781 128.226562 270.285156 128.667969 270.1875 129.125 C 270.089844 129.578125 270.039062 130.039062 270.035156 130.503906 C 270.03125 130.96875 270.070312 131.429688 270.160156 131.886719 C 270.851562 136.273438 271.199219 140.683594 271.199219 145.125 C 271.199219 146.488281 271.164062 147.851562 271.097656 149.210938 C 271.03125 150.574219 270.933594 151.933594 270.796875 153.289062 C 270.664062 154.648438 270.5 156 270.300781 157.347656 C 270.097656 158.695312 269.867188 160.039062 269.601562 161.375 C 269.335938 162.714844 269.039062 164.042969 268.707031 165.367188 C 268.378906 166.6875 268.015625 168 267.621094 169.304688 C 267.226562 170.609375 266.800781 171.90625 266.339844 173.1875 C 265.882812 174.472656 265.394531 175.742188 264.871094 177.003906 C 264.351562 178.261719 263.800781 179.507812 263.21875 180.742188 C 262.636719 181.972656 262.027344 183.191406 261.386719 184.394531 C 260.746094 185.59375 260.074219 186.78125 259.375 187.949219 C 258.675781 189.121094 257.949219 190.273438 257.195312 191.40625 C 256.4375 192.539062 255.65625 193.652344 254.84375 194.746094 C 254.035156 195.84375 253.199219 196.917969 252.335938 197.972656 C 251.472656 199.023438 250.585938 200.058594 249.671875 201.066406 C 248.757812 202.078125 247.820312 203.0625 246.859375 204.027344 C 245.898438 204.992188 244.914062 205.933594 243.90625 206.847656 C 242.898438 207.761719 241.867188 208.652344 240.816406 209.519531 C 239.765625 210.382812 238.695312 211.222656 237.601562 212.035156 C 236.507812 212.847656 235.398438 213.628906 234.265625 214.386719 C 233.136719 215.144531 231.988281 215.875 230.820312 216.574219 C 229.652344 217.277344 228.472656 217.949219 227.273438 218.589844 C 226.070312 219.234375 224.859375 219.847656 223.628906 220.429688 C 222.398438 221.011719 221.15625 221.5625 219.898438 222.085938 C 218.644531 222.609375 217.375 223.097656 216.09375 223.558594 C 214.8125 224.015625 213.523438 224.445312 212.222656 224.839844 C 210.917969 225.234375 209.609375 225.597656 208.289062 225.929688 C 206.972656 226.261719 205.644531 226.558594 204.3125 226.828125 C 202.976562 227.09375 201.636719 227.324219 200.292969 227.523438 C 198.945312 227.726562 197.597656 227.890625 196.242188 228.027344 C 194.890625 228.160156 193.535156 228.257812 192.175781 228.328125 C 190.816406 228.394531 189.457031 228.425781 188.097656 228.425781 C 186.738281 228.425781 185.378906 228.394531 184.019531 228.328125 C 182.664062 228.257812 181.308594 228.160156 179.953125 228.027344 C 178.601562 227.890625 177.25 227.726562 175.90625 227.523438 C 174.558594 227.324219 173.21875 227.09375 171.886719 226.828125 C 170.550781 226.558594 169.226562 226.261719 167.90625 225.929688 C 166.585938 225.597656 165.277344 225.234375 163.976562 224.839844 C 162.675781 224.445312 161.382812 224.015625 160.101562 223.558594 C 158.824219 223.097656 157.554688 222.609375 156.296875 222.085938 C 155.042969 221.5625 153.796875 221.011719 152.570312 220.429688 C 151.339844 219.847656 150.125 219.234375 148.925781 218.589844 C 147.726562 217.949219 146.542969 217.277344 145.375 216.574219 C 144.210938 215.875 143.0625 215.144531 141.929688 214.386719 C 140.800781 213.628906 139.6875 212.847656 138.597656 212.035156 C 137.503906 211.222656 136.433594 210.382812 135.378906 209.519531 C 134.328125 208.652344 133.300781 207.761719 132.292969 206.847656 C 131.285156 205.933594 130.300781 204.992188 129.339844 204.027344 C 128.375 203.0625 127.4375 202.078125 126.527344 201.066406 C 125.613281 200.058594 124.722656 199.023438 123.863281 197.972656 C 123 196.917969 122.164062 195.84375 121.351562 194.746094 C 120.542969 193.652344 119.757812 192.539062 119.003906 191.40625 C 118.246094 190.273438 117.519531 189.121094 116.820312 187.949219 C 116.121094 186.78125 115.453125 185.59375 114.8125 184.394531 C 114.167969 183.191406 113.558594 181.972656 112.976562 180.742188 C 112.394531 179.507812 111.84375 178.261719 111.324219 177.003906 C 110.804688 175.742188 110.3125 174.472656 109.855469 173.1875 C 109.398438 171.90625 108.972656 170.609375 108.578125 169.304688 C 108.183594 168 107.820312 166.6875 107.488281 165.367188 C 107.160156 164.042969 106.859375 162.714844 106.59375 161.375 C 106.328125 160.039062 106.097656 158.695312 105.898438 157.347656 C 105.699219 156 105.53125 154.648438 105.398438 153.289062 C 105.265625 151.933594 105.164062 150.574219 105.097656 149.210938 C 105.03125 147.851562 105 146.488281 105 145.125 C 105 143.761719 105.03125 142.398438 105.097656 141.039062 C 105.164062 139.675781 105.265625 138.316406 105.398438 136.960938 C 105.53125 135.601562 105.699219 134.25 105.898438 132.902344 C 106.097656 131.554688 106.328125 130.210938 106.59375 128.875 C 106.859375 127.535156 107.160156 126.207031 107.488281 124.882812 C 107.820312 123.5625 108.183594 122.25 108.578125 120.945312 C 108.972656 119.640625 109.398438 118.34375 109.855469 117.0625 C 110.3125 115.777344 110.804688 114.507812 111.324219 113.246094 C 111.84375 111.988281 112.394531 110.742188 112.976562 109.507812 C 113.558594 108.277344 114.167969 107.058594 114.8125 105.855469 C 115.453125 104.65625 116.121094 103.46875 116.820312 102.300781 C 117.519531 101.128906 118.246094 99.976562 119.003906 98.84375 C 119.757812 97.710938 120.542969 96.597656 121.351562 95.503906 C 122.164062 94.40625 123 93.332031 123.863281 92.277344 C 124.722656 91.226562 125.613281 90.191406 126.527344 89.183594 C 127.4375 88.171875 128.375 87.1875 129.339844 86.222656 C 130.300781 85.257812 131.285156 84.316406 132.292969 83.402344 C 133.300781 82.488281 134.328125 81.597656 135.378906 80.730469 C 136.433594 79.867188 137.503906 79.027344 138.597656 78.214844 C 139.6875 77.402344 140.800781 76.621094 141.929688 75.863281 C 143.0625 75.105469 144.210938 74.375 145.375 73.675781 C 146.542969 72.972656 147.726562 72.300781 148.925781 71.660156 C 150.125 71.015625 151.339844 70.402344 152.570312 69.820312 C 153.796875 69.238281 155.042969 68.6875 156.296875 68.164062 C 157.554688 67.640625 158.824219 67.152344 160.101562 66.691406 C 161.382812 66.234375 162.675781 65.804688 163.976562 65.410156 C 165.277344 65.015625 166.585938 64.652344 167.90625 64.320312 C 169.226562 63.988281 170.550781 63.691406 171.886719 63.421875 C 173.21875 63.15625 174.558594 62.925781 175.90625 62.726562 C 177.25 62.523438 178.601562 62.359375 179.953125 62.222656 C 181.308594 62.089844 182.664062 61.992188 184.019531 61.921875 C 185.378906 61.855469 186.738281 61.824219 188.097656 61.824219 C 194.742188 61.800781 201.289062 62.578125 207.746094 64.144531 C 214.199219 65.714844 220.375 68.035156 226.269531 71.105469 C 226.671875 71.300781 227.089844 71.453125 227.519531 71.570312 C 227.953125 71.683594 228.390625 71.753906 228.835938 71.785156 C 229.28125 71.8125 229.726562 71.796875 230.171875 71.742188 C 230.613281 71.683594 231.046875 71.585938 231.472656 71.445312 C 231.894531 71.300781 232.300781 71.121094 232.691406 70.902344 C 233.078125 70.683594 233.445312 70.425781 233.785156 70.136719 C 234.125 69.84375 234.433594 69.523438 234.710938 69.171875 C 234.988281 68.824219 235.230469 68.449219 235.433594 68.050781 C 235.640625 67.652344 235.804688 67.238281 235.933594 66.808594 C 236.058594 66.378906 236.140625 65.941406 236.183594 65.496094 C 236.222656 65.050781 236.222656 64.605469 236.175781 64.160156 C 236.132812 63.714844 236.046875 63.277344 235.914062 62.847656 C 235.785156 62.417969 235.617188 62.007812 235.410156 61.609375 C 235.199219 61.214844 234.953125 60.84375 234.675781 60.496094 C 234.394531 60.144531 234.082031 59.828125 233.738281 59.539062 C 233.398438 59.25 233.03125 59 232.640625 58.78125 C 231.042969 57.953125 229.421875 57.171875 227.777344 56.433594 C 226.136719 55.695312 224.476562 55.007812 222.796875 54.363281 C 221.113281 53.71875 219.417969 53.121094 217.703125 52.570312 C 215.988281 52.019531 214.261719 51.519531 212.519531 51.066406 C 210.777344 50.613281 209.027344 50.207031 207.261719 49.851562 C 205.496094 49.496094 203.726562 49.191406 201.945312 48.933594 C 200.164062 48.679688 198.375 48.472656 196.582031 48.316406 C 194.789062 48.160156 192.996094 48.050781 191.195312 47.996094 C 189.398438 47.941406 187.597656 47.933594 185.800781 47.976562 C 184 48.023438 182.207031 48.117188 180.410156 48.261719 C 178.617188 48.40625 176.832031 48.601562 175.046875 48.84375 C 173.265625 49.089844 171.488281 49.382812 169.722656 49.726562 C 167.957031 50.070312 166.203125 50.460938 164.457031 50.902344 C 162.710938 51.347656 160.980469 51.835938 159.265625 52.375 C 157.546875 52.914062 155.84375 53.5 154.160156 54.132812 C 152.476562 54.765625 150.808594 55.445312 149.164062 56.171875 C 147.515625 56.898438 145.890625 57.667969 144.285156 58.488281 C 142.683594 59.304688 141.101562 60.164062 139.546875 61.070312 C 137.988281 61.976562 136.460938 62.925781 134.957031 63.914062 C 133.453125 64.90625 131.976562 65.9375 130.53125 67.011719 C 129.085938 68.085938 127.671875 69.199219 126.285156 70.351562 C 124.902344 71.503906 123.550781 72.691406 122.230469 73.921875 C 120.914062 75.148438 119.632812 76.410156 118.382812 77.710938 C 117.136719 79.011719 115.925781 80.34375 114.75 81.710938 C 113.578125 83.078125 112.441406 84.476562 111.347656 85.90625 C 110.25 87.339844 109.195312 88.796875 108.179688 90.289062 C 107.164062 91.777344 106.191406 93.292969 105.261719 94.835938 C 104.332031 96.382812 103.445312 97.949219 102.601562 99.542969 C 101.757812 101.136719 100.957031 102.753906 100.207031 104.390625 C 99.453125 106.027344 98.746094 107.6875 98.082031 109.363281 C 97.421875 111.042969 96.808594 112.734375 96.238281 114.449219 C 95.671875 116.160156 95.152344 117.886719 94.683594 119.625 C 94.210938 121.367188 93.789062 123.121094 93.414062 124.882812 C 93.039062 126.648438 92.714844 128.421875 92.441406 130.203125 C 92.164062 131.988281 91.941406 133.777344 91.765625 135.570312 C 91.589844 137.367188 91.464844 139.164062 91.386719 140.96875 C 91.3125 142.769531 91.285156 144.570312 91.308594 146.375 C 91.335938 148.179688 91.410156 149.980469 91.535156 151.78125 C 91.65625 153.578125 91.832031 155.375 92.058594 157.164062 C 92.28125 158.953125 92.554688 160.734375 92.878906 162.511719 C 93.203125 164.285156 93.574219 166.046875 93.996094 167.800781 C 94.417969 169.554688 94.886719 171.296875 95.40625 173.023438 C 95.921875 174.75 96.488281 176.460938 97.101562 178.15625 C 97.714844 179.855469 98.375 181.53125 99.082031 183.191406 C 99.789062 184.847656 100.539062 186.488281 101.339844 188.105469 C 102.136719 189.71875 102.976562 191.3125 103.863281 192.882812 C 104.75 194.453125 105.679688 195.996094 106.652344 197.515625 C 107.625 199.03125 108.636719 200.523438 109.691406 201.984375 C 110.746094 203.445312 111.839844 204.875 112.976562 206.277344 C 114.109375 207.675781 115.28125 209.042969 116.492188 210.378906 C 117.703125 211.714844 118.949219 213.011719 120.230469 214.277344 C 121.515625 215.542969 122.832031 216.773438 124.183594 217.964844 C 125.53125 219.15625 126.917969 220.308594 128.332031 221.421875 C 129.746094 222.535156 131.191406 223.609375 132.664062 224.644531 C 134.140625 225.675781 135.640625 226.667969 137.171875 227.617188 C 138.703125 228.566406 140.257812 229.472656 141.835938 230.335938 C 143.417969 231.199219 145.019531 232.019531 146.644531 232.792969 C 148.273438 233.566406 149.917969 234.292969 151.582031 234.972656 C 153.25 235.65625 154.933594 236.289062 156.636719 236.875 C 158.335938 237.464844 160.050781 238.003906 161.785156 238.492188 C 163.515625 238.984375 165.257812 239.429688 167.015625 239.820312 C 168.769531 240.214844 170.535156 240.5625 172.3125 240.855469 C 174.085938 241.152344 175.867188 241.398438 177.65625 241.59375 C 179.445312 241.789062 181.238281 241.933594 183.035156 242.03125 C 184.832031 242.125 186.628906 242.171875 188.429688 242.167969 C 190.230469 242.164062 192.027344 242.105469 193.824219 242.003906 C 195.621094 241.898438 197.410156 241.742188 199.199219 241.535156 C 200.988281 241.332031 202.769531 241.074219 204.542969 240.769531 C 206.316406 240.464844 208.078125 240.113281 209.832031 239.710938 C 211.585938 239.304688 213.328125 238.855469 215.054688 238.355469 C 216.785156 237.851562 218.5 237.304688 220.195312 236.707031 C 221.894531 236.113281 223.574219 235.46875 225.238281 234.777344 C 226.898438 234.089844 228.542969 233.351562 230.164062 232.570312 C 231.785156 231.789062 233.382812 230.964844 234.960938 230.09375 C 236.535156 229.222656 238.085938 228.304688 239.609375 227.347656 C 241.136719 226.390625 242.632812 225.390625 244.101562 224.351562 C 245.570312 223.308594 247.007812 222.226562 248.417969 221.105469 C 249.828125 219.984375 251.203125 218.824219 252.550781 217.625 C 253.894531 216.425781 255.203125 215.191406 256.480469 213.917969 C 257.757812 212.648438 258.996094 211.339844 260.199219 210 C 261.402344 208.660156 262.566406 207.285156 263.695312 205.878906 C 264.820312 204.472656 265.910156 203.035156 266.957031 201.570312 C 268.003906 200.101562 269.007812 198.609375 269.972656 197.085938 C 270.9375 195.5625 271.859375 194.011719 272.734375 192.4375 C 273.613281 190.863281 274.445312 189.265625 275.234375 187.644531 C 276.023438 186.023438 276.769531 184.382812 277.464844 182.71875 C 278.164062 181.058594 278.816406 179.375 279.421875 177.675781 C 280.023438 175.980469 280.582031 174.265625 281.089844 172.535156 C 281.597656 170.804688 282.058594 169.0625 282.472656 167.304688 C 282.882812 165.550781 283.246094 163.785156 283.5625 162.007812 C 283.875 160.230469 284.140625 158.449219 284.355469 156.65625 C 284.570312 154.867188 284.734375 153.070312 284.851562 151.269531 C 284.964844 149.46875 285.03125 147.667969 285.046875 145.863281 C 285.058594 144.0625 285.023438 142.257812 284.941406 140.457031 C 284.855469 138.65625 284.71875 136.855469 284.535156 135.0625 C 284.347656 133.269531 284.113281 131.480469 283.828125 129.699219 Z M 283.828125 129.699219 " fill-opacity="1" fill-rule="nonzero"/><path fill="#ffffff" d="M 147.980469 122.863281 C 147.660156 122.550781 147.308594 122.269531 146.929688 122.027344 C 146.554688 121.78125 146.15625 121.574219 145.738281 121.40625 C 145.320312 121.242188 144.890625 121.117188 144.449219 121.03125 C 144.007812 120.949219 143.5625 120.910156 143.109375 120.914062 C 142.660156 120.917969 142.214844 120.964844 141.777344 121.054688 C 141.335938 121.148438 140.90625 121.28125 140.492188 121.453125 C 140.078125 121.628906 139.683594 121.839844 139.3125 122.09375 C 138.9375 122.34375 138.59375 122.628906 138.273438 122.945312 C 137.957031 123.265625 137.671875 123.613281 137.421875 123.988281 C 137.171875 124.359375 136.957031 124.753906 136.785156 125.171875 C 136.609375 125.585938 136.480469 126.015625 136.386719 126.457031 C 136.296875 126.898438 136.25 127.34375 136.246094 127.796875 C 136.242188 128.246094 136.28125 128.691406 136.363281 129.136719 C 136.449219 129.578125 136.574219 130.011719 136.738281 130.429688 C 136.90625 130.847656 137.109375 131.246094 137.355469 131.625 C 137.597656 132.003906 137.878906 132.355469 138.191406 132.679688 L 179.738281 174.328125 C 180.0625 174.652344 180.410156 174.9375 180.789062 175.191406 C 181.167969 175.445312 181.566406 175.660156 181.988281 175.832031 C 182.40625 176.007812 182.839844 176.140625 183.285156 176.226562 C 183.730469 176.316406 184.179688 176.363281 184.636719 176.363281 C 185.089844 176.363281 185.539062 176.316406 185.988281 176.226562 C 186.433594 176.140625 186.867188 176.007812 187.285156 175.832031 C 187.707031 175.660156 188.105469 175.445312 188.484375 175.191406 C 188.859375 174.9375 189.210938 174.652344 189.53125 174.328125 L 265.707031 97.96875 C 266.039062 97.648438 266.332031 97.300781 266.59375 96.921875 C 266.855469 96.539062 267.078125 96.140625 267.257812 95.714844 C 267.441406 95.292969 267.578125 94.855469 267.671875 94.402344 C 267.769531 93.953125 267.816406 93.496094 267.820312 93.035156 C 267.824219 92.574219 267.785156 92.117188 267.695312 91.667969 C 267.609375 91.214844 267.480469 90.773438 267.304688 90.347656 C 267.132812 89.921875 266.917969 89.515625 266.664062 89.132812 C 266.40625 88.746094 266.117188 88.394531 265.792969 88.066406 C 265.46875 87.742188 265.113281 87.449219 264.730469 87.195312 C 264.347656 86.941406 263.945312 86.726562 263.519531 86.550781 C 263.09375 86.375 262.65625 86.246094 262.203125 86.160156 C 261.75 86.070312 261.296875 86.03125 260.835938 86.035156 C 260.375 86.039062 259.921875 86.085938 259.472656 86.183594 C 259.023438 86.277344 258.585938 86.414062 258.164062 86.597656 C 257.742188 86.78125 257.339844 87 256.960938 87.261719 C 256.582031 87.523438 256.234375 87.820312 255.914062 88.152344 L 184.636719 159.605469 Z M 147.980469 122.863281 " fill-opacity="1" fill-rule="nonzero"/><g fill="#ffffff" fill-opacity="1"><g transform="translate(67.007813, 314.755175)"><g><path d="M 31.96875 -33.265625 L 31.96875 0 L 25.046875 0 L 25.046875 -14.328125 L 10.40625 -14.328125 L 10.40625 0 L 3.484375 0 L 3.484375 -33.265625 L 10.40625 -33.265625 L 10.40625 -19.140625 L 25.046875 -19.140625 L 25.046875 -33.265625 Z M 31.96875 -33.265625 "/></g></g></g><g fill="#ffffff" fill-opacity="1"><g transform="translate(102.458986, 314.755175)"><g><path d="M 13.265625 -24 C 15.046875 -24 16.660156 -23.710938 18.109375 -23.140625 C 19.554688 -22.578125 20.800781 -21.769531 21.84375 -20.71875 C 22.882812 -19.675781 23.6875 -18.40625 24.25 -16.90625 C 24.8125 -15.414062 25.09375 -13.726562 25.09375 -11.84375 C 25.09375 -9.96875 24.8125 -8.273438 24.25 -6.765625 C 23.6875 -5.265625 22.882812 -3.988281 21.84375 -2.9375 C 20.800781 -1.882812 19.554688 -1.070312 18.109375 -0.5 C 16.660156 0.0625 15.046875 0.34375 13.265625 0.34375 C 11.484375 0.34375 9.863281 0.0625 8.40625 -0.5 C 6.945312 -1.070312 5.695312 -1.882812 4.65625 -2.9375 C 3.613281 -3.988281 2.804688 -5.265625 2.234375 -6.765625 C 1.660156 -8.273438 1.375 -9.96875 1.375 -11.84375 C 1.375 -13.726562 1.660156 -15.414062 2.234375 -16.90625 C 2.804688 -18.40625 3.613281 -19.675781 4.65625 -20.71875 C 5.695312 -21.769531 6.945312 -22.578125 8.40625 -23.140625 C 9.863281 -23.710938 11.484375 -24 13.265625 -24 Z M 13.265625 -4.40625 C 15.066406 -4.40625 16.40625 -5.023438 17.28125 -6.265625 C 18.15625 -7.515625 18.59375 -9.367188 18.59375 -11.828125 C 18.59375 -14.273438 18.15625 -16.117188 17.28125 -17.359375 C 16.40625 -18.609375 15.066406 -19.234375 13.265625 -19.234375 C 11.421875 -19.234375 10.0625 -18.609375 9.1875 -17.359375 C 8.320312 -16.117188 7.890625 -14.273438 7.890625 -11.828125 C 7.890625 -9.367188 8.320312 -7.515625 9.1875 -6.265625 C 10.0625 -5.023438 11.421875 -4.40625 13.265625 -4.40625 Z M 13.265625 -4.40625 "/></g></g></g><g fill="#ffffff" fill-opacity="1"><g transform="translate(128.927051, 314.755175)"><g><path d="M 14.96875 -9.875 C 13.425781 -9.800781 12.140625 -9.664062 11.109375 -9.46875 C 10.085938 -9.28125 9.273438 -9.035156 8.671875 -8.734375 C 8.066406 -8.429688 7.640625 -8.082031 7.390625 -7.6875 C 7.140625 -7.300781 7.015625 -6.878906 7.015625 -6.421875 C 7.015625 -5.503906 7.269531 -4.851562 7.78125 -4.46875 C 8.289062 -4.082031 9.003906 -3.890625 9.921875 -3.890625 C 10.972656 -3.890625 11.882812 -4.078125 12.65625 -4.453125 C 13.4375 -4.828125 14.207031 -5.414062 14.96875 -6.21875 Z M 2.078125 -20.359375 C 3.472656 -21.609375 5.007812 -22.539062 6.6875 -23.15625 C 8.375 -23.78125 10.195312 -24.09375 12.15625 -24.09375 C 13.550781 -24.09375 14.800781 -23.863281 15.90625 -23.40625 C 17.019531 -22.945312 17.960938 -22.304688 18.734375 -21.484375 C 19.503906 -20.671875 20.097656 -19.695312 20.515625 -18.5625 C 20.929688 -17.4375 21.140625 -16.203125 21.140625 -14.859375 L 21.140625 0 L 18.25 0 C 17.65625 0 17.195312 -0.0820312 16.875 -0.25 C 16.5625 -0.414062 16.304688 -0.769531 16.109375 -1.3125 L 15.609375 -2.8125 C 15.015625 -2.300781 14.4375 -1.84375 13.875 -1.4375 C 13.320312 -1.039062 12.742188 -0.707031 12.140625 -0.4375 C 11.546875 -0.175781 10.910156 0.0195312 10.234375 0.15625 C 9.554688 0.289062 8.796875 0.359375 7.953125 0.359375 C 6.910156 0.359375 5.960938 0.222656 5.109375 -0.046875 C 4.253906 -0.316406 3.515625 -0.722656 2.890625 -1.265625 C 2.273438 -1.804688 1.800781 -2.484375 1.46875 -3.296875 C 1.132812 -4.109375 0.96875 -5.039062 0.96875 -6.09375 C 0.96875 -6.96875 1.1875 -7.835938 1.625 -8.703125 C 2.070312 -9.578125 2.832031 -10.367188 3.90625 -11.078125 C 4.988281 -11.796875 6.425781 -12.382812 8.21875 -12.84375 C 10.007812 -13.3125 12.257812 -13.578125 14.96875 -13.640625 L 14.96875 -14.859375 C 14.96875 -16.335938 14.65625 -17.421875 14.03125 -18.109375 C 13.40625 -18.804688 12.503906 -19.15625 11.328125 -19.15625 C 10.453125 -19.15625 9.722656 -19.050781 9.140625 -18.84375 C 8.566406 -18.644531 8.0625 -18.425781 7.625 -18.1875 C 7.1875 -17.945312 6.773438 -17.722656 6.390625 -17.515625 C 6.015625 -17.316406 5.570312 -17.21875 5.0625 -17.21875 C 4.625 -17.21875 4.253906 -17.328125 3.953125 -17.546875 C 3.648438 -17.765625 3.398438 -18.03125 3.203125 -18.34375 Z M 9.65625 -33.625 C 10.3125 -33.625 10.800781 -33.515625 11.125 -33.296875 C 11.457031 -33.085938 11.742188 -32.769531 11.984375 -32.34375 L 15.171875 -26.75 L 11.59375 -26.75 C 11.125 -26.75 10.738281 -26.8125 10.4375 -26.9375 C 10.144531 -27.070312 9.84375 -27.300781 9.53125 -27.625 L 3.734375 -33.625 Z M 9.65625 -33.625 "/></g></g></g><g fill="#ffffff" fill-opacity="1"><g transform="translate(152.393114, 314.755175)"><g><path d="M 8.484375 -20.875 C 8.953125 -21.332031 9.441406 -21.753906 9.953125 -22.140625 C 10.472656 -22.523438 11.019531 -22.851562 11.59375 -23.125 C 12.164062 -23.40625 12.78125 -23.617188 13.4375 -23.765625 C 14.101562 -23.921875 14.828125 -24 15.609375 -24 C 16.890625 -24 18.023438 -23.773438 19.015625 -23.328125 C 20.015625 -22.890625 20.851562 -22.269531 21.53125 -21.46875 C 22.21875 -20.675781 22.734375 -19.726562 23.078125 -18.625 C 23.421875 -17.53125 23.59375 -16.328125 23.59375 -15.015625 L 23.59375 0 L 17.28125 0 L 17.28125 -15.015625 C 17.28125 -16.328125 16.972656 -17.34375 16.359375 -18.0625 C 15.753906 -18.789062 14.851562 -19.15625 13.65625 -19.15625 C 12.769531 -19.15625 11.9375 -18.960938 11.15625 -18.578125 C 10.382812 -18.203125 9.644531 -17.671875 8.9375 -16.984375 L 8.9375 0 L 2.609375 0 L 2.609375 -23.625 L 6.515625 -23.625 C 7.304688 -23.625 7.832031 -23.257812 8.09375 -22.53125 Z M 8.484375 -20.875 "/></g></g></g><g fill="#ffffff" fill-opacity="1"><g transform="translate(178.379944, 314.755175)"><g/></g></g><g fill="#ffffff" fill-opacity="1"><g transform="translate(189.265083, 314.755175)"><g><path d="M 10.765625 0.359375 C 9.703125 0.359375 8.753906 0.203125 7.921875 -0.109375 C 7.097656 -0.421875 6.40625 -0.863281 5.84375 -1.4375 C 5.28125 -2.019531 4.851562 -2.722656 4.5625 -3.546875 C 4.269531 -4.378906 4.125 -5.3125 4.125 -6.34375 L 4.125 -19.09375 L 1.90625 -19.09375 C 1.5625 -19.09375 1.269531 -19.195312 1.03125 -19.40625 C 0.800781 -19.625 0.6875 -19.945312 0.6875 -20.375 L 0.6875 -22.859375 L 4.46875 -23.546875 L 5.75 -29.65625 C 5.914062 -30.34375 6.382812 -30.6875 7.15625 -30.6875 L 10.453125 -30.6875 L 10.453125 -23.5 L 16.546875 -23.5 L 16.546875 -19.09375 L 10.453125 -19.09375 L 10.453125 -6.765625 C 10.453125 -6.109375 10.609375 -5.585938 10.921875 -5.203125 C 11.234375 -4.816406 11.679688 -4.625 12.265625 -4.625 C 12.566406 -4.625 12.820312 -4.660156 13.03125 -4.734375 C 13.25 -4.804688 13.4375 -4.882812 13.59375 -4.96875 C 13.75 -5.050781 13.890625 -5.125 14.015625 -5.1875 C 14.148438 -5.257812 14.285156 -5.296875 14.421875 -5.296875 C 14.597656 -5.296875 14.75 -5.253906 14.875 -5.171875 C 15 -5.085938 15.125 -4.945312 15.25 -4.75 L 17.140625 -1.71875 C 16.273438 -1.03125 15.289062 -0.507812 14.1875 -0.15625 C 13.082031 0.1875 11.941406 0.359375 10.765625 0.359375 Z M 10.765625 0.359375 "/></g></g></g><g fill="#ffffff" fill-opacity="1"><g transform="translate(206.566718, 314.755175)"><g><path d="M 8.9375 -21.3125 C 9.382812 -21.707031 9.847656 -22.070312 10.328125 -22.40625 C 10.804688 -22.738281 11.316406 -23.019531 11.859375 -23.25 C 12.398438 -23.488281 12.976562 -23.671875 13.59375 -23.796875 C 14.21875 -23.929688 14.890625 -24 15.609375 -24 C 16.890625 -24 18.023438 -23.773438 19.015625 -23.328125 C 20.015625 -22.890625 20.851562 -22.269531 21.53125 -21.46875 C 22.21875 -20.675781 22.734375 -19.726562 23.078125 -18.625 C 23.421875 -17.53125 23.59375 -16.328125 23.59375 -15.015625 L 23.59375 0 L 17.28125 0 L 17.28125 -15.015625 C 17.28125 -16.328125 16.972656 -17.34375 16.359375 -18.0625 C 15.753906 -18.789062 14.851562 -19.15625 13.65625 -19.15625 C 12.769531 -19.15625 11.9375 -18.960938 11.15625 -18.578125 C 10.382812 -18.203125 9.644531 -17.671875 8.9375 -16.984375 L 8.9375 0 L 2.609375 0 L 2.609375 -34.171875 L 8.9375 -34.171875 Z M 8.9375 -21.3125 "/></g></g></g><g fill="#ffffff" fill-opacity="1"><g transform="translate(232.553548, 314.755175)"><g><path d="M 14.96875 -9.875 C 13.425781 -9.800781 12.140625 -9.664062 11.109375 -9.46875 C 10.085938 -9.28125 9.273438 -9.035156 8.671875 -8.734375 C 8.066406 -8.429688 7.640625 -8.082031 7.390625 -7.6875 C 7.140625 -7.300781 7.015625 -6.878906 7.015625 -6.421875 C 7.015625 -5.503906 7.269531 -4.851562 7.78125 -4.46875 C 8.289062 -4.082031 9.003906 -3.890625 9.921875 -3.890625 C 10.972656 -3.890625 11.882812 -4.078125 12.65625 -4.453125 C 13.4375 -4.828125 14.207031 -5.414062 14.96875 -6.21875 Z M 2.078125 -20.359375 C 3.472656 -21.609375 5.007812 -22.539062 6.6875 -23.15625 C 8.375 -23.78125 10.195312 -24.09375 12.15625 -24.09375 C 13.550781 -24.09375 14.800781 -23.863281 15.90625 -23.40625 C 17.019531 -22.945312 17.960938 -22.304688 18.734375 -21.484375 C 19.503906 -20.671875 20.097656 -19.695312 20.515625 -18.5625 C 20.929688 -17.4375 21.140625 -16.203125 21.140625 -14.859375 L 21.140625 0 L 18.25 0 C 17.65625 0 17.195312 -0.0820312 16.875 -0.25 C 16.5625 -0.414062 16.304688 -0.769531 16.109375 -1.3125 L 15.609375 -2.8125 C 15.015625 -2.300781 14.4375 -1.84375 13.875 -1.4375 C 13.320312 -1.039062 12.742188 -0.707031 12.140625 -0.4375 C 11.546875 -0.175781 10.910156 0.0195312 10.234375 0.15625 C 9.554688 0.289062 8.796875 0.359375 7.953125 0.359375 C 6.910156 0.359375 5.960938 0.222656 5.109375 -0.046875 C 4.253906 -0.316406 3.515625 -0.722656 2.890625 -1.265625 C 2.273438 -1.804688 1.800781 -2.484375 1.46875 -3.296875 C 1.132812 -4.109375 0.96875 -5.039062 0.96875 -6.09375 C 0.96875 -6.96875 1.1875 -7.835938 1.625 -8.703125 C 2.070312 -9.578125 2.832031 -10.367188 3.90625 -11.078125 C 4.988281 -11.796875 6.425781 -12.382812 8.21875 -12.84375 C 10.007812 -13.3125 12.257812 -13.578125 14.96875 -13.640625 L 14.96875 -14.859375 C 14.96875 -16.335938 14.65625 -17.421875 14.03125 -18.109375 C 13.40625 -18.804688 12.503906 -19.15625 11.328125 -19.15625 C 10.453125 -19.15625 9.722656 -19.050781 9.140625 -18.84375 C 8.566406 -18.644531 8.0625 -18.425781 7.625 -18.1875 C 7.1875 -17.945312 6.773438 -17.722656 6.390625 -17.515625 C 6.015625 -17.316406 5.570312 -17.21875 5.0625 -17.21875 C 4.625 -17.21875 4.253906 -17.328125 3.953125 -17.546875 C 3.648438 -17.765625 3.398438 -18.03125 3.203125 -18.34375 Z M 9.65625 -33.625 C 10.3125 -33.625 10.800781 -33.515625 11.125 -33.296875 C 11.457031 -33.085938 11.742188 -32.769531 11.984375 -32.34375 L 15.171875 -26.75 L 11.59375 -26.75 C 11.125 -26.75 10.738281 -26.8125 10.4375 -26.9375 C 10.144531 -27.070312 9.84375 -27.300781 9.53125 -27.625 L 3.734375 -33.625 Z M 9.65625 -33.625 "/></g></g></g><g fill="#ffffff" fill-opacity="1"><g transform="translate(256.019611, 314.755175)"><g><path d="M 8.484375 -20.875 C 8.953125 -21.332031 9.441406 -21.753906 9.953125 -22.140625 C 10.472656 -22.523438 11.019531 -22.851562 11.59375 -23.125 C 12.164062 -23.40625 12.78125 -23.617188 13.4375 -23.765625 C 14.101562 -23.921875 14.828125 -24 15.609375 -24 C 16.890625 -24 18.023438 -23.773438 19.015625 -23.328125 C 20.015625 -22.890625 20.851562 -22.269531 21.53125 -21.46875 C 22.21875 -20.675781 22.734375 -19.726562 23.078125 -18.625 C 23.421875 -17.53125 23.59375 -16.328125 23.59375 -15.015625 L 23.59375 0 L 17.28125 0 L 17.28125 -15.015625 C 17.28125 -16.328125 16.972656 -17.34375 16.359375 -18.0625 C 15.753906 -18.789062 14.851562 -19.15625 13.65625 -19.15625 C 12.769531 -19.15625 11.9375 -18.960938 11.15625 -18.578125 C 10.382812 -18.203125 9.644531 -17.671875 8.9375 -16.984375 L 8.9375 0 L 2.609375 0 L 2.609375 -23.625 L 6.515625 -23.625 C 7.304688 -23.625 7.832031 -23.257812 8.09375 -22.53125 Z M 8.484375 -20.875 "/></g></g></g><g fill="#ffffff" fill-opacity="1"><g transform="translate(282.006441, 314.755175)"><g><path d="M 8.9375 -21.3125 C 9.382812 -21.707031 9.847656 -22.070312 10.328125 -22.40625 C 10.804688 -22.738281 11.316406 -23.019531 11.859375 -23.25 C 12.398438 -23.488281 12.976562 -23.671875 13.59375 -23.796875 C 14.21875 -23.929688 14.890625 -24 15.609375 -24 C 16.890625 -24 18.023438 -23.773438 19.015625 -23.328125 C 20.015625 -22.890625 20.851562 -22.269531 21.53125 -21.46875 C 22.21875 -20.675781 22.734375 -19.726562 23.078125 -18.625 C 23.421875 -17.53125 23.59375 -16.328125 23.59375 -15.015625 L 23.59375 0 L 17.28125 0 L 17.28125 -15.015625 C 17.28125 -16.328125 16.972656 -17.34375 16.359375 -18.0625 C 15.753906 -18.789062 14.851562 -19.15625 13.65625 -19.15625 C 12.769531 -19.15625 11.9375 -18.960938 11.15625 -18.578125 C 10.382812 -18.203125 9.644531 -17.671875 8.9375 -16.984375 L 8.9375 0 L 2.609375 0 L 2.609375 -34.171875 L 8.9375 -34.171875 Z M 8.9375 -21.3125 "/></g></g></g></svg>