<svg xmlns="http://www.w3.org/2000/svg" xmlns:xlink="http://www.w3.org/1999/xlink" width="500" zoomAndPan="magnify" viewBox="0 0 375 374.999991" height="500" preserveAspectRatio="xMidYMid meet" version="1.0"><defs><g/><clipPath id="id1"><path d="M 175 37.5 L 199 37.5 L 199 90 L 175 90 Z M 175 37.5 " clip-rule="nonzero"/></clipPath><clipPath id="id2"><path d="M 230 114 L 282.269531 114 L 282.269531 138 L 230 138 Z M 230 114 " clip-rule="nonzero"/></clipPath><clipPath id="id3"><path d="M 92.519531 114 L 145 114 L 145 138 L 92.519531 138 Z M 92.519531 114 " clip-rule="nonzero"/></clipPath><clipPath id="id4"><path d="M 123 201 L 252 201 L 252 243.75 L 123 243.75 Z M 123 201 " clip-rule="nonzero"/></clipPath></defs><rect x="-37.5" width="450" fill="#ffffff" y="-37.499999" height="449.999989" fill-opacity="1"/><rect x="-37.5" width="450" fill="#ff1616" y="-37.499999" height="449.999989" fill-opacity="1"/><path fill="#ec5f3a" d="M 187.394531 225.367188 C 166.195312 225.367188 144.808594 219.453125 144.808594 206.246094 L 144.808594 137.90625 C 144.808594 114.382812 163.90625 95.238281 187.394531 95.238281 C 210.871094 95.238281 229.976562 114.382812 229.976562 137.90625 L 229.976562 206.246094 C 229.976562 219.453125 208.589844 225.367188 187.394531 225.367188 " fill-opacity="1" fill-rule="nonzero"/><path fill="#444648" d="M 187.394531 92.773438 C 162.554688 92.773438 142.351562 113.019531 142.351562 137.90625 L 142.351562 206.246094 C 142.351562 211.40625 145.082031 218.554688 158.109375 223.363281 C 165.917969 226.238281 176.316406 227.832031 187.394531 227.832031 C 198.472656 227.832031 208.867188 226.238281 216.675781 223.363281 C 229.707031 218.554688 232.4375 211.40625 232.4375 206.246094 L 232.4375 137.90625 C 232.4375 113.019531 212.230469 92.773438 187.394531 92.773438 M 187.394531 97.703125 C 209.550781 97.703125 227.515625 115.695312 227.515625 137.90625 L 227.515625 206.246094 C 227.515625 217.347656 207.449219 222.902344 187.394531 222.902344 C 167.335938 222.902344 147.269531 217.347656 147.269531 206.246094 L 147.269531 137.90625 C 147.269531 115.695312 165.234375 97.703125 187.394531 97.703125 " fill-opacity="1" fill-rule="nonzero"/><path fill="#e22d27" d="M 227.515625 201.769531 L 147.269531 201.769531 L 147.269531 196.757812 C 151.5 197.835938 155.914062 198.417969 160.4375 198.417969 C 190.363281 198.417969 215.332031 173.398438 215.332031 143.417969 C 215.332031 124.644531 205.539062 107.816406 190.886719 97.867188 C 211.082031 99.609375 227.007812 116.347656 227.507812 136.917969 L 227.507812 137.265625 C 227.507812 137.3125 227.507812 137.355469 227.515625 137.40625 L 227.515625 201.769531 " fill-opacity="1" fill-rule="nonzero"/><path fill="#41150f" d="M 227.515625 201.769531 L 227.515625 137.90625 L 227.515625 201.769531 M 227.515625 137.90625 L 227.515625 137.871094 L 227.515625 137.90625 M 227.515625 137.863281 L 227.515625 137.839844 L 227.515625 137.863281 M 227.515625 137.832031 L 227.515625 137.808594 L 227.515625 137.832031 M 227.515625 137.796875 L 227.515625 137.78125 L 227.515625 137.796875 M 227.515625 137.765625 L 227.515625 137.75 L 227.515625 137.765625 M 227.515625 137.734375 L 227.515625 137.714844 L 227.515625 137.734375 M 227.515625 137.699219 L 227.515625 137.683594 L 227.515625 137.699219 M 227.515625 137.667969 L 227.515625 137.652344 L 227.515625 137.667969 M 227.515625 137.632812 L 227.515625 137.617188 L 227.515625 137.632812 M 227.515625 137.609375 L 227.515625 137.59375 L 227.515625 137.609375 M 227.515625 137.578125 L 227.515625 137.558594 L 227.515625 137.578125 M 227.515625 137.542969 L 227.515625 137.527344 L 227.515625 137.542969 M 227.515625 137.511719 L 227.515625 137.496094 L 227.515625 137.511719 M 227.515625 137.476562 L 227.515625 137.460938 L 227.515625 137.476562 M 227.515625 137.445312 L 227.515625 137.4375 L 227.515625 137.445312 M 227.515625 137.414062 L 227.515625 137.40625 L 227.515625 137.414062 M 227.507812 137.265625 L 227.507812 137.257812 L 227.507812 137.265625 M 227.507812 137.238281 L 227.507812 137.222656 L 227.507812 137.238281 M 227.507812 137.207031 L 227.507812 137.199219 L 227.507812 137.207031 M 227.507812 137.175781 L 227.507812 137.167969 L 227.507812 137.175781 M 227.507812 137.140625 L 227.507812 137.132812 L 227.507812 137.140625 M 227.507812 137.050781 L 227.507812 137.042969 L 227.507812 137.050781 M 227.507812 137.019531 L 227.507812 137.011719 L 227.507812 137.019531 M 227.507812 136.984375 L 227.507812 136.976562 L 227.507812 136.984375 M 227.507812 136.929688 L 227.507812 136.917969 L 227.507812 136.929688 " fill-opacity="1" fill-rule="nonzero"/><path fill="#ffffff" d="M 153.707031 137.90625 C 153.707031 137.90625 153.664062 137.691406 153.59375 137.304688 C 153.535156 136.910156 153.421875 136.335938 153.339844 135.605469 C 153.289062 135.242188 153.230469 134.832031 153.175781 134.398438 C 153.15625 133.945312 153.164062 133.453125 153.15625 132.925781 C 153.148438 132.402344 153.164062 131.824219 153.175781 131.226562 C 153.175781 130.617188 153.304688 130.019531 153.371094 129.367188 C 153.46875 128.71875 153.558594 128.046875 153.664062 127.347656 C 153.847656 126.65625 154.027344 125.960938 154.214844 125.226562 C 154.320312 124.867188 154.421875 124.496094 154.527344 124.117188 C 154.648438 123.757812 154.804688 123.394531 154.945312 123.027344 C 155.230469 122.285156 155.550781 121.539062 155.863281 120.765625 C 156.242188 120.035156 156.652344 119.296875 157.070312 118.546875 C 157.453125 117.785156 157.960938 117.085938 158.464844 116.378906 C 159.414062 114.898438 160.652344 113.625 161.832031 112.296875 C 163.160156 111.113281 164.433594 109.871094 165.902344 108.917969 C 166.613281 108.410156 167.3125 107.898438 168.074219 107.515625 C 168.820312 107.101562 169.558594 106.691406 170.289062 106.3125 C 171.058594 105.992188 171.796875 105.671875 172.535156 105.386719 C 172.910156 105.246094 173.273438 105.089844 173.632812 104.964844 C 174.011719 104.867188 174.378906 104.761719 174.738281 104.664062 C 175.460938 104.472656 176.167969 104.285156 176.855469 104.105469 C 177.554688 104.003906 178.226562 103.90625 178.871094 103.808594 C 179.519531 103.742188 180.121094 103.609375 180.71875 103.609375 C 181.308594 103.609375 181.867188 103.601562 182.398438 103.601562 C 182.914062 103.609375 183.40625 103.601562 183.859375 103.621094 C 184.300781 103.675781 184.71875 103.726562 185.089844 103.777344 C 185.835938 103.867188 186.410156 103.980469 186.800781 104.039062 C 187.1875 104.113281 187.394531 104.152344 187.394531 104.152344 C 187.394531 104.152344 187.1875 104.210938 186.800781 104.324219 C 186.417969 104.425781 185.859375 104.597656 185.15625 104.753906 C 184.808594 104.84375 184.425781 104.933594 184 105.039062 C 183.589844 105.195312 183.136719 105.328125 182.667969 105.484375 C 182.203125 105.632812 181.703125 105.789062 181.175781 105.960938 C 180.644531 106.109375 180.121094 106.371094 179.5625 106.585938 C 179.011719 106.800781 178.429688 107.027344 177.832031 107.257812 C 177.257812 107.539062 176.667969 107.835938 176.058594 108.128906 C 175.757812 108.269531 175.453125 108.417969 175.132812 108.566406 C 174.832031 108.722656 174.535156 108.910156 174.230469 109.082031 C 173.625 109.453125 173 109.789062 172.371094 110.152344 C 171.191406 111.003906 169.902344 111.761719 168.753906 112.753906 C 167.53125 113.660156 166.449219 114.753906 165.308594 115.78125 C 164.285156 116.921875 163.1875 118.007812 162.292969 119.222656 C 161.292969 120.371094 160.546875 121.671875 159.683594 122.851562 C 159.332031 123.476562 158.988281 124.109375 158.628906 124.71875 C 158.445312 125.023438 158.257812 125.316406 158.101562 125.621094 C 157.953125 125.933594 157.808594 126.246094 157.667969 126.542969 C 157.363281 127.160156 157.078125 127.75 156.796875 128.324219 C 156.570312 128.925781 156.339844 129.5 156.125 130.058594 C 155.914062 130.609375 155.648438 131.152344 155.503906 131.660156 C 155.339844 132.1875 155.183594 132.679688 155.035156 133.140625 C 154.878906 133.609375 154.738281 134.050781 154.59375 134.472656 C 154.484375 134.898438 154.394531 135.300781 154.304688 135.65625 C 154.140625 136.378906 153.96875 136.9375 153.878906 137.3125 C 153.765625 137.699219 153.707031 137.90625 153.707031 137.90625 " fill-opacity="1" fill-rule="nonzero"/><path fill="#f4cc16" d="M 186.957031 87.328125 C 184.734375 87.328125 184.261719 85.304688 183.546875 82.242188 C 183.085938 80.292969 182.515625 77.523438 181.890625 74.230469 L 181.367188 71.371094 L 181.101562 69.941406 C 180.347656 65.710938 179.609375 61.214844 179.019531 57.28125 L 178.773438 55.636719 L 178.601562 54.402344 L 178.40625 52.992188 C 177.898438 49.164062 177.636719 46.476562 177.636719 45.019531 C 177.636719 41.902344 181.121094 40.042969 186.957031 40.042969 C 192.804688 40.042969 196.289062 41.902344 196.289062 45.019531 C 196.289062 46.242188 196.003906 48.914062 195.4375 52.976562 L 195.058594 55.621094 L 194.8125 57.261719 C 194.207031 61.238281 193.476562 65.734375 192.746094 69.917969 L 192.273438 72.59375 L 191.976562 74.207031 C 191.355469 77.582031 190.8125 80.277344 190.371094 82.222656 C 189.664062 85.296875 189.195312 87.328125 186.957031 87.328125 " fill-opacity="1" fill-rule="nonzero"/><g clip-path="url(#id1)"><path fill="#444648" d="M 186.957031 37.578125 C 176.019531 37.578125 175.175781 43.273438 175.175781 45.019531 C 175.175781 46.609375 175.4375 49.328125 175.96875 53.320312 L 175.996094 53.484375 C 176.050781 53.902344 176.109375 54.320312 176.167969 54.757812 C 176.222656 55.152344 176.28125 55.570312 176.339844 55.988281 C 176.421875 56.53125 176.503906 57.082031 176.585938 57.640625 C 177.183594 61.609375 177.921875 66.128906 178.683594 70.375 L 178.78125 70.910156 L 178.9375 71.804688 L 179.046875 72.382812 L 179.167969 73.0625 L 179.210938 73.242188 C 179.300781 73.738281 179.390625 74.222656 179.480469 74.691406 C 180.101562 78.019531 180.683594 80.828125 181.144531 82.808594 C 181.421875 83.964844 181.652344 84.84375 181.867188 85.503906 C 183.046875 89.234375 185.5625 89.792969 186.957031 89.792969 C 188.367188 89.792969 190.902344 89.234375 192.066406 85.476562 C 192.273438 84.8125 192.5 83.933594 192.765625 82.773438 C 193.214844 80.792969 193.765625 78.066406 194.394531 74.65625 C 194.496094 74.125 194.59375 73.582031 194.691406 73.03125 L 194.730469 72.832031 C 194.789062 72.480469 194.855469 72.117188 194.921875 71.757812 C 195.003906 71.304688 195.085938 70.828125 195.167969 70.34375 C 195.90625 66.136719 196.644531 61.625 197.242188 57.632812 C 197.332031 57.066406 197.414062 56.515625 197.488281 55.972656 C 197.554688 55.554688 197.609375 55.144531 197.675781 54.734375 C 197.742188 54.257812 197.808594 53.78125 197.871094 53.320312 C 198.660156 47.683594 198.75 45.882812 198.75 45.019531 C 198.75 43.273438 197.898438 37.578125 186.957031 37.578125 Z M 186.957031 42.507812 C 190.394531 42.507812 193.828125 43.34375 193.828125 45.019531 C 193.828125 46.179688 193.503906 49.007812 193 52.636719 C 192.9375 53.089844 192.871094 53.558594 192.804688 54.035156 C 192.738281 54.4375 192.683594 54.839844 192.625 55.257812 C 192.542969 55.792969 192.46875 56.335938 192.378906 56.894531 C 191.78125 60.871094 191.050781 65.332031 190.320312 69.496094 C 190.238281 69.964844 190.15625 70.441406 190.074219 70.910156 C 190 71.328125 189.925781 71.742188 189.851562 72.152344 C 189.753906 72.703125 189.65625 73.234375 189.558594 73.761719 C 188.394531 80.054688 187.351562 84.863281 186.957031 84.863281 C 186.582031 84.863281 185.5 80.070312 184.308594 73.769531 C 184.210938 73.242188 184.113281 72.710938 184.007812 72.167969 C 183.933594 71.757812 183.859375 71.347656 183.785156 70.925781 C 183.695312 70.449219 183.613281 69.980469 183.53125 69.503906 C 182.785156 65.363281 182.054688 60.917969 181.457031 56.917969 C 181.375 56.367188 181.292969 55.816406 181.210938 55.285156 C 181.152344 54.871094 181.09375 54.460938 181.039062 54.066406 C 180.972656 53.582031 180.90625 53.113281 180.847656 52.664062 C 180.382812 49.21875 180.09375 46.449219 180.09375 45.019531 C 180.09375 43.34375 183.53125 42.507812 186.957031 42.507812 " fill-opacity="1" fill-rule="nonzero"/></g><path fill="#f4cc16" d="M 162.613281 99.386719 C 161.851562 99.386719 160.988281 99.386719 151.378906 93.675781 L 147.648438 91.433594 C 143.949219 89.191406 140.085938 86.777344 136.789062 84.640625 L 135.386719 83.726562 L 134.363281 83.054688 C 133.921875 82.757812 133.535156 82.511719 133.164062 82.257812 C 129.96875 80.121094 127.785156 78.542969 126.6875 77.574219 C 125.910156 76.890625 124.769531 75.296875 125.882812 72.332031 C 127.164062 68.921875 132.410156 62.628906 136.503906 62.628906 C 137.460938 62.628906 138.332031 62.949219 139.011719 63.550781 C 139.929688 64.363281 141.75 66.34375 144.417969 69.457031 C 144.710938 69.800781 146.136719 71.476562 146.136719 71.476562 C 146.492188 71.886719 146.84375 72.316406 147.210938 72.75 C 149.8125 75.855469 152.699219 79.382812 155.324219 82.675781 L 157.011719 84.804688 C 157.355469 85.230469 157.691406 85.660156 158.027344 86.085938 C 160.144531 88.78125 161.800781 90.972656 162.964844 92.59375 C 164.800781 95.148438 166.015625 96.839844 164.539062 98.523438 C 164.054688 99.074219 163.359375 99.386719 162.613281 99.386719 " fill-opacity="1" fill-rule="nonzero"/><path fill="#444648" d="M 136.503906 60.164062 C 130.894531 60.164062 125.023438 67.625 123.578125 71.460938 C 121.882812 75.972656 124.046875 78.535156 125.0625 79.421875 C 126.253906 80.484375 128.457031 82.085938 131.804688 84.3125 C 132.171875 84.558594 132.558594 84.8125 132.953125 85.082031 L 133 85.109375 L 134.042969 85.789062 C 134.503906 86.09375 134.960938 86.398438 135.4375 86.703125 C 138.773438 88.855469 142.652344 91.285156 146.367188 93.546875 L 147.058594 93.957031 L 147.605469 94.292969 L 147.851562 94.441406 L 148.714844 94.960938 L 150.117188 95.796875 C 160.316406 101.851562 161.226562 101.851562 162.613281 101.851562 C 164.054688 101.851562 165.433594 101.238281 166.375 100.160156 C 167.3125 99.101562 168.566406 96.824219 166.523438 93.472656 C 166.164062 92.871094 165.65625 92.117188 164.964844 91.15625 C 163.777344 89.503906 162.09375 87.285156 159.964844 84.566406 C 159.628906 84.140625 159.28125 83.703125 158.929688 83.257812 C 158.683594 82.9375 158.414062 82.601562 158.144531 82.265625 L 157.324219 81.230469 L 157.25 81.132812 C 154.601562 77.828125 151.707031 74.289062 149.089844 71.164062 C 148.730469 70.730469 148.367188 70.300781 148.007812 69.882812 L 147.875 69.71875 C 147.65625 69.457031 147.425781 69.195312 147.203125 68.929688 C 146.894531 68.5625 146.582031 68.191406 146.277344 67.835938 C 142.578125 63.53125 141.292969 62.265625 140.644531 61.699219 C 139.511719 60.707031 138.042969 60.164062 136.503906 60.164062 Z M 136.503906 65.09375 C 136.847656 65.09375 137.152344 65.183594 137.390625 65.398438 C 138.257812 66.167969 140.160156 68.273438 142.546875 71.058594 C 142.84375 71.402344 143.152344 71.765625 143.464844 72.136719 C 143.726562 72.4375 143.988281 72.75 144.261719 73.070312 C 144.613281 73.480469 144.964844 73.902344 145.328125 74.335938 C 147.910156 77.417969 150.761719 80.917969 153.402344 84.210938 C 153.707031 84.589844 154.003906 84.96875 154.296875 85.339844 C 154.566406 85.667969 154.820312 86.003906 155.085938 86.324219 C 155.429688 86.757812 155.765625 87.1875 156.09375 87.605469 C 160.039062 92.640625 162.949219 96.601562 162.695312 96.898438 L 162.613281 96.921875 C 161.957031 96.921875 157.832031 94.648438 152.632812 91.558594 C 152.171875 91.285156 151.699219 91.007812 151.230469 90.71875 C 150.878906 90.507812 150.515625 90.292969 150.148438 90.078125 C 149.746094 89.832031 149.335938 89.585938 148.917969 89.332031 C 145.328125 87.144531 141.511719 84.761719 138.125 82.570312 C 137.652344 82.265625 137.191406 81.96875 136.734375 81.664062 C 136.386719 81.445312 136.042969 81.214844 135.707031 80.992188 C 135.3125 80.730469 134.921875 80.464844 134.535156 80.210938 C 131.648438 78.289062 129.386719 76.671875 128.3125 75.726562 C 126.046875 73.71875 133.246094 65.09375 136.503906 65.09375 " fill-opacity="1" fill-rule="nonzero"/><path fill="#f4cc16" d="M 212.527344 99.386719 C 211.78125 99.386719 211.074219 99.074219 210.589844 98.523438 C 209.125 96.839844 210.328125 95.148438 212.171875 92.59375 C 213.328125 90.972656 214.996094 88.78125 217.109375 86.085938 L 218.332031 84.53125 L 219.808594 82.675781 C 222.464844 79.355469 225.351562 75.832031 227.925781 72.75 L 229.902344 70.417969 L 230.722656 69.449219 C 234.738281 64.765625 235.78125 63.851562 236.117188 63.550781 C 236.804688 62.949219 237.675781 62.628906 238.636719 62.628906 C 242.71875 62.628906 247.96875 68.921875 249.253906 72.332031 C 250.371094 75.296875 249.230469 76.890625 248.449219 77.574219 C 247.351562 78.542969 245.171875 80.121094 241.964844 82.265625 C 241.578125 82.519531 241.183594 82.78125 240.777344 83.054688 L 239.800781 83.695312 C 239.292969 84.023438 238.824219 84.328125 238.355469 84.632812 C 235.050781 86.769531 231.199219 89.183594 227.492188 91.433594 L 225.164062 92.839844 C 224.695312 93.117188 224.226562 93.40625 223.761719 93.679688 C 214.140625 99.386719 213.28125 99.386719 212.527344 99.386719 " fill-opacity="1" fill-rule="nonzero"/><path fill="#444648" d="M 238.636719 60.164062 C 237.085938 60.164062 235.617188 60.707031 234.496094 61.699219 C 233.847656 62.265625 232.558594 63.523438 228.851562 67.847656 C 228.589844 68.148438 228.3125 68.480469 228.03125 68.808594 L 227.925781 68.9375 L 227.394531 69.5625 L 227.121094 69.882812 C 226.761719 70.300781 226.410156 70.730469 226.039062 71.164062 C 223.449219 74.261719 220.554688 77.796875 217.890625 81.132812 L 217.585938 81.519531 L 216.980469 82.28125 L 216.40625 82.996094 L 216.199219 83.257812 C 215.847656 83.703125 215.503906 84.140625 215.175781 84.566406 C 213.042969 87.285156 211.355469 89.503906 210.171875 91.15625 C 209.484375 92.117188 208.96875 92.871094 208.605469 93.472656 C 206.574219 96.824219 207.828125 99.101562 208.746094 100.152344 C 209.695312 101.226562 211.074219 101.851562 212.527344 101.851562 C 213.902344 101.851562 214.8125 101.851562 225.015625 95.804688 C 225.480469 95.527344 225.957031 95.238281 226.433594 94.953125 C 226.746094 94.761719 227.074219 94.566406 227.410156 94.367188 L 227.515625 94.300781 L 227.941406 94.046875 C 228.214844 93.875 228.492188 93.710938 228.769531 93.546875 C 232.484375 91.277344 236.363281 88.855469 239.675781 86.710938 C 240.167969 86.390625 240.636719 86.09375 241.09375 85.789062 L 241.136719 85.757812 L 242.128906 85.109375 C 242.546875 84.835938 242.949219 84.574219 243.332031 84.3125 C 246.671875 82.078125 248.886719 80.484375 250.074219 79.421875 C 251.082031 78.535156 253.257812 75.972656 251.550781 71.460938 C 250.105469 67.625 244.234375 60.164062 238.636719 60.164062 Z M 238.636719 65.09375 C 241.882812 65.09375 249.089844 73.71875 246.820312 75.726562 C 245.753906 76.671875 243.480469 78.289062 240.601562 80.210938 C 240.21875 80.464844 239.824219 80.730469 239.421875 80.992188 C 239.085938 81.214844 238.742188 81.445312 238.398438 81.664062 C 237.945312 81.96875 237.480469 82.265625 237.011719 82.570312 C 233.617188 84.761719 229.804688 87.144531 226.210938 89.332031 C 225.800781 89.585938 225.390625 89.832031 224.980469 90.078125 L 223.898438 90.71875 C 223.433594 91.007812 222.964844 91.285156 222.503906 91.558594 C 217.296875 94.648438 213.175781 96.921875 212.527344 96.921875 L 212.445312 96.898438 C 212.191406 96.601562 215.09375 92.640625 219.046875 87.605469 C 219.375 87.1875 219.710938 86.757812 220.054688 86.324219 C 220.308594 86.003906 220.570312 85.667969 220.832031 85.339844 C 221.128906 84.96875 221.429688 84.589844 221.734375 84.210938 C 224.367188 80.917969 227.230469 77.417969 229.8125 74.335938 C 230.171875 73.902344 230.523438 73.480469 230.871094 73.070312 C 231.140625 72.75 231.402344 72.4375 231.664062 72.136719 C 231.984375 71.765625 232.289062 71.402344 232.582031 71.058594 C 234.976562 68.273438 236.871094 66.167969 237.742188 65.398438 C 237.988281 65.183594 238.28125 65.09375 238.636719 65.09375 " fill-opacity="1" fill-rule="nonzero"/><path fill="#f4cc16" d="M 274.820312 135.285156 C 273.609375 135.285156 270.933594 134.996094 266.882812 134.421875 L 265.472656 134.226562 L 262.605469 133.804688 C 258.628906 133.199219 254.140625 132.457031 249.96875 131.726562 C 249.96875 131.726562 247.710938 131.324219 247.304688 131.25 L 245.738281 130.972656 C 242.324219 130.339844 239.636719 129.796875 237.691406 129.34375 C 234.625 128.636719 232.601562 128.175781 232.601562 125.933594 C 232.601562 123.707031 234.617188 123.230469 237.667969 122.507812 C 239.621094 122.054688 242.382812 121.480469 245.671875 120.855469 C 246.203125 120.757812 248.523438 120.324219 248.523438 120.324219 L 249.953125 120.066406 C 254.199219 119.3125 258.683594 118.566406 262.585938 117.980469 C 263.136719 117.898438 263.6875 117.816406 264.226562 117.734375 L 265.449219 117.5625 C 265.941406 117.488281 266.410156 117.429688 266.867188 117.363281 C 270.679688 116.847656 273.363281 116.59375 274.820312 116.59375 C 277.9375 116.59375 279.792969 120.085938 279.792969 125.933594 C 279.792969 131.785156 277.9375 135.285156 274.820312 135.285156 " fill-opacity="1" fill-rule="nonzero"/><g clip-path="url(#id2)"><path fill="#444648" d="M 274.820312 114.128906 C 273.222656 114.128906 270.515625 114.382812 266.539062 114.925781 C 266.082031 114.980469 265.605469 115.046875 265.113281 115.121094 C 264.703125 115.179688 264.292969 115.238281 263.867188 115.292969 C 263.332031 115.375 262.777344 115.457031 262.210938 115.542969 C 258.300781 116.132812 253.789062 116.871094 249.515625 117.644531 L 248.640625 117.800781 L 248.105469 117.898438 L 247.902344 117.933594 L 246.828125 118.128906 C 246.292969 118.226562 245.746094 118.335938 245.210938 118.433594 C 241.890625 119.066406 239.085938 119.648438 237.109375 120.109375 C 235.953125 120.378906 235.078125 120.617188 234.421875 120.824219 C 230.699219 122.007812 230.140625 124.53125 230.140625 125.933594 C 230.140625 127.339844 230.699219 129.878906 234.445312 131.046875 C 235.101562 131.25 235.988281 131.488281 237.144531 131.75 C 239.117188 132.203125 241.839844 132.753906 245.246094 133.378906 L 245.285156 133.394531 C 245.800781 133.484375 246.335938 133.582031 246.867188 133.683594 C 247.277344 133.757812 247.695312 133.832031 248.132812 133.902344 L 248.507812 133.96875 L 249.558594 134.160156 C 253.730469 134.890625 258.242188 135.628906 262.234375 136.238281 C 262.800781 136.328125 263.351562 136.402344 263.890625 136.484375 C 264.300781 136.550781 264.710938 136.605469 265.121094 136.664062 C 265.605469 136.738281 266.082031 136.804688 266.539062 136.871094 C 272.164062 137.652344 273.960938 137.75 274.820312 137.75 C 276.570312 137.75 282.25 136.894531 282.25 125.933594 C 282.25 114.972656 276.570312 114.128906 274.820312 114.128906 Z M 274.820312 119.058594 C 278.167969 119.058594 278.167969 132.820312 274.820312 132.820312 C 273.667969 132.820312 270.851562 132.492188 267.222656 131.988281 C 266.769531 131.925781 266.300781 131.859375 265.820312 131.785156 C 265.425781 131.726562 265.023438 131.667969 264.605469 131.605469 C 264.070312 131.53125 263.53125 131.449219 262.972656 131.367188 C 259.003906 130.757812 254.550781 130.035156 250.394531 129.304688 C 249.917969 129.222656 249.441406 129.128906 248.976562 129.046875 C 248.566406 128.984375 248.148438 128.902344 247.746094 128.828125 C 247.203125 128.726562 246.664062 128.628906 246.136719 128.539062 C 239.855469 127.371094 235.058594 126.320312 235.058594 125.933594 C 235.058594 125.546875 239.839844 124.472656 246.128906 123.28125 C 246.65625 123.183594 247.1875 123.074219 247.730469 122.976562 C 248.140625 122.902344 248.550781 122.828125 248.96875 122.746094 C 249.433594 122.664062 249.910156 122.582031 250.386719 122.492188 C 254.519531 121.753906 258.957031 121.011719 262.949219 120.414062 C 263.496094 120.332031 264.046875 120.25 264.582031 120.175781 C 264.992188 120.117188 265.398438 120.058594 265.792969 120.003906 C 266.269531 119.9375 266.738281 119.871094 267.195312 119.804688 C 270.632812 119.34375 273.394531 119.058594 274.820312 119.058594 " fill-opacity="1" fill-rule="nonzero"/></g><path fill="#f4cc16" d="M 99.964844 135.285156 C 96.847656 135.285156 94.992188 131.785156 94.992188 125.933594 C 94.992188 123.878906 95.257812 121.933594 95.742188 120.4375 C 96.832031 117.085938 98.847656 116.59375 99.964844 116.59375 C 101.421875 116.59375 104.105469 116.847656 107.917969 117.363281 L 109.328125 117.5625 L 110.558594 117.734375 C 111.089844 117.816406 111.648438 117.898438 112.207031 117.980469 C 116.101562 118.566406 120.585938 119.3125 124.835938 120.066406 L 127.507812 120.554688 C 128.050781 120.652344 128.589844 120.757812 129.113281 120.855469 C 132.402344 121.480469 135.167969 122.054688 137.117188 122.507812 C 140.167969 123.230469 142.1875 123.707031 142.1875 125.933594 C 142.1875 128.175781 140.160156 128.636719 137.09375 129.34375 C 135.148438 129.796875 132.460938 130.339844 129.089844 130.960938 L 125.835938 131.546875 L 124.808594 131.726562 C 120.636719 132.457031 116.152344 133.199219 112.183594 133.804688 L 109.320312 134.226562 L 107.902344 134.421875 C 103.851562 134.996094 101.175781 135.285156 99.964844 135.285156 " fill-opacity="1" fill-rule="nonzero"/><g clip-path="url(#id3)"><path fill="#444648" d="M 99.964844 114.128906 C 98.226562 114.128906 92.53125 114.972656 92.53125 125.933594 C 92.53125 127.570312 92.683594 129.976562 93.402344 132.1875 C 95.078125 137.347656 98.847656 137.75 99.964844 137.75 C 100.824219 137.75 102.621094 137.652344 108.246094 136.871094 C 108.703125 136.804688 109.171875 136.738281 109.664062 136.664062 L 109.761719 136.648438 L 110.902344 136.484375 C 111.433594 136.402344 111.984375 136.328125 112.542969 136.238281 C 116.535156 135.628906 121.046875 134.890625 125.234375 134.160156 L 126.269531 133.976562 L 126.664062 133.902344 C 127.082031 133.832031 127.507812 133.757812 127.925781 133.675781 C 128.417969 133.582031 128.917969 133.5 129.402344 133.410156 L 129.53125 133.386719 C 132.945312 132.753906 135.667969 132.203125 137.644531 131.75 C 138.800781 131.480469 139.683594 131.25 140.339844 131.046875 C 144.089844 129.878906 144.644531 127.339844 144.644531 125.933594 C 144.644531 124.53125 144.089844 122.007812 140.367188 120.824219 C 139.710938 120.617188 138.832031 120.378906 137.675781 120.109375 C 135.691406 119.648438 132.894531 119.066406 129.574219 118.433594 C 129.042969 118.335938 128.5 118.234375 127.949219 118.128906 L 126.703125 117.898438 L 126.195312 117.808594 L 125.261719 117.636719 C 120.996094 116.871094 116.488281 116.132812 112.566406 115.542969 C 112.007812 115.457031 111.453125 115.375 110.902344 115.292969 L 109.671875 115.121094 C 109.179688 115.046875 108.703125 114.980469 108.246094 114.925781 C 104.269531 114.382812 101.5625 114.128906 99.964844 114.128906 Z M 99.964844 119.058594 C 101.390625 119.058594 104.152344 119.34375 107.589844 119.804688 C 108.050781 119.871094 108.515625 119.9375 108.984375 120.003906 C 109.386719 120.058594 109.796875 120.117188 110.207031 120.175781 C 110.738281 120.25 111.289062 120.332031 111.835938 120.414062 C 115.832031 121.011719 120.265625 121.753906 124.398438 122.492188 C 124.875 122.582031 125.351562 122.664062 125.820312 122.746094 C 126.238281 122.828125 126.648438 122.902344 127.058594 122.976562 C 127.597656 123.074219 128.132812 123.183594 128.65625 123.28125 C 134.945312 124.472656 139.726562 125.546875 139.726562 125.933594 C 139.726562 126.320312 134.929688 127.371094 128.648438 128.539062 C 128.121094 128.628906 127.589844 128.726562 127.039062 128.828125 C 126.636719 128.902344 126.21875 128.984375 125.800781 129.046875 C 125.34375 129.128906 124.867188 129.222656 124.390625 129.304688 C 120.234375 130.035156 115.78125 130.757812 111.8125 131.367188 C 111.253906 131.449219 110.714844 131.53125 110.179688 131.605469 C 109.761719 131.667969 109.359375 131.726562 108.96875 131.785156 C 108.484375 131.859375 108.015625 131.925781 107.566406 131.988281 C 103.933594 132.492188 101.121094 132.820312 99.964844 132.820312 C 96.617188 132.820312 96.617188 119.058594 99.964844 119.058594 " fill-opacity="1" fill-rule="nonzero"/></g><path fill="#92afc9" d="M 140.472656 241.289062 C 125.882812 241.289062 125.808594 230.109375 125.671875 207.824219 L 125.664062 206.714844 C 125.664062 206.058594 125.917969 205.425781 126.382812 204.964844 C 126.84375 204.496094 127.464844 204.234375 128.121094 204.234375 L 246.664062 204.234375 C 247.320312 204.234375 247.941406 204.496094 248.402344 204.964844 C 248.867188 205.425781 249.125 206.058594 249.125 206.714844 L 249.113281 207.824219 C 248.976562 230.109375 248.902344 241.289062 234.3125 241.289062 L 140.472656 241.289062 " fill-opacity="1" fill-rule="nonzero"/><g clip-path="url(#id4)"><path fill="#444648" d="M 246.664062 201.769531 L 128.121094 201.769531 C 126.820312 201.769531 125.554688 202.296875 124.636719 203.222656 C 123.710938 204.160156 123.195312 205.417969 123.203125 206.734375 L 123.210938 207.84375 C 123.285156 219.609375 123.332031 227.371094 125.105469 233.066406 C 127.335938 240.261719 132.363281 243.753906 140.472656 243.753906 L 234.3125 243.753906 C 242.421875 243.753906 247.449219 240.261719 249.679688 233.066406 C 251.453125 227.371094 251.5 219.609375 251.574219 207.84375 L 251.582031 206.871094 L 251.582031 206.699219 C 251.582031 203.980469 249.386719 201.769531 246.664062 201.769531 M 246.664062 206.699219 C 246.515625 229.597656 246.664062 238.824219 234.3125 238.824219 L 140.472656 238.824219 C 128.121094 238.824219 128.269531 229.597656 128.121094 206.699219 L 246.664062 206.699219 " fill-opacity="1" fill-rule="nonzero"/></g><path fill="#5c85a8" d="M 234.3125 238.824219 L 140.316406 238.824219 C 132.878906 238.785156 130.042969 235.308594 128.917969 227.445312 C 133.730469 228.867188 138.789062 229.640625 144.007812 229.640625 C 162.0625 229.640625 178.308594 220.519531 188.359375 206.699219 L 246.664062 206.699219 C 246.515625 229.597656 246.664062 238.824219 234.3125 238.824219 " fill-opacity="1" fill-rule="nonzero"/><path fill="#283139" d="M 234.3125 238.824219 L 140.472656 238.824219 L 234.3125 238.824219 C 246.664062 238.824219 246.515625 229.597656 246.664062 206.699219 C 246.515625 229.597656 246.664062 238.824219 234.3125 238.824219 M 140.457031 238.824219 L 140.449219 238.824219 L 140.457031 238.824219 M 140.429688 238.824219 L 140.421875 238.824219 L 140.429688 238.824219 M 140.390625 238.824219 L 140.382812 238.824219 L 140.390625 238.824219 M 140.339844 238.824219 L 140.332031 238.824219 L 140.339844 238.824219 " fill-opacity="1" fill-rule="nonzero"/><path fill="#444648" d="M 127.875 219.277344 L 196.488281 219.277344 C 197.847656 219.277344 198.945312 218.179688 198.945312 216.8125 C 198.945312 215.449219 197.847656 214.347656 196.488281 214.347656 L 127.875 214.347656 C 126.515625 214.347656 125.417969 215.449219 125.417969 216.8125 C 125.417969 218.179688 126.515625 219.277344 127.875 219.277344 " fill-opacity="1" fill-rule="nonzero"/><g fill="#ffffff" fill-opacity="1"><g transform="translate(71.917969, 314.755175)"><g><path d="M 10.359375 -19.53125 L 11.71875 -19.53125 C 12.84375 -19.53125 13.660156 -19.878906 14.171875 -20.578125 L 22.578125 -31.84375 C 22.972656 -32.375 23.40625 -32.742188 23.875 -32.953125 C 24.351562 -33.160156 24.9375 -33.265625 25.625 -33.265625 L 31.59375 -33.265625 L 21 -19.625 C 20.3125 -18.738281 19.597656 -18.101562 18.859375 -17.71875 C 19.398438 -17.5 19.882812 -17.21875 20.3125 -16.875 C 20.738281 -16.53125 21.148438 -16.078125 21.546875 -15.515625 L 32.40625 0 L 26.296875 0 C 25.898438 0 25.554688 -0.03125 25.265625 -0.09375 C 24.984375 -0.15625 24.734375 -0.238281 24.515625 -0.34375 C 24.304688 -0.445312 24.125 -0.578125 23.96875 -0.734375 C 23.820312 -0.898438 23.679688 -1.09375 23.546875 -1.3125 L 14.984375 -13.265625 C 14.703125 -13.679688 14.359375 -13.976562 13.953125 -14.15625 C 13.554688 -14.332031 13 -14.421875 12.28125 -14.421875 L 10.359375 -14.421875 L 10.359375 0 L 3.484375 0 L 3.484375 -33.265625 L 10.359375 -33.265625 Z M 10.359375 -19.53125 "/></g></g></g><g fill="#ffffff" fill-opacity="1"><g transform="translate(103.771314, 314.755175)"><g><path d="M 31.96875 -33.265625 L 31.96875 0 L 25.046875 0 L 25.046875 -14.328125 L 10.40625 -14.328125 L 10.40625 0 L 3.484375 0 L 3.484375 -33.265625 L 10.40625 -33.265625 L 10.40625 -19.140625 L 25.046875 -19.140625 L 25.046875 -33.265625 Z M 31.96875 -33.265625 "/></g></g></g><g fill="#ffffff" fill-opacity="1"><g transform="translate(139.222488, 314.755175)"><g><path d="M 24.984375 0 L 21.046875 -10.125 L 8.0625 -10.125 L 4.171875 0 L 0 0 L 12.796875 -32.875 L 16.5 -32.875 L 29.25 0 Z M 19.796875 -13.796875 L 16.140625 -23.703125 C 16.046875 -23.941406 15.890625 -24.382812 15.671875 -25.03125 C 15.460938 -25.675781 15.257812 -26.34375 15.0625 -27.03125 C 14.863281 -27.71875 14.703125 -28.242188 14.578125 -28.609375 C 14.335938 -27.660156 14.085938 -26.734375 13.828125 -25.828125 C 13.566406 -24.929688 13.34375 -24.222656 13.15625 -23.703125 L 9.4375 -13.796875 Z M 20.84375 -47.9375 C 22.25 -47.9375 23.332031 -47.675781 24.09375 -47.15625 C 24.863281 -46.632812 25.25 -45.835938 25.25 -44.765625 C 25.25 -43.878906 24.972656 -43.210938 24.421875 -42.765625 C 23.867188 -42.328125 23.195312 -42.015625 22.40625 -41.828125 L 22.265625 -40.046875 L 20.390625 -40.046875 L 20.15625 -42.9375 C 21.039062 -43.050781 21.710938 -43.226562 22.171875 -43.46875 C 22.628906 -43.71875 22.859375 -44.117188 22.859375 -44.671875 C 22.859375 -45.191406 22.648438 -45.550781 22.234375 -45.75 C 21.828125 -45.945312 21.304688 -46.046875 20.671875 -46.046875 C 19.960938 -46.046875 19.425781 -46 19.0625 -45.90625 L 19.0625 -47.796875 C 19.425781 -47.890625 20.019531 -47.9375 20.84375 -47.9375 Z M 16.53125 -42.203125 C 17.238281 -41.160156 18.023438 -40.132812 18.890625 -39.125 C 19.765625 -38.113281 20.601562 -37.179688 21.40625 -36.328125 L 21.40625 -35.78125 L 19.15625 -35.78125 C 18.382812 -36.269531 17.601562 -36.832031 16.8125 -37.46875 C 16.019531 -38.113281 15.226562 -38.789062 14.4375 -39.5 C 13.632812 -38.789062 12.835938 -38.113281 12.046875 -37.46875 C 11.253906 -36.832031 10.472656 -36.269531 9.703125 -35.78125 L 7.46875 -35.78125 L 7.46875 -36.328125 C 8.226562 -37.179688 9.050781 -38.113281 9.9375 -39.125 C 10.820312 -40.132812 11.617188 -41.160156 12.328125 -42.203125 Z M 16.53125 -42.203125 "/></g></g></g><g fill="#ffffff" fill-opacity="1"><g transform="translate(168.509118, 314.755175)"><g><path d="M 31.96875 -33.265625 L 31.96875 0 L 28.421875 0 C 27.890625 0 27.4375 -0.0859375 27.0625 -0.265625 C 26.695312 -0.441406 26.34375 -0.742188 26 -1.171875 L 9.421875 -22.25 C 9.460938 -21.71875 9.492188 -21.191406 9.515625 -20.671875 C 9.546875 -20.148438 9.5625 -19.671875 9.5625 -19.234375 L 9.5625 0 L 3.484375 0 L 3.484375 -33.265625 L 7.109375 -33.265625 C 7.398438 -33.265625 7.644531 -33.25 7.84375 -33.21875 C 8.050781 -33.195312 8.238281 -33.144531 8.40625 -33.0625 C 8.582031 -32.976562 8.742188 -32.867188 8.890625 -32.734375 C 9.046875 -32.597656 9.210938 -32.414062 9.390625 -32.1875 L 26.078125 -11 C 26.023438 -11.582031 25.984375 -12.144531 25.953125 -12.6875 C 25.921875 -13.226562 25.90625 -13.742188 25.90625 -14.234375 L 25.90625 -33.265625 Z M 31.96875 -33.265625 "/></g></g></g><g fill="#ffffff" fill-opacity="1"><g transform="translate(203.960291, 314.755175)"><g/></g></g><g fill="#ffffff" fill-opacity="1"><g transform="translate(214.84543, 314.755175)"><g><path d="M 26.125 -8.1875 C 26.507812 -8.1875 26.832031 -8.046875 27.09375 -7.765625 L 29.828125 -4.859375 C 28.472656 -3.148438 26.800781 -1.851562 24.8125 -0.96875 C 22.820312 -0.0820312 20.453125 0.359375 17.703125 0.359375 C 15.203125 0.359375 12.957031 -0.0625 10.96875 -0.90625 C 8.988281 -1.75 7.300781 -2.925781 5.90625 -4.4375 C 4.519531 -5.957031 3.453125 -7.753906 2.703125 -9.828125 C 1.953125 -11.910156 1.578125 -14.179688 1.578125 -16.640625 C 1.578125 -18.285156 1.753906 -19.851562 2.109375 -21.34375 C 2.472656 -22.84375 3 -24.21875 3.6875 -25.46875 C 4.375 -26.71875 5.203125 -27.847656 6.171875 -28.859375 C 7.148438 -29.867188 8.25 -30.726562 9.46875 -31.4375 C 10.6875 -32.144531 12.015625 -32.6875 13.453125 -33.0625 C 14.898438 -33.4375 16.441406 -33.625 18.078125 -33.625 C 19.304688 -33.625 20.46875 -33.515625 21.5625 -33.296875 C 22.65625 -33.085938 23.675781 -32.789062 24.625 -32.40625 C 25.570312 -32.03125 26.445312 -31.566406 27.25 -31.015625 C 28.050781 -30.472656 28.769531 -29.882812 29.40625 -29.25 L 27.09375 -26.078125 C 26.957031 -25.878906 26.78125 -25.703125 26.5625 -25.546875 C 26.351562 -25.398438 26.066406 -25.328125 25.703125 -25.328125 C 25.328125 -25.328125 24.953125 -25.457031 24.578125 -25.71875 C 24.203125 -25.976562 23.742188 -26.269531 23.203125 -26.59375 C 22.660156 -26.914062 21.976562 -27.203125 21.15625 -27.453125 C 20.34375 -27.710938 19.3125 -27.84375 18.0625 -27.84375 C 16.664062 -27.84375 15.390625 -27.59375 14.234375 -27.09375 C 13.078125 -26.59375 12.082031 -25.863281 11.25 -24.90625 C 10.414062 -23.945312 9.769531 -22.769531 9.3125 -21.375 C 8.851562 -19.988281 8.625 -18.410156 8.625 -16.640625 C 8.625 -14.847656 8.867188 -13.253906 9.359375 -11.859375 C 9.859375 -10.460938 10.539062 -9.28125 11.40625 -8.3125 C 12.269531 -7.351562 13.273438 -6.625 14.421875 -6.125 C 15.578125 -5.632812 16.8125 -5.390625 18.125 -5.390625 C 18.90625 -5.390625 19.613281 -5.425781 20.25 -5.5 C 20.882812 -5.570312 21.472656 -5.703125 22.015625 -5.890625 C 22.554688 -6.078125 23.066406 -6.3125 23.546875 -6.59375 C 24.035156 -6.882812 24.519531 -7.253906 25 -7.703125 C 25.175781 -7.835938 25.351562 -7.953125 25.53125 -8.046875 C 25.71875 -8.140625 25.914062 -8.1875 26.125 -8.1875 Z M 26.125 -8.1875 "/></g></g></g><g fill="#ffffff" fill-opacity="1"><g transform="translate(245.048827, 314.755175)"><g><path d="M 24.984375 0 L 21.046875 -10.125 L 8.0625 -10.125 L 4.171875 0 L 0 0 L 12.796875 -32.875 L 16.5 -32.875 L 29.25 0 Z M 19.796875 -13.796875 L 16.140625 -23.703125 C 16.046875 -23.941406 15.890625 -24.382812 15.671875 -25.03125 C 15.460938 -25.675781 15.257812 -26.34375 15.0625 -27.03125 C 14.863281 -27.71875 14.703125 -28.242188 14.578125 -28.609375 C 14.335938 -27.660156 14.085938 -26.734375 13.828125 -25.828125 C 13.566406 -24.929688 13.34375 -24.222656 13.15625 -23.703125 L 9.4375 -13.796875 Z M 19.609375 -40.6875 C 20.191406 -41.445312 20.6875 -42.148438 21.09375 -42.796875 C 21.507812 -43.441406 21.960938 -44.25 22.453125 -45.21875 L 26.484375 -45.21875 L 26.484375 -44.765625 C 25.816406 -43.878906 25.082031 -43.046875 24.28125 -42.265625 C 23.488281 -41.484375 22.695312 -40.773438 21.90625 -40.140625 L 19.609375 -40.140625 Z M 21.40625 -35.78125 L 19.15625 -35.78125 C 18.382812 -36.269531 17.601562 -36.832031 16.8125 -37.46875 C 16.019531 -38.113281 15.226562 -38.789062 14.4375 -39.5 C 13.632812 -38.789062 12.835938 -38.113281 12.046875 -37.46875 C 11.253906 -36.832031 10.472656 -36.269531 9.703125 -35.78125 L 7.46875 -35.78125 L 7.46875 -36.328125 C 8.226562 -37.179688 9.050781 -38.113281 9.9375 -39.125 C 10.820312 -40.132812 11.617188 -41.160156 12.328125 -42.203125 L 16.53125 -42.203125 C 17.238281 -41.160156 18.023438 -40.132812 18.890625 -39.125 C 19.765625 -38.113281 20.601562 -37.179688 21.40625 -36.328125 Z M 21.40625 -35.78125 "/></g></g></g><g fill="#ffffff" fill-opacity="1"><g transform="translate(274.335463, 314.755175)"><g><path d="M 14.71875 -16.703125 C 16.875 -16.703125 18.453125 -17.222656 19.453125 -18.265625 C 20.453125 -19.304688 20.953125 -20.726562 20.953125 -22.53125 C 20.953125 -23.351562 20.820312 -24.101562 20.5625 -24.78125 C 20.3125 -25.46875 19.929688 -26.050781 19.421875 -26.53125 C 18.910156 -27.007812 18.265625 -27.378906 17.484375 -27.640625 C 16.710938 -27.898438 15.789062 -28.03125 14.71875 -28.03125 L 10.359375 -28.03125 L 10.359375 -16.703125 Z M 14.71875 -33.265625 C 16.988281 -33.265625 18.953125 -32.992188 20.609375 -32.453125 C 22.273438 -31.921875 23.640625 -31.175781 24.703125 -30.21875 C 25.773438 -29.269531 26.566406 -28.132812 27.078125 -26.8125 C 27.585938 -25.5 27.84375 -24.070312 27.84375 -22.53125 C 27.84375 -20.894531 27.578125 -19.394531 27.046875 -18.03125 C 26.515625 -16.675781 25.703125 -15.507812 24.609375 -14.53125 C 23.523438 -13.550781 22.160156 -12.789062 20.515625 -12.25 C 18.867188 -11.707031 16.9375 -11.4375 14.71875 -11.4375 L 10.359375 -11.4375 L 10.359375 0 L 3.484375 0 L 3.484375 -33.265625 Z M 14.71875 -33.265625 "/></g></g></g></svg>