<svg xmlns="http://www.w3.org/2000/svg" xmlns:xlink="http://www.w3.org/1999/xlink" width="500" zoomAndPan="magnify" viewBox="0 0 375 374.999991" height="500" preserveAspectRatio="xMidYMid meet" version="1.0"><defs><g/><clipPath id="id1"><path d="M 90.417969 172 L 173 172 L 173 247.5 L 90.417969 247.5 Z M 90.417969 172 " clip-rule="nonzero"/></clipPath><clipPath id="id2"><path d="M 187 172 L 270.417969 172 L 270.417969 247.5 L 187 247.5 Z M 187 172 " clip-rule="nonzero"/></clipPath></defs><rect x="-37.5" width="450" fill="#ffffff" y="-37.499999" height="449.999989" fill-opacity="1"/><rect x="-37.5" width="450" fill="#008037" y="-37.499999" height="449.999989" fill-opacity="1"/><path fill="#00a0c8" d="M 255.121094 124.789062 L 255.121094 213.871094 C 255.121094 215.925781 253.441406 217.605469 251.386719 217.605469 L 109.449219 217.605469 C 107.394531 217.605469 105.714844 215.925781 105.714844 213.871094 L 105.714844 124.824219 L 180.679688 50.09375 Z M 255.121094 124.789062 " fill-opacity="1" fill-rule="nonzero"/><path fill="#0082aa" d="M 221.503906 139.136719 L 217.769531 139.136719 L 217.769531 135.398438 C 217.769531 133.335938 219.445312 131.664062 221.503906 131.664062 C 223.566406 131.664062 225.242188 133.335938 225.242188 135.398438 C 225.242188 137.464844 223.566406 139.136719 221.503906 139.136719 Z M 221.503906 139.136719 " fill-opacity="1" fill-rule="nonzero"/><path fill="#0082aa" d="M 217.769531 165.292969 L 217.769531 161.558594 L 221.503906 161.558594 C 223.566406 161.558594 225.242188 163.230469 225.242188 165.292969 C 225.242188 167.355469 223.566406 169.03125 221.503906 169.03125 C 219.445312 169.03125 217.769531 167.355469 217.769531 165.292969 Z M 217.769531 165.292969 " fill-opacity="1" fill-rule="nonzero"/><path fill="#0082aa" d="M 226.335938 152.988281 L 223.695312 150.347656 L 226.335938 147.707031 C 227.796875 146.242188 230.160156 146.242188 231.617188 147.707031 C 233.078125 149.167969 233.078125 151.53125 231.617188 152.988281 C 230.160156 154.449219 227.792969 154.449219 226.335938 152.988281 Z M 226.335938 152.988281 " fill-opacity="1" fill-rule="nonzero"/><path fill="#0082aa" d="M 139.332031 161.558594 L 143.066406 161.558594 L 143.066406 165.292969 C 143.066406 167.355469 141.394531 169.03125 139.332031 169.03125 C 137.269531 169.03125 135.597656 167.355469 135.597656 165.292969 C 135.597656 163.230469 137.269531 161.558594 139.332031 161.558594 Z M 139.332031 161.558594 " fill-opacity="1" fill-rule="nonzero"/><path fill="#0082aa" d="M 143.066406 135.398438 L 143.066406 139.136719 L 139.332031 139.136719 C 137.269531 139.136719 135.597656 137.464844 135.597656 135.398438 C 135.597656 133.335938 137.269531 131.664062 139.332031 131.664062 C 141.394531 131.664062 143.066406 133.335938 143.066406 135.398438 Z M 143.066406 135.398438 " fill-opacity="1" fill-rule="nonzero"/><path fill="#0082aa" d="M 134.5 147.707031 L 137.140625 150.347656 L 134.5 152.988281 C 133.039062 154.449219 130.675781 154.449219 129.21875 152.988281 C 127.757812 151.527344 127.757812 149.164062 129.21875 147.707031 C 130.675781 146.242188 133.042969 146.242188 134.5 147.707031 Z M 134.5 147.707031 " fill-opacity="1" fill-rule="nonzero"/><path fill="#0082aa" d="M 202.828125 124.191406 L 202.828125 116.71875 L 158.007812 116.71875 L 158.007812 124.191406 C 153.878906 124.191406 150.535156 127.535156 150.535156 131.664062 C 150.535156 135.792969 153.878906 139.136719 158.007812 139.136719 C 158.007812 151.519531 168.039062 161.558594 180.417969 161.558594 C 192.796875 161.558594 202.828125 151.519531 202.828125 139.136719 C 206.957031 139.136719 210.300781 135.792969 210.300781 131.664062 C 210.300781 127.535156 206.957031 124.191406 202.828125 124.191406 Z M 202.828125 124.191406 " fill-opacity="1" fill-rule="nonzero"/><path fill="#c80a50" d="M 214.035156 180.238281 L 214.035156 220.707031 L 146.800781 220.707031 L 146.800781 180.238281 C 146.800781 167.855469 156.835938 157.820312 169.210938 157.820312 L 191.625 157.820312 C 204.003906 157.820312 214.035156 167.855469 214.035156 180.238281 Z M 214.035156 180.238281 " fill-opacity="1" fill-rule="nonzero"/><path fill="#f0c8a0" d="M 202.828125 120.453125 L 202.828125 112.980469 L 158.007812 112.980469 L 158.007812 120.453125 C 153.878906 120.453125 150.535156 123.796875 150.535156 127.925781 C 150.535156 132.054688 153.878906 135.398438 158.007812 135.398438 C 158.007812 147.785156 168.039062 157.820312 180.417969 157.820312 C 192.796875 157.820312 202.828125 147.785156 202.828125 135.398438 C 206.957031 135.398438 210.300781 132.054688 210.300781 127.925781 C 210.300781 123.796875 206.957031 120.453125 202.828125 120.453125 Z M 202.828125 120.453125 " fill-opacity="1" fill-rule="nonzero"/><path fill="#00325a" d="M 180.417969 97.632812 C 176.289062 97.632812 172.949219 100.976562 172.949219 105.105469 C 172.949219 100.566406 168.902344 96.976562 164.222656 97.734375 C 160.550781 98.332031 158.007812 101.785156 158.007812 105.507812 L 158.007812 135.398438 C 162.132812 135.398438 165.476562 132.054688 165.476562 127.925781 L 165.476562 116.71875 C 165.476562 114.65625 167.152344 112.980469 169.210938 112.980469 L 191.625 112.980469 C 193.683594 112.980469 195.359375 114.65625 195.359375 116.71875 L 195.359375 127.925781 C 195.359375 132.054688 198.703125 135.398438 202.828125 135.398438 L 202.828125 101.371094 C 202.828125 99.308594 201.15625 97.632812 199.09375 97.632812 Z M 180.417969 97.632812 " fill-opacity="1" fill-rule="nonzero"/><path fill="#00325a" d="M 172.949219 125.660156 C 172.949219 125.90625 172.898438 126.144531 172.804688 126.375 C 172.710938 126.601562 172.574219 126.804688 172.402344 126.980469 C 172.226562 127.15625 172.023438 127.289062 171.792969 127.386719 C 171.566406 127.480469 171.328125 127.527344 171.082031 127.527344 C 170.832031 127.527344 170.59375 127.480469 170.367188 127.386719 C 170.136719 127.289062 169.933594 127.15625 169.757812 126.980469 C 169.585938 126.804688 169.449219 126.601562 169.355469 126.375 C 169.261719 126.144531 169.210938 125.90625 169.210938 125.660156 C 169.210938 125.410156 169.261719 125.171875 169.355469 124.945312 C 169.449219 124.714844 169.585938 124.511719 169.757812 124.335938 C 169.933594 124.164062 170.136719 124.027344 170.367188 123.933594 C 170.59375 123.839844 170.832031 123.789062 171.082031 123.789062 C 171.328125 123.789062 171.566406 123.839844 171.792969 123.933594 C 172.023438 124.027344 172.226562 124.164062 172.402344 124.335938 C 172.574219 124.511719 172.710938 124.714844 172.804688 124.945312 C 172.898438 125.171875 172.949219 125.410156 172.949219 125.660156 Z M 172.949219 125.660156 " fill-opacity="1" fill-rule="nonzero"/><path fill="#00325a" d="M 191.625 125.660156 C 191.625 125.90625 191.578125 126.144531 191.480469 126.375 C 191.386719 126.601562 191.25 126.804688 191.078125 126.980469 C 190.902344 127.15625 190.699219 127.289062 190.472656 127.386719 C 190.242188 127.480469 190.003906 127.527344 189.757812 127.527344 C 189.507812 127.527344 189.269531 127.480469 189.042969 127.386719 C 188.8125 127.289062 188.609375 127.15625 188.433594 126.980469 C 188.261719 126.804688 188.125 126.601562 188.03125 126.375 C 187.9375 126.144531 187.886719 125.90625 187.886719 125.660156 C 187.886719 125.410156 187.9375 125.171875 188.03125 124.945312 C 188.125 124.714844 188.261719 124.511719 188.433594 124.335938 C 188.609375 124.164062 188.8125 124.027344 189.042969 123.933594 C 189.269531 123.839844 189.507812 123.789062 189.757812 123.789062 C 190.003906 123.789062 190.242188 123.839844 190.472656 123.933594 C 190.699219 124.027344 190.902344 124.164062 191.078125 124.335938 C 191.25 124.511719 191.386719 124.714844 191.480469 124.945312 C 191.578125 125.171875 191.625 125.410156 191.625 125.660156 Z M 191.625 125.660156 " fill-opacity="1" fill-rule="nonzero"/><path fill="#00325a" d="M 180.417969 125.660156 C 179.386719 125.660156 178.550781 126.496094 178.550781 127.527344 L 178.550781 135 C 178.550781 136.03125 179.386719 136.867188 180.417969 136.867188 C 181.449219 136.867188 182.285156 136.03125 182.285156 135 L 182.285156 127.527344 C 182.285156 126.496094 181.449219 125.660156 180.417969 125.660156 Z M 180.417969 125.660156 " fill-opacity="1" fill-rule="nonzero"/><path fill="#00325a" d="M 180.417969 146.210938 C 175.269531 146.210938 171.082031 142.023438 171.082031 136.867188 C 171.082031 135.835938 171.917969 135 172.949219 135 C 173.980469 135 174.816406 135.835938 174.816406 136.867188 C 174.816406 139.960938 177.328125 142.472656 180.417969 142.472656 C 183.507812 142.472656 186.019531 139.960938 186.019531 136.867188 C 186.019531 135.835938 186.859375 135 187.886719 135 C 188.917969 135 189.757812 135.835938 189.757812 136.867188 C 189.757812 142.023438 185.570312 146.210938 180.417969 146.210938 Z M 180.417969 146.210938 " fill-opacity="1" fill-rule="nonzero"/><path fill="#d2d2d2" d="M 183.046875 191.449219 L 180.394531 194.066406 C 178.9375 195.558594 176.585938 195.558594 175.128906 194.066406 L 169.863281 188.796875 C 168.316406 187.25 168.515625 184.808594 169.863281 183.527344 C 171.320312 182.070312 173.671875 182.070312 175.128906 183.527344 Z M 183.046875 191.449219 " fill-opacity="1" fill-rule="nonzero"/><path fill="#f0f0f0" d="M 190.964844 183.527344 L 180.394531 194.066406 C 178.9375 195.558594 176.585938 195.558594 175.128906 194.066406 L 172.515625 191.449219 L 185.699219 178.222656 C 187.300781 176.699219 189.59375 176.851562 190.964844 178.222656 C 192.421875 179.679688 192.421875 182.070312 190.964844 183.527344 Z M 190.964844 183.527344 " fill-opacity="1" fill-rule="nonzero"/><path fill="#0082aa" d="M 168.691406 217.605469 L 143.960938 217.605469 C 143.925781 215.8125 143.140625 213.945312 141.796875 212.601562 L 133.652344 204.453125 C 130.367188 201.164062 130.554688 195.710938 134.25 192.683594 C 137.464844 190.066406 142.246094 190.628906 145.195312 193.578125 C 159.425781 207.816406 156.101562 204.492188 163.910156 212.300781 C 165.402344 213.796875 167.15625 215.476562 168.691406 217.605469 Z M 168.691406 217.605469 " fill-opacity="1" fill-rule="nonzero"/><path fill="#0082aa" d="M 226.585938 192.683594 C 230.28125 195.710938 230.46875 201.164062 227.183594 204.453125 L 219.039062 212.601562 C 217.695312 213.945312 216.910156 215.8125 216.875 217.605469 L 192.148438 217.605469 C 193.714844 215.476562 195.433594 213.796875 196.925781 212.300781 C 206.042969 203.21875 201.894531 207.367188 215.640625 193.578125 C 218.59375 190.628906 223.371094 190.066406 226.585938 192.683594 Z M 226.585938 192.683594 " fill-opacity="1" fill-rule="nonzero"/><path fill="#0082aa" d="M 255.121094 127.890625 L 255.121094 134.464844 L 180.679688 60.03125 L 105.976562 134.726562 L 105.714844 134.988281 L 105.714844 127.925781 L 180.679688 53.195312 Z M 255.121094 127.890625 " fill-opacity="1" fill-rule="nonzero"/><path fill="#c80a50" d="M 267.683594 127.496094 L 262.417969 132.765625 C 260.960938 134.1875 258.570312 134.1875 257.113281 132.730469 C 254.730469 130.34375 183.074219 58.699219 180.691406 56.3125 C 180.683594 56.320312 104.246094 132.75 104.253906 132.742188 C 102.796875 134.199219 100.4375 134.203125 98.976562 132.746094 L 93.699219 127.484375 C 92.234375 126.027344 92.234375 123.660156 93.695312 122.199219 L 175.425781 40.433594 C 178.335938 37.519531 183.042969 37.519531 185.957031 40.433594 L 267.691406 122.199219 C 269.152344 123.660156 269.144531 126.039062 267.683594 127.496094 Z M 267.683594 127.496094 " fill-opacity="1" fill-rule="nonzero"/><g clip-path="url(#id1)"><path fill="#f0c8a0" d="M 172.949219 226.90625 L 172.949219 247.5 L 135.597656 247.5 L 135.597656 246.039062 C 135.597656 242.265625 133.726562 238.789062 130.589844 236.699219 L 94.097656 212.371094 C 92.007812 210.988281 90.773438 208.671875 90.773438 206.167969 L 90.773438 180.238281 C 90.773438 175.714844 94.808594 172.089844 99.515625 172.875 C 103.175781 173.472656 105.714844 176.910156 105.714844 180.648438 L 105.714844 200.339844 C 105.714844 201.648438 106.425781 202.878906 107.542969 203.554688 L 134.289062 219.320312 C 137.128906 221.003906 140.863281 220.257812 142.84375 217.453125 C 144.710938 214.839844 144.113281 211.175781 141.796875 208.859375 L 133.652344 200.714844 C 130.367188 197.425781 130.554688 191.96875 134.25 188.941406 C 137.464844 186.328125 142.246094 186.886719 145.195312 189.839844 C 159.433594 204.082031 156.109375 200.757812 163.910156 208.558594 C 167.644531 212.296875 172.949219 217.078125 172.949219 226.90625 Z M 172.949219 226.90625 " fill-opacity="1" fill-rule="nonzero"/></g><g clip-path="url(#id2)"><path fill="#f0c8a0" d="M 270.0625 180.238281 L 270.0625 206.167969 C 270.0625 208.671875 268.832031 210.988281 266.738281 212.371094 L 230.246094 236.699219 C 227.109375 238.789062 225.242188 242.265625 225.242188 246.039062 L 225.242188 247.5 L 187.886719 247.5 L 187.886719 226.90625 C 187.886719 217.191406 193.191406 212.296875 196.925781 208.558594 C 206.054688 199.472656 201.878906 203.648438 215.640625 189.839844 C 218.59375 186.886719 223.371094 186.328125 226.585938 188.941406 C 230.28125 191.96875 230.46875 197.425781 227.183594 200.714844 L 219.039062 208.859375 C 216.722656 211.175781 216.125 214.835938 217.996094 217.453125 C 219.972656 220.257812 223.710938 221.003906 226.546875 219.320312 L 253.292969 203.554688 C 254.414062 202.878906 255.121094 201.648438 255.121094 200.339844 L 255.121094 180.648438 C 255.121094 176.910156 257.660156 173.472656 261.324219 172.875 C 266.027344 172.089844 270.0625 175.714844 270.0625 180.238281 Z M 270.0625 180.238281 " fill-opacity="1" fill-rule="nonzero"/></g><path fill="#f0f0f0" d="M 221.503906 135.398438 L 217.769531 135.398438 L 217.769531 131.664062 C 217.769531 129.601562 219.445312 127.925781 221.503906 127.925781 C 223.566406 127.925781 225.242188 129.601562 225.242188 131.664062 C 225.242188 133.726562 223.566406 135.398438 221.503906 135.398438 Z M 221.503906 135.398438 " fill-opacity="1" fill-rule="nonzero"/><path fill="#f0f0f0" d="M 217.769531 161.558594 L 217.769531 157.820312 L 221.503906 157.820312 C 223.566406 157.820312 225.242188 159.496094 225.242188 161.558594 C 225.242188 163.621094 223.566406 165.292969 221.503906 165.292969 C 219.445312 165.292969 217.769531 163.621094 217.769531 161.558594 Z M 217.769531 161.558594 " fill-opacity="1" fill-rule="nonzero"/><path fill="#f0f0f0" d="M 226.335938 149.253906 L 223.695312 146.609375 L 226.335938 143.96875 C 227.796875 142.507812 230.160156 142.507812 231.617188 143.96875 C 233.078125 145.429688 233.078125 147.792969 231.617188 149.253906 C 230.160156 150.714844 227.792969 150.714844 226.335938 149.253906 Z M 226.335938 149.253906 " fill-opacity="1" fill-rule="nonzero"/><path fill="#f0f0f0" d="M 139.332031 157.820312 L 143.066406 157.820312 L 143.066406 161.558594 C 143.066406 163.621094 141.394531 165.292969 139.332031 165.292969 C 137.269531 165.292969 135.597656 163.621094 135.597656 161.558594 C 135.597656 159.496094 137.269531 157.820312 139.332031 157.820312 Z M 139.332031 157.820312 " fill-opacity="1" fill-rule="nonzero"/><path fill="#f0f0f0" d="M 143.066406 131.664062 L 143.066406 135.398438 L 139.332031 135.398438 C 137.269531 135.398438 135.597656 133.726562 135.597656 131.664062 C 135.597656 129.601562 137.269531 127.925781 139.332031 127.925781 C 141.394531 127.925781 143.066406 129.601562 143.066406 131.664062 Z M 143.066406 131.664062 " fill-opacity="1" fill-rule="nonzero"/><path fill="#f0f0f0" d="M 134.5 143.96875 L 137.140625 146.609375 L 134.5 149.253906 C 133.039062 150.714844 130.675781 150.714844 129.21875 149.253906 C 127.757812 147.792969 127.757812 145.425781 129.21875 143.96875 C 130.675781 142.507812 133.042969 142.507812 134.5 143.96875 Z M 134.5 143.96875 " fill-opacity="1" fill-rule="nonzero"/><g fill="#ffffff" fill-opacity="1"><g transform="translate(44.320314, 314.755175)"><g><path d="M 27.03125 -27.71875 L 17.3125 -27.71875 L 17.3125 0 L 10.40625 0 L 10.40625 -27.71875 L 0.6875 -27.71875 L 0.6875 -33.265625 L 27.03125 -33.265625 Z M 27.03125 -27.71875 "/></g></g></g><g fill="#ffffff" fill-opacity="1"><g transform="translate(72.002941, 314.755175)"><g><path d="M 13.890625 -17.515625 C 15.003906 -17.515625 15.96875 -17.65625 16.78125 -17.9375 C 17.59375 -18.21875 18.253906 -18.601562 18.765625 -19.09375 C 19.285156 -19.59375 19.664062 -20.179688 19.90625 -20.859375 C 20.15625 -21.535156 20.28125 -22.269531 20.28125 -23.0625 C 20.28125 -24.632812 19.753906 -25.851562 18.703125 -26.71875 C 17.660156 -27.59375 16.070312 -28.03125 13.9375 -28.03125 L 10.359375 -28.03125 L 10.359375 -17.515625 Z M 30 0 L 23.796875 0 C 22.628906 0 21.785156 -0.441406 21.265625 -1.328125 L 14.9375 -11.53125 C 14.6875 -11.925781 14.398438 -12.210938 14.078125 -12.390625 C 13.765625 -12.578125 13.304688 -12.671875 12.703125 -12.671875 L 10.359375 -12.671875 L 10.359375 0 L 3.484375 0 L 3.484375 -33.265625 L 13.9375 -33.265625 C 16.257812 -33.265625 18.242188 -33.019531 19.890625 -32.53125 C 21.546875 -32.050781 22.898438 -31.382812 23.953125 -30.53125 C 25.003906 -29.675781 25.773438 -28.65625 26.265625 -27.46875 C 26.753906 -26.289062 27 -24.988281 27 -23.5625 C 27 -22.457031 26.84375 -21.410156 26.53125 -20.421875 C 26.21875 -19.441406 25.765625 -18.546875 25.171875 -17.734375 C 24.578125 -16.929688 23.84375 -16.210938 22.96875 -15.578125 C 22.09375 -14.953125 21.097656 -14.453125 19.984375 -14.078125 C 20.429688 -13.828125 20.84375 -13.53125 21.21875 -13.1875 C 21.601562 -12.84375 21.945312 -12.4375 22.25 -11.96875 Z M 30 0 "/></g></g></g><g fill="#ffffff" fill-opacity="1"><g transform="translate(101.770922, 314.755175)"><g><path d="M 17.09375 -5.5 C 18.207031 -5.5 19.207031 -5.6875 20.09375 -6.0625 C 20.988281 -6.4375 21.738281 -6.96875 22.34375 -7.65625 C 22.957031 -8.34375 23.425781 -9.175781 23.75 -10.15625 C 24.070312 -11.132812 24.234375 -12.234375 24.234375 -13.453125 L 24.234375 -33.265625 L 31.109375 -33.265625 L 31.109375 -13.453125 C 31.109375 -11.429688 30.78125 -9.578125 30.125 -7.890625 C 29.476562 -6.203125 28.550781 -4.75 27.34375 -3.53125 C 26.132812 -2.3125 24.664062 -1.359375 22.9375 -0.671875 C 21.21875 0.015625 19.269531 0.359375 17.09375 0.359375 C 14.925781 0.359375 12.972656 0.015625 11.234375 -0.671875 C 9.503906 -1.359375 8.035156 -2.3125 6.828125 -3.53125 C 5.617188 -4.75 4.691406 -6.203125 4.046875 -7.890625 C 3.398438 -9.578125 3.078125 -11.429688 3.078125 -13.453125 L 3.078125 -33.265625 L 9.953125 -33.265625 L 9.953125 -13.453125 C 9.953125 -12.234375 10.109375 -11.132812 10.421875 -10.15625 C 10.742188 -9.175781 11.210938 -8.34375 11.828125 -7.65625 C 12.441406 -6.96875 13.191406 -6.4375 14.078125 -6.0625 C 14.960938 -5.6875 15.96875 -5.5 17.09375 -5.5 Z M 17.09375 -5.5 "/></g></g></g><g fill="#ffffff" fill-opacity="1"><g transform="translate(135.938789, 314.755175)"><g><path d="M 31.96875 -33.265625 L 31.96875 0 L 28.421875 0 C 27.890625 0 27.4375 -0.0859375 27.0625 -0.265625 C 26.695312 -0.441406 26.34375 -0.742188 26 -1.171875 L 9.421875 -22.25 C 9.460938 -21.71875 9.492188 -21.191406 9.515625 -20.671875 C 9.546875 -20.148438 9.5625 -19.671875 9.5625 -19.234375 L 9.5625 0 L 3.484375 0 L 3.484375 -33.265625 L 7.109375 -33.265625 C 7.398438 -33.265625 7.644531 -33.25 7.84375 -33.21875 C 8.050781 -33.195312 8.238281 -33.144531 8.40625 -33.0625 C 8.582031 -32.976562 8.742188 -32.867188 8.890625 -32.734375 C 9.046875 -32.597656 9.210938 -32.414062 9.390625 -32.1875 L 26.078125 -11 C 26.023438 -11.582031 25.984375 -12.144531 25.953125 -12.6875 C 25.921875 -13.226562 25.90625 -13.742188 25.90625 -14.234375 L 25.90625 -33.265625 Z M 31.96875 -33.265625 "/></g></g></g><g fill="#ffffff" fill-opacity="1"><g transform="translate(171.389962, 314.755175)"><g><path d="M 19.671875 -16.9375 L 31.078125 -16.9375 L 31.078125 -3.203125 C 29.378906 -1.972656 27.570312 -1.070312 25.65625 -0.5 C 23.738281 0.0703125 21.710938 0.359375 19.578125 0.359375 C 16.835938 0.359375 14.359375 -0.0625 12.140625 -0.90625 C 9.929688 -1.75 8.039062 -2.925781 6.46875 -4.4375 C 4.894531 -5.957031 3.675781 -7.753906 2.8125 -9.828125 C 1.957031 -11.910156 1.53125 -14.179688 1.53125 -16.640625 C 1.53125 -19.128906 1.9375 -21.410156 2.75 -23.484375 C 3.570312 -25.566406 4.738281 -27.359375 6.25 -28.859375 C 7.769531 -30.359375 9.601562 -31.523438 11.75 -32.359375 C 13.894531 -33.203125 16.296875 -33.625 18.953125 -33.625 C 20.328125 -33.625 21.609375 -33.515625 22.796875 -33.296875 C 23.992188 -33.078125 25.097656 -32.769531 26.109375 -32.375 C 27.117188 -31.988281 28.039062 -31.523438 28.875 -30.984375 C 29.71875 -30.453125 30.484375 -29.863281 31.171875 -29.21875 L 29.171875 -26.15625 C 28.867188 -25.664062 28.472656 -25.363281 27.984375 -25.25 C 27.492188 -25.144531 26.960938 -25.269531 26.390625 -25.625 C 25.835938 -25.957031 25.296875 -26.257812 24.765625 -26.53125 C 24.234375 -26.800781 23.671875 -27.035156 23.078125 -27.234375 C 22.484375 -27.429688 21.832031 -27.582031 21.125 -27.6875 C 20.425781 -27.789062 19.617188 -27.84375 18.703125 -27.84375 C 17.160156 -27.84375 15.757812 -27.578125 14.5 -27.046875 C 13.25 -26.515625 12.1875 -25.757812 11.3125 -24.78125 C 10.4375 -23.800781 9.757812 -22.625 9.28125 -21.25 C 8.8125 -19.875 8.578125 -18.335938 8.578125 -16.640625 C 8.578125 -14.804688 8.832031 -13.164062 9.34375 -11.71875 C 9.863281 -10.28125 10.597656 -9.0625 11.546875 -8.0625 C 12.492188 -7.070312 13.628906 -6.316406 14.953125 -5.796875 C 16.273438 -5.273438 17.75 -5.015625 19.375 -5.015625 C 20.46875 -5.015625 21.445312 -5.125 22.3125 -5.34375 C 23.175781 -5.570312 24.019531 -5.875 24.84375 -6.25 L 24.84375 -11.84375 L 21.09375 -11.84375 C 20.644531 -11.84375 20.296875 -11.960938 20.046875 -12.203125 C 19.796875 -12.441406 19.671875 -12.742188 19.671875 -13.109375 Z M 19.671875 -16.9375 "/></g></g></g><g fill="#ffffff" fill-opacity="1"><g transform="translate(204.595358, 314.755175)"><g/></g></g><g fill="#ffffff" fill-opacity="1"><g transform="translate(215.480497, 314.755175)"><g><path d="M 16.25 -5.265625 C 17.351562 -5.265625 18.257812 -5.398438 18.96875 -5.671875 C 19.675781 -5.941406 20.242188 -6.296875 20.671875 -6.734375 C 21.097656 -7.179688 21.394531 -7.691406 21.5625 -8.265625 C 21.738281 -8.835938 21.828125 -9.429688 21.828125 -10.046875 C 21.828125 -10.710938 21.722656 -11.3125 21.515625 -11.84375 C 21.316406 -12.382812 20.992188 -12.84375 20.546875 -13.21875 C 20.109375 -13.59375 19.535156 -13.878906 18.828125 -14.078125 C 18.117188 -14.273438 17.242188 -14.375 16.203125 -14.375 L 10.359375 -14.375 L 10.359375 -5.265625 Z M 10.359375 -28.03125 L 10.359375 -19.046875 L 14.875 -19.046875 C 15.84375 -19.046875 16.695312 -19.125 17.4375 -19.28125 C 18.1875 -19.445312 18.8125 -19.703125 19.3125 -20.046875 C 19.820312 -20.398438 20.207031 -20.863281 20.46875 -21.4375 C 20.738281 -22.007812 20.875 -22.703125 20.875 -23.515625 C 20.875 -24.335938 20.765625 -25.039062 20.546875 -25.625 C 20.328125 -26.207031 19.988281 -26.671875 19.53125 -27.015625 C 19.070312 -27.367188 18.488281 -27.625 17.78125 -27.78125 C 17.082031 -27.945312 16.25 -28.03125 15.28125 -28.03125 Z M 15.28125 -33.265625 C 17.519531 -33.265625 19.425781 -33.050781 21 -32.625 C 22.582031 -32.207031 23.875 -31.613281 24.875 -30.84375 C 25.882812 -30.070312 26.617188 -29.132812 27.078125 -28.03125 C 27.535156 -26.9375 27.765625 -25.707031 27.765625 -24.34375 C 27.765625 -23.582031 27.648438 -22.847656 27.421875 -22.140625 C 27.203125 -21.441406 26.859375 -20.78125 26.390625 -20.15625 C 25.929688 -19.539062 25.332031 -18.976562 24.59375 -18.46875 C 23.863281 -17.96875 22.992188 -17.539062 21.984375 -17.1875 C 24.242188 -16.65625 25.914062 -15.785156 27 -14.578125 C 28.082031 -13.367188 28.625 -11.800781 28.625 -9.875 C 28.625 -8.46875 28.351562 -7.160156 27.8125 -5.953125 C 27.269531 -4.753906 26.476562 -3.707031 25.4375 -2.8125 C 24.40625 -1.925781 23.128906 -1.234375 21.609375 -0.734375 C 20.085938 -0.242188 18.335938 0 16.359375 0 L 3.484375 0 L 3.484375 -33.265625 Z M 15.28125 -33.265625 "/></g></g></g><g fill="#ffffff" fill-opacity="1"><g transform="translate(245.890125, 314.755175)"><g><path d="M 10.40625 0 L 3.484375 0 L 3.484375 -33.265625 L 10.40625 -33.265625 Z M 3.40625 -42.71875 C 3.726562 -42.71875 4.007812 -42.710938 4.25 -42.703125 C 4.488281 -42.691406 4.703125 -42.648438 4.890625 -42.578125 C 5.078125 -42.503906 5.253906 -42.398438 5.421875 -42.265625 C 5.597656 -42.140625 5.773438 -41.960938 5.953125 -41.734375 L 10.84375 -35.53125 L 6.25 -35.53125 C 6.007812 -35.53125 5.796875 -35.53125 5.609375 -35.53125 C 5.429688 -35.539062 5.265625 -35.566406 5.109375 -35.609375 C 4.953125 -35.648438 4.800781 -35.710938 4.65625 -35.796875 C 4.507812 -35.878906 4.351562 -35.988281 4.1875 -36.125 L -3.1875 -42.71875 Z M 3.40625 -42.71875 "/></g></g></g><g fill="#ffffff" fill-opacity="1"><g transform="translate(259.777254, 314.755175)"><g><path d="M 31.96875 -33.265625 L 31.96875 0 L 28.421875 0 C 27.890625 0 27.4375 -0.0859375 27.0625 -0.265625 C 26.695312 -0.441406 26.34375 -0.742188 26 -1.171875 L 9.421875 -22.25 C 9.460938 -21.71875 9.492188 -21.191406 9.515625 -20.671875 C 9.546875 -20.148438 9.5625 -19.671875 9.5625 -19.234375 L 9.5625 0 L 3.484375 0 L 3.484375 -33.265625 L 7.109375 -33.265625 C 7.398438 -33.265625 7.644531 -33.25 7.84375 -33.21875 C 8.050781 -33.195312 8.238281 -33.144531 8.40625 -33.0625 C 8.582031 -32.976562 8.742188 -32.867188 8.890625 -32.734375 C 9.046875 -32.597656 9.210938 -32.414062 9.390625 -32.1875 L 26.078125 -11 C 26.023438 -11.582031 25.984375 -12.144531 25.953125 -12.6875 C 25.921875 -13.226562 25.90625 -13.742188 25.90625 -14.234375 L 25.90625 -33.265625 Z M 31.96875 -33.265625 "/></g></g></g><g fill="#ffffff" fill-opacity="1"><g transform="translate(295.22844, 314.755175)"><g><path d="M 31.96875 -33.265625 L 31.96875 0 L 25.046875 0 L 25.046875 -14.328125 L 10.40625 -14.328125 L 10.40625 0 L 3.484375 0 L 3.484375 -33.265625 L 10.40625 -33.265625 L 10.40625 -19.140625 L 25.046875 -19.140625 L 25.046875 -33.265625 Z M 31.96875 -33.265625 "/></g></g></g></svg>