<svg xmlns="http://www.w3.org/2000/svg" xmlns:xlink="http://www.w3.org/1999/xlink" width="500" zoomAndPan="magnify" viewBox="0 0 375 374.999991" height="500" preserveAspectRatio="xMidYMid meet" version="1.0"><defs><clipPath id="id1"><path d="M 9.128906 10.570312 L 364.628906 10.570312 L 364.628906 366.070312 L 9.128906 366.070312 Z M 9.128906 10.570312 " clip-rule="nonzero"/></clipPath></defs><path fill="#ffffff" d="M 32.828125 294.96875 L 50.601562 294.96875 L 50.601562 306.820312 L 32.828125 306.820312 Z M 32.828125 294.96875 " fill-opacity="1" fill-rule="nonzero"/><path fill="#ffffff" d="M 32.828125 271.269531 L 68.378906 271.269531 L 68.378906 283.121094 L 32.828125 283.121094 Z M 32.828125 271.269531 " fill-opacity="1" fill-rule="nonzero"/><path fill="#ffffff" d="M 32.828125 247.570312 L 80.226562 247.570312 L 80.226562 259.417969 L 32.828125 259.417969 Z M 32.828125 247.570312 " fill-opacity="1" fill-rule="nonzero"/><path fill="#ffffff" d="M 32.828125 318.667969 L 44.675781 318.667969 L 44.675781 330.519531 L 32.828125 330.519531 Z M 32.828125 318.667969 " fill-opacity="1" fill-rule="nonzero"/><path fill="#ffffff" d="M 263.902344 294.96875 L 263.902344 306.820312 L 314.773438 306.820312 L 301.1875 320.40625 L 309.566406 328.785156 L 333.265625 305.082031 C 335.582031 302.765625 335.582031 299.023438 333.265625 296.707031 L 309.566406 273.007812 L 301.1875 281.382812 L 314.773438 294.96875 Z M 263.902344 294.96875 " fill-opacity="1" fill-rule="nonzero"/><path fill="#ffffff" d="M 330.503906 54.117188 L 299.121094 90.734375 L 279.949219 71.5625 L 271.570312 79.941406 L 295.269531 103.640625 C 296.378906 104.746094 297.882812 105.371094 299.453125 105.371094 C 299.53125 105.371094 299.601562 105.371094 299.683594 105.363281 C 301.332031 105.296875 302.882812 104.550781 303.957031 103.296875 L 339.503906 61.820312 Z M 330.503906 54.117188 " fill-opacity="1" fill-rule="nonzero"/><g clip-path="url(#id1)"><path fill="#ffffff" d="M 364.628906 75.746094 C 364.628906 39.808594 335.386719 10.570312 299.453125 10.570312 C 270.894531 10.570312 246.621094 29.0625 237.839844 54.679688 C 230.847656 52.953125 223.703125 52.042969 216.503906 52.042969 L 151.328125 52.042969 C 148.53125 52.042969 145.714844 52.234375 142.894531 52.519531 L 143.074219 52.339844 C 145.390625 50.023438 145.390625 46.28125 143.074219 43.964844 L 117.933594 18.828125 C 115.617188 16.511719 111.871094 16.511719 109.554688 18.828125 L 103.925781 24.453125 L 103.925781 16.496094 C 103.925781 13.21875 101.273438 10.570312 98.003906 10.570312 L 62.453125 10.570312 C 59.183594 10.570312 56.527344 13.21875 56.527344 16.496094 L 56.527344 24.453125 L 50.898438 18.828125 C 48.582031 16.511719 44.835938 16.511719 42.519531 18.828125 L 17.386719 43.964844 C 15.070312 46.28125 15.070312 50.023438 17.386719 52.339844 L 23.011719 57.96875 L 15.050781 57.96875 C 11.78125 57.96875 9.128906 60.617188 9.128906 63.894531 L 9.128906 99.445312 C 9.128906 102.722656 11.78125 105.371094 15.050781 105.371094 L 23.011719 105.371094 L 17.382812 111 C 15.066406 113.316406 15.066406 117.058594 17.382812 119.375 L 42.519531 144.511719 C 44.835938 146.828125 48.582031 146.828125 50.898438 144.511719 L 56.527344 138.886719 L 56.527344 146.84375 C 56.527344 150.121094 59.183594 152.769531 62.453125 152.769531 L 62.453125 223.871094 L 15.050781 223.871094 C 11.78125 223.871094 9.128906 226.519531 9.128906 229.792969 L 9.128906 360.144531 C 9.128906 363.421875 11.78125 366.070312 15.050781 366.070312 L 109.851562 366.070312 C 113.125 366.070312 115.777344 363.421875 115.777344 360.144531 L 115.777344 317.074219 C 126.988281 321.992188 139.097656 324.59375 151.328125 324.59375 L 216.503906 324.59375 C 223.703125 324.59375 230.847656 323.6875 237.839844 321.957031 C 246.621094 347.578125 270.894531 366.070312 299.453125 366.070312 C 335.386719 366.070312 364.628906 336.828125 364.628906 300.894531 C 364.628906 266.949219 338.539062 239.019531 305.367188 236.023438 C 305.367188 235.921875 305.378906 235.820312 305.378906 235.71875 L 305.378906 140.917969 C 305.378906 140.820312 305.367188 140.71875 305.367188 140.617188 C 338.539062 137.621094 364.628906 109.6875 364.628906 75.746094 Z M 59.832031 124.40625 C 57.570312 123.324219 54.867188 123.789062 53.097656 125.5625 L 46.710938 131.945312 L 29.949219 115.1875 L 36.335938 108.800781 C 38.113281 107.023438 38.574219 104.316406 37.492188 102.046875 C 36.773438 100.558594 36.140625 99.03125 35.582031 97.464844 C 34.746094 95.101562 32.507812 93.519531 30 93.519531 L 20.976562 93.519531 L 20.976562 69.820312 L 30 69.820312 C 32.507812 69.820312 34.746094 68.238281 35.582031 65.875 C 36.140625 64.304688 36.773438 62.78125 37.492188 61.292969 C 38.574219 59.023438 38.113281 56.316406 36.335938 54.539062 L 29.953125 48.152344 L 46.714844 31.394531 L 53.101562 37.777344 C 54.875 39.5625 57.570312 40.023438 59.839844 38.9375 C 61.332031 38.226562 62.863281 37.589844 64.429688 37.035156 C 66.789062 36.195312 68.378906 33.957031 68.378906 31.445312 L 68.378906 22.417969 L 92.078125 22.417969 L 92.078125 31.445312 C 92.078125 33.957031 93.664062 36.195312 96.03125 37.03125 C 97.605469 37.589844 99.128906 38.222656 100.621094 38.933594 C 102.886719 40.015625 105.582031 39.550781 107.359375 37.773438 L 113.746094 31.390625 L 130.507812 48.144531 L 124.121094 54.535156 C 122.34375 56.3125 121.878906 59.019531 122.964844 61.289062 C 123.277344 61.941406 123.515625 62.632812 123.800781 63.296875 C 123.804688 63.308594 123.800781 63.324219 123.804688 63.339844 L 124.019531 63.835938 C 124.28125 64.476562 124.582031 65.105469 124.820312 65.753906 C 124.832031 65.789062 124.847656 65.828125 124.859375 65.863281 C 124.859375 65.863281 124.859375 65.863281 124.859375 65.867188 C 124.894531 65.960938 124.960938 66.035156 124.996094 66.121094 C 125.199219 66.609375 125.421875 67.078125 125.730469 67.480469 C 125.980469 67.804688 126.292969 68.054688 126.601562 68.320312 C 126.75 68.453125 126.863281 68.617188 127.023438 68.730469 C 127.390625 68.992188 127.8125 69.164062 128.226562 69.335938 C 128.363281 69.394531 128.480469 69.488281 128.628906 69.535156 C 129.203125 69.71875 129.8125 69.820312 130.441406 69.820312 L 139.476562 69.820312 L 139.476562 93.519531 L 130.453125 93.519531 C 127.949219 93.519531 125.707031 95.101562 124.871094 97.464844 C 124.316406 99.035156 123.679688 100.558594 122.964844 102.046875 C 121.878906 104.316406 122.34375 107.023438 124.121094 108.800781 L 130.507812 115.1875 L 113.746094 131.945312 L 107.359375 125.5625 C 105.582031 123.785156 102.886719 123.324219 100.621094 124.40625 C 99.132812 125.113281 97.605469 125.75 96.03125 126.304688 C 93.664062 127.144531 92.078125 129.382812 92.078125 131.894531 L 92.078125 140.917969 L 68.378906 140.917969 L 68.378906 131.894531 C 68.378906 129.382812 66.789062 127.144531 64.425781 126.308594 C 62.847656 125.746094 61.328125 125.113281 59.832031 124.40625 Z M 103.925781 354.21875 L 20.976562 354.21875 L 20.976562 235.71875 L 77.773438 235.71875 L 103.925781 261.871094 L 103.925781 263.609375 L 64.1875 303.347656 C 64.128906 303.40625 64.113281 303.488281 64.050781 303.550781 C 63.589844 304.054688 63.1875 304.609375 62.914062 305.261719 C 62.910156 305.285156 62.890625 305.304688 62.878906 305.320312 C 62.878906 305.328125 62.875 305.332031 62.875 305.339844 L 51.023438 334.964844 C 50.144531 337.160156 50.660156 339.675781 52.339844 341.351562 C 53.46875 342.488281 54.988281 343.085938 56.527344 343.085938 C 57.269531 343.085938 58.015625 342.949219 58.730469 342.667969 L 88.355469 330.816406 C 88.363281 330.816406 88.367188 330.808594 88.375 330.804688 C 88.390625 330.796875 88.402344 330.785156 88.414062 330.78125 C 89.074219 330.507812 89.636719 330.097656 90.144531 329.632812 C 90.207031 329.578125 90.289062 329.558594 90.347656 329.5 L 103.925781 315.914062 Z M 137.746094 255.105469 C 137.902344 255.238281 138.097656 255.289062 138.246094 255.4375 C 139.5 256.695312 140.195312 258.363281 140.195312 260.136719 C 140.195312 261.914062 139.5 263.578125 138.246094 264.835938 L 133.550781 269.535156 L 124.15625 260.136719 L 128.855469 255.4375 C 131.300781 253.003906 135.140625 252.949219 137.746094 255.105469 Z M 105.664062 297.421875 L 86.152344 316.933594 L 76.753906 307.535156 L 114.042969 270.25 L 115.777344 268.515625 L 125.175781 277.910156 Z M 70.539062 318.078125 L 75.605469 323.144531 L 67.15625 326.519531 Z M 235.019531 310.476562 C 228.957031 311.980469 222.746094 312.746094 216.503906 312.746094 L 151.328125 312.746094 C 139.007812 312.746094 126.808594 309.734375 115.835938 304.003906 L 146.628906 273.214844 C 150.125 269.722656 152.050781 265.078125 152.050781 260.136719 C 152.050781 255.195312 150.125 250.550781 146.628906 247.058594 C 139.417969 239.851562 127.6875 239.851562 120.476562 247.058594 L 113.175781 254.359375 L 84.417969 225.601562 C 83.308594 224.492188 81.796875 223.871094 80.226562 223.871094 L 74.300781 223.871094 L 74.300781 152.769531 L 98.003906 152.769531 C 101.273438 152.769531 103.925781 150.121094 103.925781 146.84375 L 103.925781 138.886719 L 109.554688 144.511719 C 111.875 146.828125 115.617188 146.828125 117.933594 144.511719 L 143.074219 119.375 C 145.390625 117.058594 145.390625 113.316406 143.074219 111 L 137.445312 105.371094 L 145.402344 105.371094 C 148.671875 105.371094 151.328125 102.722656 151.328125 99.445312 L 151.328125 63.894531 L 216.503906 63.894531 C 222.746094 63.894531 228.957031 64.660156 235.019531 66.164062 C 234.960938 66.539062 234.941406 66.90625 234.886719 67.273438 C 234.761719 68.226562 234.640625 69.175781 234.554688 70.140625 C 234.390625 72.023438 234.277344 73.894531 234.277344 75.746094 C 234.277344 77.925781 234.394531 80.074219 234.601562 82.195312 C 234.6875 83.042969 234.851562 83.867188 234.964844 84.703125 C 235.136719 85.953125 235.289062 87.214844 235.539062 88.441406 C 235.746094 89.492188 236.039062 90.503906 236.292969 91.527344 C 236.535156 92.507812 236.753906 93.496094 237.042969 94.457031 C 237.386719 95.59375 237.804688 96.695312 238.199219 97.804688 C 238.492188 98.609375 238.761719 99.425781 239.082031 100.222656 C 239.5625 101.394531 240.101562 102.53125 240.648438 103.675781 C 240.972656 104.355469 241.28125 105.042969 241.628906 105.714844 C 242.246094 106.894531 242.917969 108.035156 243.597656 109.171875 C 243.945312 109.753906 244.285156 110.339844 244.652344 110.902344 C 245.398438 112.058594 246.1875 113.179688 247.003906 114.28125 C 247.378906 114.785156 247.738281 115.289062 248.125 115.78125 C 248.988281 116.886719 249.894531 117.953125 250.832031 119.003906 C 251.222656 119.441406 251.621094 119.878906 252.023438 120.3125 C 253 121.351562 254.007812 122.351562 255.050781 123.328125 C 255.472656 123.71875 255.890625 124.105469 256.324219 124.484375 C 257.398438 125.433594 258.492188 126.351562 259.625 127.226562 C 260.082031 127.582031 260.542969 127.921875 261.011719 128.265625 C 262.160156 129.113281 263.332031 129.921875 264.542969 130.691406 C 265.039062 131.011719 265.550781 131.308594 266.054688 131.613281 C 267.269531 132.339844 268.496094 133.046875 269.761719 133.699219 C 270.3125 133.980469 270.882812 134.238281 271.445312 134.507812 C 272.707031 135.113281 273.976562 135.699219 275.277344 136.222656 C 275.894531 136.46875 276.523438 136.675781 277.144531 136.902344 C 278.4375 137.375 279.734375 137.839844 281.0625 138.234375 C 281.738281 138.4375 282.429688 138.585938 283.113281 138.761719 C 284.425781 139.105469 285.734375 139.449219 287.085938 139.707031 C 287.816406 139.847656 288.570312 139.929688 289.308594 140.042969 C 290.648438 140.257812 291.976562 140.476562 293.339844 140.605469 C 293.402344 140.613281 293.460938 140.625 293.527344 140.628906 C 293.527344 140.722656 293.527344 140.820312 293.527344 140.914062 L 293.527344 235.714844 C 293.527344 235.808594 293.527344 235.902344 293.527344 236 C 293.460938 236.003906 293.402344 236.015625 293.339844 236.023438 C 291.976562 236.148438 290.640625 236.371094 289.308594 236.585938 C 288.570312 236.703125 287.820312 236.785156 287.085938 236.921875 C 285.742188 237.183594 284.425781 237.527344 283.113281 237.863281 C 282.429688 238.042969 281.738281 238.195312 281.0625 238.390625 C 279.734375 238.78125 278.4375 239.25 277.144531 239.726562 C 276.523438 239.957031 275.894531 240.164062 275.277344 240.40625 C 273.976562 240.929688 272.707031 241.515625 271.445312 242.117188 C 270.882812 242.386719 270.320312 242.644531 269.761719 242.929688 C 268.496094 243.582031 267.269531 244.289062 266.054688 245.015625 C 265.542969 245.320312 265.039062 245.621094 264.542969 245.933594 C 263.332031 246.703125 262.167969 247.523438 261.011719 248.363281 C 260.542969 248.707031 260.082031 249.046875 259.625 249.402344 C 258.492188 250.277344 257.398438 251.195312 256.324219 252.144531 C 255.890625 252.523438 255.472656 252.910156 255.050781 253.300781 C 254.007812 254.269531 253 255.273438 252.023438 256.316406 C 251.621094 256.746094 251.222656 257.1875 250.832031 257.625 C 249.894531 258.671875 248.988281 259.738281 248.125 260.847656 C 247.738281 261.339844 247.371094 261.84375 247.003906 262.347656 C 246.191406 263.453125 245.398438 264.570312 244.652344 265.722656 C 244.285156 266.292969 243.945312 266.878906 243.597656 267.453125 C 242.917969 268.59375 242.246094 269.734375 241.628906 270.914062 C 241.28125 271.582031 240.972656 272.269531 240.648438 272.953125 C 240.101562 274.089844 239.5625 275.226562 239.082031 276.40625 C 238.757812 277.199219 238.492188 278.011719 238.199219 278.824219 C 237.796875 279.933594 237.382812 281.035156 237.042969 282.171875 C 236.753906 283.132812 236.535156 284.121094 236.292969 285.097656 C 236.039062 286.128906 235.746094 287.144531 235.539062 288.1875 C 235.296875 289.414062 235.144531 290.675781 234.964844 291.925781 C 234.847656 292.761719 234.6875 293.582031 234.601562 294.429688 C 234.394531 296.5625 234.277344 298.714844 234.277344 300.894531 C 234.277344 302.742188 234.390625 304.617188 234.5625 306.5 C 234.644531 307.464844 234.769531 308.414062 234.894531 309.367188 C 234.941406 309.734375 234.964844 310.101562 235.019531 310.476562 Z M 352.777344 300.894531 C 352.777344 330.300781 328.851562 354.21875 299.453125 354.21875 C 274.324219 354.21875 253.253906 336.730469 247.644531 313.296875 C 247.148438 311.210938 246.765625 309.128906 246.519531 307.070312 C 246.519531 307.050781 246.511719 307.03125 246.511719 307.015625 C 246.257812 304.949219 246.128906 302.902344 246.128906 300.894531 C 246.128906 299.0625 246.222656 297.257812 246.398438 295.480469 C 249.121094 268.75 271.753906 247.722656 299.179688 247.585938 C 299.1875 247.585938 299.191406 247.582031 299.199219 247.582031 C 299.285156 247.582031 299.371094 247.570312 299.453125 247.570312 C 328.851562 247.570312 352.777344 271.488281 352.777344 300.894531 Z M 299.453125 129.070312 C 299.371094 129.070312 299.285156 129.058594 299.203125 129.058594 C 299.199219 129.058594 299.1875 129.050781 299.179688 129.050781 C 271.753906 128.914062 249.125 107.886719 246.398438 81.160156 C 246.222656 79.382812 246.128906 77.574219 246.128906 75.746094 C 246.128906 73.734375 246.257812 71.691406 246.507812 69.625 C 246.507812 69.605469 246.511719 69.589844 246.511719 69.570312 C 246.765625 67.515625 247.140625 65.433594 247.636719 63.34375 C 253.253906 39.910156 274.324219 22.417969 299.453125 22.417969 C 328.851562 22.417969 352.777344 46.339844 352.777344 75.746094 C 352.777344 105.152344 328.851562 129.070312 299.453125 129.070312 Z M 299.453125 129.070312 " fill-opacity="1" fill-rule="nonzero"/></g><path fill="#ffffff" d="M 92.5 117.21875 C 94.070312 117.21875 95.578125 116.597656 96.6875 115.484375 L 114.042969 98.128906 C 115.15625 97.023438 115.777344 95.515625 115.777344 93.941406 L 115.777344 69.394531 C 115.777344 67.816406 115.15625 66.3125 114.042969 65.203125 L 96.6875 47.851562 C 95.578125 46.742188 94.070312 46.121094 92.5 46.121094 L 67.949219 46.121094 C 66.382812 46.121094 64.871094 46.742188 63.761719 47.855469 L 46.40625 65.210938 C 45.300781 66.316406 44.675781 67.824219 44.675781 69.398438 L 44.675781 93.945312 C 44.675781 95.523438 45.300781 97.027344 46.414062 98.136719 L 63.769531 115.488281 C 64.875 116.597656 66.386719 117.21875 67.957031 117.21875 Z M 56.527344 91.488281 L 56.527344 71.851562 L 70.410156 57.96875 L 90.046875 57.96875 L 103.925781 71.851562 L 103.925781 91.488281 L 90.046875 105.371094 L 70.410156 105.371094 Z M 56.527344 91.488281 " fill-opacity="1" fill-rule="nonzero"/><path fill="#ffffff" d="M 240.203125 223.871094 L 240.203125 217.945312 C 240.203125 198.722656 227.039062 182.5625 209.261719 177.878906 C 213.710938 172.695312 216.503906 166.046875 216.503906 158.695312 C 216.503906 142.359375 203.210938 129.070312 186.878906 129.070312 C 170.542969 129.070312 157.253906 142.359375 157.253906 158.695312 C 157.253906 166.046875 160.042969 172.695312 164.492188 177.878906 C 146.71875 182.5625 133.550781 198.722656 133.550781 217.945312 L 133.550781 223.871094 C 133.550781 227.144531 136.207031 229.792969 139.476562 229.792969 L 234.277344 229.792969 C 237.546875 229.792969 240.203125 227.144531 240.203125 223.871094 Z M 186.878906 140.917969 C 196.675781 140.917969 204.652344 148.894531 204.652344 158.695312 C 204.652344 168.496094 196.675781 176.46875 186.878906 176.46875 C 177.078125 176.46875 169.101562 168.496094 169.101562 158.695312 C 169.101562 148.894531 177.078125 140.917969 186.878906 140.917969 Z M 145.402344 217.945312 C 145.402344 201.609375 158.691406 188.320312 175.027344 188.320312 L 198.726562 188.320312 C 215.0625 188.320312 228.351562 201.609375 228.351562 217.945312 Z M 145.402344 217.945312 " fill-opacity="1" fill-rule="nonzero"/></svg>