<svg xmlns="http://www.w3.org/2000/svg" xmlns:xlink="http://www.w3.org/1999/xlink" width="500" zoomAndPan="magnify" viewBox="0 0 375 374.999991" height="500" preserveAspectRatio="xMidYMid meet" version="1.0"><path fill="#e7c27d" d="M 369.597656 79.535156 C 373.160156 73.53125 371.167969 65.742188 365.171875 62.175781 L 364.132812 61.550781 C 358.105469 57.984375 350.355469 59.976562 346.792969 65.980469 L 336.726562 82.980469 L 330.402344 79.207031 C 328.5625 78.136719 326.21875 78.730469 325.117188 80.574219 L 318.46875 91.78125 C 317.398438 93.59375 317.992188 95.96875 319.832031 97.039062 L 320.546875 97.488281 L 267.726562 186.566406 L 267.726562 24.785156 L 102.820312 24.785156 L 56.175781 75.046875 L 56.175781 152.621094 L 23.367188 152.621094 C 12.113281 152.621094 2.96875 161.777344 2.96875 173.039062 L 2.96875 330.066406 C 2.96875 341.328125 12.113281 350.484375 23.367188 350.484375 L 101.304688 350.484375 C 112.589844 350.484375 121.703125 341.328125 121.703125 330.066406 L 121.703125 315.558594 L 267.726562 315.558594 L 267.726562 264.050781 L 324.464844 168.40625 L 330.464844 171.972656 C 334.054688 174.109375 338.835938 172.714844 341.09375 168.878906 L 368.230469 123.167969 C 370.488281 119.300781 369.417969 114.457031 365.824219 112.316406 L 363.867188 111.160156 L 367.191406 105.570312 C 368.261719 103.726562 367.667969 101.351562 365.824219 100.28125 L 343.378906 86.90625 L 359.53125 96.503906 Z M 369.597656 79.535156 " fill-opacity="1" fill-rule="nonzero"/><path fill="#d8b479" d="M 229.871094 250.410156 L 267.726562 186.566406 L 267.726562 24.785156 L 252.019531 24.785156 C 252.019531 112.082031 239.164062 167.71875 222.121094 203.121094 C 214.398438 219.199219 205.789062 231.089844 197.121094 239.917969 C 168.289062 269.191406 138.894531 264.050781 138.894531 264.050781 C 138.894531 264.050781 138.894531 253.589844 138.894531 239.917969 C 138.894531 228.53125 138.894531 214.859375 138.894531 203.121094 C 138.894531 194.855469 138.894531 187.546875 138.894531 182.582031 C 138.894531 173.21875 134.679688 168.167969 130.078125 165.460938 C 124.613281 162.222656 118.617188 162.28125 118.617188 162.28125 C 119.238281 163.292969 119.773438 164.332031 120.21875 165.460938 C 121.199219 167.808594 121.703125 170.367188 121.703125 173.039062 L 121.703125 315.558594 L 267.726562 315.558594 L 267.726562 264.050781 L 263.835938 270.589844 C 263.835938 270.589844 251.722656 281.648438 241.121094 288.78125 C 234.945312 292.941406 229.304688 295.734375 226.839844 294.277344 C 224.347656 292.792969 224.109375 286.433594 224.792969 278.972656 C 225.980469 266.25 229.871094 250.410156 229.871094 250.410156 Z M 229.871094 250.410156 " fill-opacity="1" fill-rule="nonzero"/><path fill="#ad6a6a" d="M 96.082031 320.195312 L 96.082031 320.96875 C 96.082031 325.457031 92.457031 329.085938 87.976562 329.085938 L 36.699219 329.085938 C 32.246094 329.085938 28.621094 325.457031 28.621094 320.96875 L 28.621094 320.195312 C 28.621094 315.710938 32.246094 312.082031 36.699219 312.082031 L 87.976562 312.082031 C 92.457031 312.082031 96.082031 315.710938 96.082031 320.195312 Z M 96.082031 320.195312 " fill-opacity="1" fill-rule="nonzero"/><path fill="#e15c63" d="M 121.703125 315.558594 L 121.703125 329.085938 L 87.976562 329.085938 C 92.457031 329.085938 96.082031 325.457031 96.082031 320.96875 L 96.082031 320.195312 C 96.082031 315.710938 92.457031 312.082031 87.976562 312.082031 L 121.703125 312.082031 Z M 121.703125 315.558594 " fill-opacity="1" fill-rule="nonzero"/><path fill="#e15c63" d="M 2.96875 312.082031 L 36.699219 312.082031 C 32.246094 312.082031 28.621094 315.710938 28.621094 320.195312 L 28.621094 320.96875 C 28.621094 325.457031 32.246094 329.085938 36.699219 329.085938 L 2.96875 329.085938 Z M 2.96875 312.082031 " fill-opacity="1" fill-rule="nonzero"/><path fill="#5d5560" d="M 121.703125 329.085938 L 121.703125 330.066406 C 121.703125 341.328125 112.589844 350.484375 101.304688 350.484375 L 23.367188 350.484375 C 12.113281 350.484375 2.96875 341.328125 2.96875 330.066406 L 2.96875 329.085938 Z M 121.703125 329.085938 " fill-opacity="1" fill-rule="nonzero"/><path fill="#ffc05a" d="M 365.171875 62.175781 C 371.167969 65.742188 373.160156 73.53125 369.597656 79.535156 L 359.53125 96.503906 L 343.378906 86.90625 L 336.726562 82.980469 L 346.792969 65.980469 C 350.355469 59.976562 358.105469 57.984375 364.132812 61.550781 Z M 365.171875 62.175781 " fill-opacity="1" fill-rule="nonzero"/><path fill="#ffc05a" d="M 365.824219 112.316406 C 369.417969 114.457031 370.488281 119.300781 368.230469 123.167969 L 341.09375 168.878906 C 338.835938 172.714844 334.054688 174.109375 330.464844 171.972656 L 324.464844 168.40625 L 354.542969 117.699219 L 355.253906 118.113281 C 357.097656 119.183594 359.441406 118.589844 360.539062 116.746094 L 363.867188 111.160156 Z M 365.824219 112.316406 " fill-opacity="1" fill-rule="nonzero"/><path fill="#1ea6bc" d="M 365.824219 100.28125 C 367.667969 101.351562 368.261719 103.726562 367.191406 105.570312 L 363.867188 111.160156 L 360.539062 116.746094 C 359.441406 118.589844 357.097656 119.183594 355.253906 118.113281 L 354.542969 117.699219 L 354.542969 117.667969 L 320.546875 97.488281 L 319.832031 97.039062 C 317.992188 95.96875 317.398438 93.59375 318.46875 91.78125 L 325.117188 80.574219 C 326.21875 78.730469 328.5625 78.136719 330.402344 79.207031 L 336.726562 82.980469 L 343.378906 86.90625 Z M 365.824219 100.28125 " fill-opacity="1" fill-rule="nonzero"/><path fill="#1ea6bc" d="M 229.871094 250.410156 L 263.835938 270.589844 C 263.835938 270.589844 251.722656 281.648438 241.121094 288.78125 L 241.035156 288.632812 C 236.699219 282.152344 231.292969 278.941406 224.820312 278.972656 L 224.792969 278.972656 C 225.980469 266.25 229.871094 250.410156 229.871094 250.410156 Z M 229.871094 250.410156 " fill-opacity="1" fill-rule="nonzero"/><path fill="#655f68" d="M 241.035156 288.632812 L 241.121094 288.78125 C 234.945312 292.941406 229.304688 295.734375 226.839844 294.277344 C 224.347656 292.792969 224.109375 286.433594 224.792969 278.972656 L 224.820312 278.972656 C 231.292969 278.941406 236.699219 282.152344 241.035156 288.632812 Z M 241.035156 288.632812 " fill-opacity="1" fill-rule="nonzero"/><path fill="#655f68" d="M 354.542969 117.667969 L 354.542969 117.699219 L 324.464844 168.40625 L 267.726562 264.050781 L 263.835938 270.589844 L 229.871094 250.410156 L 267.726562 186.566406 L 320.546875 97.488281 Z M 354.542969 117.667969 " fill-opacity="1" fill-rule="nonzero"/><path fill="#b29576" d="M 102.820312 24.785156 L 102.820312 75.046875 L 56.175781 75.046875 Z M 102.820312 24.785156 " fill-opacity="1" fill-rule="nonzero"/><path fill="#e7f2f1" d="M 121.703125 239.917969 L 121.703125 312.082031 L 2.96875 312.082031 L 2.96875 180.382812 L 34.621094 180.382812 L 41.210938 190.132812 L 83.460938 190.132812 L 90.054688 180.382812 L 121.703125 180.382812 Z M 121.703125 239.917969 " fill-opacity="1" fill-rule="nonzero"/><path fill="#5d5560" d="M 120.21875 165.460938 C 121.199219 167.808594 121.703125 170.367188 121.703125 173.039062 L 121.703125 180.382812 L 90.054688 180.382812 L 83.460938 190.132812 L 41.210938 190.132812 L 34.621094 180.382812 L 2.96875 180.382812 L 2.96875 173.039062 C 2.96875 161.777344 12.113281 152.621094 23.367188 152.621094 L 101.304688 152.621094 C 109.917969 152.621094 117.25 157.941406 120.21875 165.460938 Z M 120.21875 165.460938 " fill-opacity="1" fill-rule="nonzero"/><path fill="#ad6a6a" d="M 108.582031 225.679688 L 112.023438 237.332031 L 90.972656 225.679688 L 49.910156 225.679688 L 49.910156 200.980469 L 108.582031 200.980469 Z M 108.582031 225.679688 " fill-opacity="1" fill-rule="nonzero"/><path fill="#20bab6" d="M 102.820312 244.136719 L 102.820312 287.054688 L 44.359375 287.054688 L 13.183594 302.035156 L 20.605469 287.054688 L 20.605469 244.136719 Z M 102.820312 244.136719 " fill-opacity="1" fill-rule="nonzero"/><path fill="#3a322b" d="M 120.128906 73.183594 L 223.304688 73.183594 C 224.945312 73.183594 226.273438 71.851562 226.273438 70.210938 C 226.273438 68.570312 224.945312 67.238281 223.304688 67.238281 L 120.128906 67.238281 C 118.488281 67.238281 117.160156 68.570312 117.160156 70.210938 C 117.160156 71.851562 118.488281 73.183594 120.128906 73.183594 Z M 120.128906 73.183594 " fill-opacity="1" fill-rule="nonzero"/><path fill="#3a322b" d="M 87.386719 104.882812 L 239.738281 104.882812 C 241.378906 104.882812 242.707031 103.550781 242.707031 101.910156 C 242.707031 100.269531 241.378906 98.9375 239.738281 98.9375 L 87.386719 98.9375 C 85.746094 98.9375 84.417969 100.269531 84.417969 101.910156 C 84.417969 103.550781 85.746094 104.882812 87.386719 104.882812 Z M 87.386719 104.882812 " fill-opacity="1" fill-rule="nonzero"/><path fill="#3a322b" d="M 239.734375 131.425781 L 87.386719 131.425781 C 85.746094 131.425781 84.417969 132.757812 84.417969 134.398438 C 84.417969 136.039062 85.746094 137.371094 87.386719 137.371094 L 239.738281 137.371094 C 241.378906 137.371094 242.707031 136.039062 242.707031 134.398438 C 242.707031 132.757812 241.378906 131.425781 239.734375 131.425781 Z M 239.734375 131.425781 " fill-opacity="1" fill-rule="nonzero"/><path fill="#3a322b" d="M 46.945312 200.972656 L 46.945312 225.691406 C 46.945312 227.332031 48.273438 228.664062 49.914062 228.664062 L 90.214844 228.664062 L 110.601562 239.941406 C 111.046875 240.1875 111.539062 240.3125 112.035156 240.3125 C 112.695312 240.3125 113.355469 240.089844 113.890625 239.65625 C 114.832031 238.898438 115.222656 237.652344 114.882812 236.496094 L 111.558594 225.261719 L 111.558594 200.972656 C 111.558594 199.332031 110.230469 198.003906 108.589844 198.003906 L 49.914062 198.003906 C 48.273438 198.003906 46.945312 199.332031 46.945312 200.972656 Z M 52.882812 203.945312 L 105.625 203.945312 L 105.625 225.691406 C 105.625 225.976562 105.664062 226.261719 105.746094 226.535156 L 107.136719 231.230469 L 92.417969 223.089844 C 91.980469 222.847656 91.484375 222.71875 90.984375 222.71875 L 52.882812 222.71875 Z M 52.882812 203.945312 " fill-opacity="1" fill-rule="nonzero"/><path fill="#3a322b" d="M 98.457031 213.472656 C 98.457031 211.832031 97.128906 210.5 95.488281 210.5 L 62.339844 210.5 C 60.699219 210.5 59.371094 211.832031 59.371094 213.472656 C 59.371094 215.113281 60.699219 216.445312 62.339844 216.445312 L 95.488281 216.445312 C 97.128906 216.445312 98.457031 215.113281 98.457031 213.472656 Z M 98.457031 213.472656 " fill-opacity="1" fill-rule="nonzero"/><path fill="#3a322b" d="M 33.230469 258.84375 L 87.382812 258.84375 C 89.027344 258.84375 90.351562 257.511719 90.351562 255.871094 C 90.351562 254.230469 89.027344 252.898438 87.382812 252.898438 L 33.230469 252.898438 C 31.589844 252.898438 30.261719 254.230469 30.261719 255.871094 C 30.261719 257.511719 31.589844 258.84375 33.230469 258.84375 Z M 33.230469 258.84375 " fill-opacity="1" fill-rule="nonzero"/><path fill="#3a322b" d="M 33.230469 276.488281 L 87.382812 276.488281 C 89.027344 276.488281 90.351562 275.160156 90.351562 273.519531 C 90.351562 271.878906 89.027344 270.546875 87.382812 270.546875 L 33.230469 270.546875 C 31.589844 270.546875 30.261719 271.878906 30.261719 273.519531 C 30.261719 275.160156 31.589844 276.488281 33.230469 276.488281 Z M 33.230469 276.488281 " fill-opacity="1" fill-rule="nonzero"/><path fill="#3a322b" d="M 102.828125 241.160156 L 20.609375 241.160156 C 18.964844 241.160156 17.640625 242.492188 17.640625 244.132812 L 17.640625 286.359375 L 10.527344 300.730469 C 9.964844 301.871094 10.183594 303.238281 11.078125 304.140625 C 11.648438 304.71875 12.410156 305.023438 13.1875 305.023438 C 13.625 305.023438 14.066406 304.929688 14.476562 304.730469 L 45.023438 290.027344 L 102.828125 290.027344 C 104.472656 290.027344 105.796875 288.695312 105.796875 287.054688 L 105.796875 244.132812 C 105.796875 242.492188 104.472656 241.160156 102.828125 241.160156 Z M 99.859375 284.082031 L 44.351562 284.082031 C 43.90625 284.082031 43.464844 284.183594 43.0625 284.375 L 19.679688 295.632812 L 23.273438 288.375 C 23.472656 287.964844 23.582031 287.515625 23.582031 287.054688 L 23.582031 247.105469 L 99.859375 247.105469 Z M 99.859375 284.082031 " fill-opacity="1" fill-rule="nonzero"/><path fill="#3a322b" d="M 367.890625 110.179688 L 369.734375 107.074219 C 370.664062 105.503906 370.929688 103.667969 370.476562 101.898438 C 370.03125 100.128906 368.917969 98.644531 367.347656 97.710938 L 363.589844 95.476562 L 372.140625 81.050781 C 374.273438 77.460938 374.878906 73.25 373.847656 69.203125 C 372.816406 65.152344 370.273438 61.75 366.679688 59.613281 L 365.640625 59 C 362.054688 56.863281 357.84375 56.265625 353.804688 57.292969 C 349.765625 58.324219 346.363281 60.871094 344.230469 64.464844 L 335.675781 78.890625 L 331.921875 76.660156 C 328.683594 74.738281 324.492188 75.808594 322.566406 79.046875 L 315.925781 90.25 C 314.390625 92.84375 314.796875 96.035156 316.675781 98.199219 L 270.695312 175.738281 L 270.695312 24.792969 C 270.695312 23.148438 269.367188 21.820312 267.726562 21.820312 L 102.828125 21.820312 C 102.765625 21.820312 102.707031 21.851562 102.640625 21.859375 C 102.371094 21.875 102.113281 21.925781 101.859375 22.015625 C 101.75 22.054688 101.652344 22.085938 101.554688 22.132812 C 101.316406 22.25 101.09375 22.402344 100.894531 22.578125 C 100.832031 22.632812 100.761719 22.671875 100.703125 22.730469 C 100.6875 22.746094 100.671875 22.753906 100.65625 22.769531 L 53.992188 73.035156 C 53.769531 73.277344 53.601562 73.550781 53.472656 73.84375 C 53.433594 73.917969 53.421875 74.003906 53.394531 74.085938 C 53.300781 74.347656 53.25 74.613281 53.230469 74.890625 C 53.226562 74.949219 53.195312 75 53.195312 75.0625 L 53.195312 149.65625 L 23.363281 149.65625 C 10.480469 149.65625 0 160.148438 0 173.042969 L 0 330.058594 C 0 342.957031 10.480469 353.449219 23.363281 353.449219 L 101.316406 353.449219 C 114.203125 353.449219 124.683594 342.957031 124.683594 330.058594 L 124.683594 318.535156 L 267.726562 318.535156 C 269.367188 318.535156 270.695312 317.203125 270.695312 315.5625 L 270.695312 264.878906 L 325.488281 172.472656 L 328.941406 174.523438 C 330.5625 175.488281 332.347656 175.945312 334.132812 175.945312 C 337.851562 175.945312 341.554688 173.949219 343.65625 170.40625 L 370.773438 124.671875 C 372.261719 122.160156 372.742188 119.246094 372.125 116.457031 C 371.542969 113.835938 370.03125 111.65625 367.890625 110.179688 Z M 340.785156 81.929688 L 349.339844 67.503906 C 350.660156 65.277344 352.765625 63.699219 355.273438 63.058594 C 357.789062 62.417969 360.382812 62.792969 362.617188 64.121094 L 363.65625 64.734375 C 365.878906 66.058594 367.457031 68.167969 368.09375 70.675781 C 368.734375 73.183594 368.359375 75.792969 367.035156 78.019531 L 358.484375 92.449219 L 346.976562 85.613281 Z M 321.035156 93.285156 L 327.671875 82.085938 C 327.925781 81.664062 328.472656 81.523438 328.886719 81.773438 L 346.601562 92.300781 L 358 99.078125 C 358 99.078125 358.003906 99.078125 358.003906 99.078125 L 364.3125 102.828125 C 364.578125 102.980469 364.683594 103.207031 364.722656 103.371094 C 364.765625 103.535156 364.785156 103.78125 364.625 104.042969 L 361.304688 109.640625 C 361.304688 109.644531 361.304688 109.644531 361.300781 109.644531 C 361.300781 109.648438 361.300781 109.648438 361.296875 109.652344 L 357.984375 115.242188 C 357.734375 115.660156 357.183594 115.800781 356.769531 115.550781 L 356.054688 115.125 C 356.050781 115.125 356.050781 115.125 356.046875 115.121094 L 326.085938 97.316406 L 321.34375 94.5 C 320.921875 94.25 320.785156 93.703125 321.035156 93.285156 Z M 227.550781 282.214844 C 231.0625 282.84375 234.144531 284.757812 236.867188 288.03125 C 232.714844 290.65625 229.632812 292.085938 228.425781 291.773438 C 227.488281 290.816406 227.234375 287.285156 227.550781 282.214844 Z M 241.8125 284.695312 C 237.96875 279.886719 233.371094 277.070312 228.101562 276.273438 C 228.824219 270.097656 230.101562 262.683594 231.835938 255.035156 L 258.851562 271.089844 C 252.890625 276.351562 246.914062 281.078125 241.8125 284.695312 Z M 262.8125 266.527344 L 233.941406 249.371094 L 321.589844 101.558594 L 350.460938 118.714844 L 321.898438 166.882812 C 321.894531 166.886719 321.894531 166.886719 321.894531 166.890625 Z M 99.859375 32.355469 L 99.859375 72.089844 L 62.976562 72.089844 Z M 23.363281 155.601562 L 101.316406 155.601562 C 108.1875 155.601562 114.125 159.613281 116.960938 165.410156 C 116.960938 165.421875 116.953125 165.433594 116.953125 165.453125 C 116.953125 166.289062 117.300781 167.035156 117.855469 167.574219 C 118.425781 169.300781 118.746094 171.132812 118.746094 173.042969 L 118.746094 177.410156 L 90.054688 177.410156 C 89.066406 177.410156 88.144531 177.902344 87.59375 178.714844 L 81.878906 187.167969 L 42.804688 187.167969 L 37.085938 178.714844 C 36.535156 177.898438 35.613281 177.410156 34.628906 177.410156 L 5.9375 177.410156 L 5.9375 173.042969 C 5.9375 163.425781 13.757812 155.601562 23.363281 155.601562 Z M 97.71875 326.109375 C 98.535156 324.566406 99.039062 322.835938 99.039062 320.972656 L 99.039062 320.195312 C 99.039062 318.332031 98.535156 316.601562 97.71875 315.058594 L 118.742188 315.058594 L 118.742188 326.105469 L 97.71875 326.105469 Z M 118.742188 309.121094 L 5.9375 309.121094 L 5.9375 183.359375 L 33.050781 183.359375 L 38.769531 191.8125 C 39.320312 192.628906 40.242188 193.117188 41.226562 193.117188 L 83.460938 193.117188 C 84.445312 193.117188 85.367188 192.625 85.917969 191.8125 L 91.632812 183.359375 L 118.746094 183.359375 L 118.746094 309.121094 Z M 5.9375 315.0625 L 26.960938 315.0625 C 26.148438 316.605469 25.644531 318.335938 25.644531 320.199219 L 25.644531 320.980469 C 25.644531 322.84375 26.148438 324.574219 26.960938 326.113281 L 5.9375 326.113281 Z M 31.582031 320.976562 L 31.582031 320.195312 C 31.582031 317.363281 33.882812 315.0625 36.714844 315.0625 L 87.976562 315.0625 C 90.800781 315.0625 93.105469 317.363281 93.105469 320.195312 L 93.105469 320.976562 C 93.105469 323.808594 90.804688 326.113281 87.976562 326.113281 L 36.710938 326.113281 C 33.882812 326.109375 31.582031 323.808594 31.582031 320.976562 Z M 101.316406 347.507812 L 23.363281 347.507812 C 14.429688 347.507812 7.054688 340.734375 6.058594 332.054688 L 118.621094 332.054688 C 117.628906 340.738281 110.25 347.507812 101.316406 347.507812 Z M 124.683594 312.589844 L 124.683594 242.882812 L 198.324219 242.882812 C 199.964844 242.882812 201.292969 241.550781 201.292969 239.910156 C 201.292969 238.269531 199.964844 236.9375 198.324219 236.9375 L 124.683594 236.9375 L 124.683594 206.082031 L 239.734375 206.082031 C 241.378906 206.082031 242.703125 204.75 242.703125 203.109375 C 242.703125 201.46875 241.378906 200.136719 239.734375 200.136719 L 124.683594 200.136719 L 124.683594 173.046875 C 124.683594 171.464844 124.523438 169.921875 124.21875 168.425781 L 192.21875 168.425781 C 193.859375 168.425781 195.1875 167.09375 195.1875 165.453125 C 195.1875 163.8125 193.859375 162.480469 192.21875 162.480469 L 122.136719 162.480469 C 118.273438 154.882812 110.402344 149.65625 101.316406 149.65625 L 59.132812 149.65625 L 59.132812 78.03125 L 102.828125 78.03125 C 104.472656 78.03125 105.796875 76.703125 105.796875 75.0625 L 105.796875 27.761719 L 264.757812 27.761719 L 264.757812 185.757812 L 227.320312 248.894531 C 227.242188 249.027344 227.230469 249.171875 227.171875 249.3125 C 227.117188 249.445312 227.023438 249.554688 226.988281 249.703125 C 223.148438 265.390625 217.824219 292.375 225.320312 296.828125 C 226.136719 297.3125 227.113281 297.535156 228.222656 297.535156 C 237.007812 297.535156 254.039062 283.488281 264.757812 273.785156 L 264.757812 312.589844 Z M 365.664062 121.640625 L 338.550781 167.371094 C 337.109375 169.796875 334.160156 170.714844 331.972656 169.414062 L 328.519531 167.363281 L 355.761719 121.429688 C 356.238281 121.53125 356.722656 121.617188 357.207031 121.617188 C 359.535156 121.617188 361.8125 120.425781 363.089844 118.277344 L 364.820312 115.359375 C 365.539062 115.972656 366.109375 116.757812 366.328125 117.75 C 366.617188 119.050781 366.378906 120.433594 365.664062 121.640625 Z M 365.664062 121.640625 " fill-opacity="1" fill-rule="nonzero"/></svg>