<svg xmlns="http://www.w3.org/2000/svg" xmlns:xlink="http://www.w3.org/1999/xlink" width="500" zoomAndPan="magnify" viewBox="0 0 375 374.999991" height="500" preserveAspectRatio="xMidYMid meet" version="1.0"><defs><clipPath id="id1"><path d="M 60 37.5 L 76 37.5 L 76 94 L 60 94 Z M 60 37.5 " clip-rule="nonzero"/></clipPath><clipPath id="id2"><path d="M 243 37.5 L 259 37.5 L 259 94 L 243 94 Z M 243 37.5 " clip-rule="nonzero"/></clipPath><clipPath id="id3"><path d="M 204 164 L 374 164 L 374 333.75 L 204 333.75 Z M 204 164 " clip-rule="nonzero"/></clipPath></defs><path stroke-linecap="round" transform="matrix(1.479392, 0, 0, 1.478293, -124.448747, -128.660178)" fill-opacity="1" fill="#ffffff" fill-rule="nonzero" stroke-linejoin="round" d="M 294.48557 282.932912 C 294.48557 292.456141 286.379412 300.177249 276.380057 300.177249 L 107.888153 300.177249 C 97.888798 300.177249 89.782641 292.456141 89.782641 282.932912 L 89.782641 143.437698 C 89.782641 133.917112 97.888798 126.196004 107.888153 126.196004 L 276.380057 126.196004 C 286.379412 126.196004 294.48557 133.917112 294.48557 143.437698 Z M 294.48557 282.932912 " stroke="#17142b" stroke-width="3" stroke-opacity="1" stroke-miterlimit="10"/><path stroke-linecap="round" transform="matrix(1.479392, 0, 0, 1.478293, -124.448747, -128.660178)" fill-opacity="1" fill="#e83f3f" fill-rule="nonzero" stroke-linejoin="round" d="M 294.48557 162.695547 L 294.48557 143.437698 C 294.48557 133.917112 286.379412 126.196004 276.380057 126.196004 L 107.888153 126.196004 C 97.888798 126.196004 89.782641 133.917112 89.782641 143.437698 L 89.782641 162.695547 Z M 294.48557 162.695547 " stroke="#17142b" stroke-width="3" stroke-opacity="1" stroke-miterlimit="10"/><g clip-path="url(#id1)"><path fill="#17142b" d="M 75.859375 86.410156 C 75.859375 90.527344 72.523438 93.863281 68.402344 93.863281 C 64.285156 93.863281 60.945312 90.527344 60.945312 86.410156 L 60.945312 44.960938 C 60.945312 40.847656 64.285156 37.507812 68.402344 37.507812 C 72.523438 37.507812 75.859375 40.847656 75.859375 44.960938 Z M 75.859375 86.410156 " fill-opacity="1" fill-rule="nonzero"/></g><g clip-path="url(#id2)"><path fill="#17142b" d="M 258.640625 86.410156 C 258.640625 90.527344 255.300781 93.863281 251.183594 93.863281 C 247.0625 93.863281 243.722656 90.527344 243.722656 86.410156 L 243.722656 44.960938 C 243.722656 40.847656 247.0625 37.507812 251.183594 37.507812 C 255.300781 37.507812 258.640625 40.847656 258.640625 44.960938 Z M 258.640625 86.410156 " fill-opacity="1" fill-rule="nonzero"/></g><path stroke-linecap="round" transform="matrix(1.479392, 0, 0, 1.478293, -124.448747, -128.660178)" fill="none" stroke-linejoin="round" d="M 116.118412 191.080264 L 151.80663 191.080264 " stroke="#17142b" stroke-width="3" stroke-opacity="1" stroke-miterlimit="10"/><path stroke-linecap="round" transform="matrix(1.479392, 0, 0, 1.478293, -124.448747, -128.660178)" fill="none" stroke-linejoin="round" d="M 116.118412 230.824681 L 151.80663 230.824681 " stroke="#17142b" stroke-width="3" stroke-opacity="1" stroke-miterlimit="10"/><path stroke-linecap="round" transform="matrix(1.479392, 0, 0, 1.478293, -124.448747, -128.660178)" fill="none" stroke-linejoin="round" d="M 116.118412 270.569098 L 151.80663 270.569098 " stroke="#17142b" stroke-width="3" stroke-opacity="1" stroke-miterlimit="10"/><path stroke-linecap="round" transform="matrix(1.479392, 0, 0, 1.478293, -124.448747, -128.660178)" fill="none" stroke-linejoin="round" d="M 174.289996 191.080264 L 209.978214 191.080264 " stroke="#17142b" stroke-width="3" stroke-opacity="1" stroke-miterlimit="10"/><path stroke-linecap="round" transform="matrix(1.479392, 0, 0, 1.478293, -124.448747, -128.660178)" fill="none" stroke-linejoin="round" d="M 174.289996 230.824681 L 209.978214 230.824681 " stroke="#17142b" stroke-width="3" stroke-opacity="1" stroke-miterlimit="10"/><path stroke-linecap="round" transform="matrix(1.479392, 0, 0, 1.478293, -124.448747, -128.660178)" fill="none" stroke-linejoin="round" d="M 174.289996 270.569098 L 209.978214 270.569098 " stroke="#17142b" stroke-width="3" stroke-opacity="1" stroke-miterlimit="10"/><path stroke-linecap="round" transform="matrix(1.479392, 0, 0, 1.478293, -124.448747, -128.660178)" fill="none" stroke-linejoin="round" d="M 232.46158 191.080264 L 268.149798 191.080264 " stroke="#17142b" stroke-width="3" stroke-opacity="1" stroke-miterlimit="10"/><path stroke-linecap="round" transform="matrix(1.479392, 0, 0, 1.478293, -124.448747, -128.660178)" fill="none" stroke-linejoin="round" d="M 232.46158 230.824681 L 268.149798 230.824681 " stroke="#17142b" stroke-width="3" stroke-opacity="1" stroke-miterlimit="10"/><path stroke-linecap="round" transform="matrix(1.479392, 0, 0, 1.478293, -124.448747, -128.660178)" fill="none" stroke-linejoin="round" d="M 232.46158 270.569098 L 268.149798 270.569098 " stroke="#17142b" stroke-width="3" stroke-opacity="1" stroke-miterlimit="10"/><path fill="#e83f3f" d="M 371.765625 249.257812 C 371.765625 250.605469 371.734375 251.949219 371.667969 253.292969 C 371.601562 254.640625 371.5 255.980469 371.371094 257.320312 C 371.238281 258.660156 371.074219 259.996094 370.875 261.328125 C 370.675781 262.660156 370.445312 263.988281 370.183594 265.308594 C 369.921875 266.628906 369.625 267.941406 369.296875 269.246094 C 368.972656 270.554688 368.613281 271.851562 368.222656 273.136719 C 367.828125 274.425781 367.40625 275.703125 366.953125 276.972656 C 366.5 278.238281 366.015625 279.496094 365.5 280.738281 C 364.984375 281.984375 364.4375 283.214844 363.863281 284.429688 C 363.285156 285.648438 362.679688 286.851562 362.046875 288.039062 C 361.410156 289.226562 360.746094 290.394531 360.054688 291.550781 C 359.359375 292.707031 358.640625 293.84375 357.890625 294.960938 C 357.144531 296.082031 356.367188 297.183594 355.566406 298.261719 C 354.761719 299.34375 353.933594 300.40625 353.078125 301.445312 C 352.222656 302.488281 351.34375 303.507812 350.4375 304.503906 C 349.535156 305.5 348.605469 306.476562 347.652344 307.429688 C 346.699219 308.378906 345.726562 309.308594 344.726562 310.210938 C 343.726562 311.117188 342.707031 311.996094 341.667969 312.851562 C 340.625 313.703125 339.5625 314.53125 338.480469 315.335938 C 337.398438 316.136719 336.296875 316.910156 335.175781 317.660156 C 334.058594 318.40625 332.917969 319.128906 331.765625 319.820312 C 330.609375 320.511719 329.4375 321.175781 328.246094 321.808594 C 327.058594 322.445312 325.855469 323.050781 324.636719 323.625 C 323.421875 324.199219 322.1875 324.746094 320.945312 325.261719 C 319.699219 325.777344 318.441406 326.261719 317.175781 326.714844 C 315.90625 327.167969 314.625 327.589844 313.335938 327.980469 C 312.046875 328.371094 310.75 328.730469 309.441406 329.058594 C 308.136719 329.386719 306.820312 329.679688 305.5 329.941406 C 304.179688 330.207031 302.851562 330.4375 301.519531 330.632812 C 300.1875 330.832031 298.851562 330.996094 297.507812 331.128906 C 296.167969 331.257812 294.824219 331.359375 293.480469 331.425781 C 292.132812 331.492188 290.785156 331.523438 289.4375 331.523438 C 288.09375 331.523438 286.746094 331.492188 285.398438 331.425781 C 284.054688 331.359375 282.710938 331.257812 281.371094 331.128906 C 280.027344 330.996094 278.691406 330.832031 277.359375 330.632812 C 276.027344 330.4375 274.699219 330.207031 273.378906 329.941406 C 272.058594 329.679688 270.742188 329.386719 269.4375 329.058594 C 268.128906 328.730469 266.832031 328.371094 265.542969 327.980469 C 264.25 327.589844 262.972656 327.167969 261.703125 326.714844 C 260.4375 326.261719 259.179688 325.777344 257.933594 325.261719 C 256.691406 324.746094 255.457031 324.199219 254.238281 323.625 C 253.023438 323.050781 251.820312 322.445312 250.628906 321.808594 C 249.441406 321.175781 248.269531 320.511719 247.113281 319.820312 C 245.960938 319.128906 244.820312 318.40625 243.699219 317.660156 C 242.582031 316.910156 241.480469 316.136719 240.398438 315.335938 C 239.316406 314.53125 238.253906 313.703125 237.210938 312.851562 C 236.171875 311.996094 235.152344 311.117188 234.152344 310.210938 C 233.152344 309.308594 232.179688 308.378906 231.226562 307.429688 C 230.273438 306.476562 229.34375 305.5 228.4375 304.503906 C 227.535156 303.507812 226.65625 302.488281 225.800781 301.445312 C 224.945312 300.40625 224.117188 299.34375 223.3125 298.261719 C 222.511719 297.183594 221.734375 296.082031 220.988281 294.960938 C 220.238281 293.84375 219.519531 292.707031 218.824219 291.550781 C 218.132812 290.394531 217.46875 289.226562 216.832031 288.039062 C 216.199219 286.851562 215.59375 285.648438 215.015625 284.429688 C 214.441406 283.214844 213.894531 281.984375 213.378906 280.738281 C 212.863281 279.496094 212.378906 278.238281 211.925781 276.972656 C 211.472656 275.703125 211.046875 274.425781 210.65625 273.136719 C 210.265625 271.851562 209.90625 270.554688 209.578125 269.246094 C 209.253906 267.941406 208.957031 266.628906 208.695312 265.308594 C 208.433594 263.988281 208.203125 262.660156 208.003906 261.328125 C 207.804688 259.996094 207.640625 258.660156 207.507812 257.320312 C 207.378906 255.980469 207.277344 254.640625 207.210938 253.292969 C 207.144531 251.949219 207.113281 250.605469 207.113281 249.257812 C 207.113281 247.910156 207.144531 246.566406 207.210938 245.222656 C 207.277344 243.875 207.378906 242.535156 207.507812 241.195312 C 207.640625 239.855469 207.804688 238.519531 208.003906 237.1875 C 208.203125 235.855469 208.433594 234.53125 208.695312 233.207031 C 208.957031 231.886719 209.253906 230.574219 209.578125 229.269531 C 209.90625 227.964844 210.265625 226.667969 210.65625 225.378906 C 211.046875 224.089844 211.472656 222.8125 211.925781 221.542969 C 212.378906 220.277344 212.863281 219.019531 213.378906 217.777344 C 213.894531 216.53125 214.441406 215.300781 215.015625 214.085938 C 215.59375 212.867188 216.199219 211.664062 216.832031 210.476562 C 217.46875 209.289062 218.132812 208.121094 218.824219 206.964844 C 219.519531 205.808594 220.238281 204.671875 220.988281 203.554688 C 221.734375 202.433594 222.511719 201.332031 223.3125 200.253906 C 224.117188 199.171875 224.945312 198.109375 225.800781 197.070312 C 226.65625 196.027344 227.535156 195.007812 228.4375 194.011719 C 229.34375 193.015625 230.273438 192.039062 231.226562 191.085938 C 232.179688 190.136719 233.152344 189.207031 234.152344 188.304688 C 235.152344 187.398438 236.171875 186.519531 237.210938 185.664062 C 238.253906 184.8125 239.316406 183.984375 240.398438 183.183594 C 241.480469 182.378906 242.582031 181.605469 243.699219 180.855469 C 244.820312 180.109375 245.960938 179.390625 247.113281 178.695312 C 248.269531 178.003906 249.441406 177.339844 250.628906 176.707031 C 251.820312 176.070312 253.023438 175.464844 254.238281 174.890625 C 255.457031 174.316406 256.691406 173.769531 257.933594 173.253906 C 259.179688 172.738281 260.4375 172.253906 261.703125 171.800781 C 262.972656 171.347656 264.25 170.925781 265.542969 170.535156 C 266.832031 170.144531 268.128906 169.785156 269.4375 169.457031 C 270.742188 169.128906 272.058594 168.835938 273.378906 168.574219 C 274.699219 168.3125 276.027344 168.082031 277.359375 167.882812 C 278.691406 167.683594 280.027344 167.519531 281.371094 167.390625 C 282.710938 167.257812 284.054688 167.15625 285.398438 167.089844 C 286.746094 167.027344 288.09375 166.992188 289.4375 166.992188 C 290.785156 166.992188 292.132812 167.027344 293.480469 167.089844 C 294.824219 167.15625 296.167969 167.257812 297.507812 167.390625 C 298.851562 167.519531 300.1875 167.683594 301.519531 167.882812 C 302.851562 168.082031 304.179688 168.3125 305.5 168.574219 C 306.820312 168.835938 308.136719 169.128906 309.441406 169.457031 C 310.75 169.785156 312.046875 170.144531 313.335938 170.535156 C 314.625 170.925781 315.90625 171.347656 317.175781 171.800781 C 318.441406 172.253906 319.699219 172.738281 320.945312 173.253906 C 322.1875 173.769531 323.421875 174.316406 324.636719 174.890625 C 325.855469 175.464844 327.058594 176.070312 328.246094 176.707031 C 329.4375 177.339844 330.609375 178.003906 331.765625 178.695312 C 332.917969 179.390625 334.058594 180.109375 335.175781 180.855469 C 336.296875 181.605469 337.398438 182.378906 338.480469 183.183594 C 339.5625 183.984375 340.625 184.8125 341.667969 185.667969 C 342.707031 186.519531 343.726562 187.398438 344.726562 188.304688 C 345.726562 189.207031 346.699219 190.136719 347.652344 191.085938 C 348.605469 192.039062 349.535156 193.015625 350.4375 194.011719 C 351.34375 195.007812 352.222656 196.027344 353.078125 197.070312 C 353.933594 198.109375 354.761719 199.171875 355.566406 200.253906 C 356.367188 201.332031 357.144531 202.433594 357.890625 203.554688 C 358.640625 204.671875 359.359375 205.808594 360.054688 206.964844 C 360.746094 208.121094 361.410156 209.292969 362.046875 210.476562 C 362.679688 211.664062 363.285156 212.867188 363.863281 214.085938 C 364.4375 215.300781 364.984375 216.53125 365.5 217.777344 C 366.015625 219.019531 366.5 220.277344 366.953125 221.542969 C 367.40625 222.8125 367.828125 224.089844 368.222656 225.378906 C 368.613281 226.667969 368.972656 227.964844 369.296875 229.269531 C 369.625 230.574219 369.921875 231.886719 370.183594 233.207031 C 370.445312 234.53125 370.675781 235.855469 370.875 237.1875 C 371.074219 238.519531 371.238281 239.855469 371.371094 241.195312 C 371.5 242.535156 371.601562 243.875 371.667969 245.222656 C 371.734375 246.566406 371.765625 247.910156 371.765625 249.257812 Z M 371.765625 249.257812 " fill-opacity="1" fill-rule="nonzero"/><g clip-path="url(#id3)"><path stroke-linecap="round" transform="matrix(1.479392, 0, 0, 1.478293, -124.448747, -128.660178)" fill="none" stroke-linejoin="round" d="M 335.417706 255.644794 C 335.417706 256.556423 335.396582 257.465411 335.351695 258.374398 C 335.306807 259.286028 335.238156 260.192373 335.151021 261.098718 C 335.061246 262.005063 334.950348 262.908766 334.815685 263.809826 C 334.681022 264.710886 334.525236 265.609304 334.348327 266.502437 C 334.171417 267.39557 333.970744 268.283418 333.748946 269.165981 C 333.52979 270.051187 333.286869 270.928465 333.022825 271.797817 C 332.75614 272.669811 332.470972 273.533877 332.164681 274.392659 C 331.85839 275.248798 331.530975 276.099653 331.182436 276.939937 C 330.833898 277.782865 330.464236 278.615222 330.076091 279.43701 C 329.685306 280.261441 329.276037 281.075302 328.848285 281.878593 C 328.417893 282.681884 327.969018 283.471963 327.50166 284.254115 C 327.031661 285.036267 326.54582 285.805207 326.038855 286.560935 C 325.53453 287.319305 325.009082 288.064463 324.467792 288.793767 C 323.923861 289.525714 323.364087 290.244448 322.78583 290.947328 C 322.207573 291.65285 321.613474 292.342517 321.000891 293.016331 C 320.390949 293.690144 319.762524 294.350745 319.118256 294.995492 C 318.473988 295.637597 317.816518 296.266489 317.140564 296.876885 C 316.464611 297.489923 315.775456 298.084464 315.073098 298.663151 C 314.3681 299.239195 313.6499 299.799385 312.918497 300.343721 C 312.187095 300.885414 311.44249 301.40861 310.684683 301.915952 C 309.929516 302.420651 309.158507 302.909496 308.379577 303.377202 C 307.598006 303.844907 306.805873 304.294116 306.000538 304.722186 C 305.197844 305.152898 304.384588 305.562471 303.56077 305.950904 C 302.739592 306.339338 301.905212 306.709275 301.065552 307.058072 C 300.223251 307.40687 299.373028 307.734528 298.517525 308.041047 C 297.659381 308.347566 296.793316 308.632946 295.92197 308.897186 C 295.050624 309.161427 294.173997 309.404528 293.289449 309.62649 C 292.407541 309.848452 291.517712 310.046633 290.625243 310.223674 C 289.732773 310.403357 288.835023 310.559259 287.934632 310.691379 C 287.034241 310.826142 286.13121 310.937123 285.222898 311.026965 C 284.317226 311.114164 283.408914 311.182867 282.500602 311.227788 C 281.589649 311.272709 280.678697 311.293848 279.767744 311.293848 C 278.859432 311.293848 277.948479 311.272709 277.037527 311.227788 C 276.129215 311.182867 275.220903 311.114164 274.315231 311.026965 C 273.406919 310.937123 272.503887 310.826142 271.603497 310.691379 C 270.703106 310.559259 269.805355 310.403357 268.912886 310.223674 C 268.020416 310.046633 267.130587 309.848452 266.24868 309.62649 C 265.364131 309.404528 264.487505 309.161427 263.616159 308.897186 C 262.742172 308.632946 261.878748 308.347566 261.020604 308.041047 C 260.165101 307.734528 259.314878 307.40687 258.472577 307.058072 C 257.632916 306.709275 256.798537 306.339338 255.974719 305.950904 C 255.153541 305.562471 254.340285 305.152898 253.53495 304.722186 C 252.732256 304.294116 251.940123 303.844907 251.158552 303.377202 C 250.379621 302.909496 249.608612 302.420651 248.850805 301.915952 C 248.095639 301.40861 247.351034 300.885414 246.619632 300.343721 C 245.888229 299.799385 245.170029 299.239195 244.465031 298.663151 C 243.762673 298.084464 243.073518 297.489923 242.397564 296.876885 C 241.721611 296.266489 241.064141 295.637597 240.419873 294.995492 C 239.775605 294.350745 239.14718 293.690144 238.534597 293.016331 C 237.924655 292.342517 237.330556 291.65285 236.752299 290.947328 C 236.174042 290.244448 235.614268 289.525714 235.070337 288.793767 C 234.529046 288.064463 234.003598 287.319305 233.499274 286.560935 C 232.992309 285.805207 232.506468 285.036267 232.036469 284.254115 C 231.569111 283.471963 231.120235 282.681884 230.689843 281.878593 C 230.262092 281.075302 229.852823 280.261441 229.462038 279.43701 C 229.073893 278.615222 228.704231 277.782865 228.355692 276.939937 C 228.007154 276.099653 227.679739 275.248798 227.373448 274.392659 C 227.067157 273.533877 226.779348 272.669811 226.515304 271.797817 C 226.25126 270.928465 226.008339 270.051187 225.786542 269.165981 C 225.567385 268.283418 225.366712 267.39557 225.189802 266.502437 C 225.012892 265.609304 224.857106 264.710886 224.722444 263.809826 C 224.587781 262.908766 224.476883 262.005063 224.387108 261.098718 C 224.299973 260.192373 224.231321 259.286028 224.186434 258.374398 C 224.141546 257.465411 224.120423 256.556423 224.120423 255.644794 C 224.120423 254.733164 224.141546 253.824176 224.186434 252.915189 C 224.231321 252.003559 224.299973 251.097214 224.387108 250.190869 C 224.476883 249.284524 224.587781 248.380822 224.722444 247.479761 C 224.857106 246.578701 225.012892 245.682926 225.189802 244.787151 C 225.366712 243.894018 225.567385 243.006169 225.786542 242.123606 C 226.008339 241.241043 226.25126 240.363764 226.515304 239.49177 C 226.779348 238.619777 227.067157 237.75571 227.373448 236.896929 C 227.679739 236.040789 228.007154 235.189935 228.355692 234.34965 C 228.704231 233.506723 229.073893 232.674365 229.462038 231.852577 C 229.852823 231.028146 230.262092 230.214286 230.689843 229.410994 C 231.120235 228.607703 231.569111 227.817624 232.036469 227.035472 C 232.506468 226.25332 232.992309 225.48438 233.499274 224.728652 C 234.003598 223.970282 234.529046 223.225124 235.070337 222.49582 C 235.614268 221.763874 236.174042 221.04514 236.752299 220.34226 C 237.330556 219.636738 237.924655 218.94707 238.534597 218.273256 C 239.14718 217.599443 239.775605 216.938842 240.419873 216.294095 C 241.064141 215.65199 241.721611 215.023098 242.397564 214.412702 C 243.073518 213.799664 243.762673 213.205123 244.465031 212.626436 C 245.170029 212.050392 245.888229 211.490202 246.619632 210.948509 C 247.351034 210.404174 248.095639 209.880977 248.850805 209.373636 C 249.608612 208.868936 250.379621 208.382734 251.158552 207.912386 C 251.940123 207.44468 252.732256 206.995471 253.53495 206.567401 C 254.340285 206.136689 255.153541 205.727116 255.974719 205.338683 C 256.798537 204.950249 257.632916 204.580313 258.472577 204.231515 C 259.314878 203.882718 260.165101 203.555059 261.020604 203.24854 C 261.878748 202.942021 262.742172 202.656642 263.616159 202.392401 C 264.487505 202.12816 265.364131 201.885059 266.24868 201.663097 C 267.130587 201.441135 268.020416 201.242955 268.912886 201.065914 C 269.805355 200.888872 270.703106 200.732971 271.603497 200.598208 C 272.503887 200.463445 273.406919 200.352464 274.315231 200.265265 C 275.220903 200.175423 276.129215 200.10672 277.037527 200.0618 C 277.948479 200.019521 278.859432 199.995739 279.767744 199.995739 C 280.678697 199.995739 281.589649 200.019521 282.500602 200.0618 C 283.408914 200.10672 284.317226 200.175423 285.222898 200.265265 C 286.13121 200.352464 287.034241 200.463445 287.934632 200.598208 C 288.835023 200.732971 289.732773 200.888872 290.625243 201.065914 C 291.517712 201.242955 292.407541 201.441135 293.289449 201.663097 C 294.173997 201.885059 295.050624 202.12816 295.92197 202.392401 C 296.793316 202.656642 297.659381 202.942021 298.517525 203.24854 C 299.373028 203.555059 300.223251 203.882718 301.065552 204.231515 C 301.905212 204.580313 302.739592 204.950249 303.56077 205.338683 C 304.384588 205.727116 305.197844 206.136689 306.000538 206.567401 C 306.805873 206.995471 307.598006 207.44468 308.379577 207.912386 C 309.158507 208.382734 309.929516 208.868936 310.684683 209.373636 C 311.44249 209.880977 312.187095 210.404174 312.918497 210.948509 C 313.6499 211.490202 314.3681 212.050392 315.073098 212.629079 C 315.775456 213.205123 316.464611 213.799664 317.140564 214.412702 C 317.816518 215.023098 318.473988 215.65199 319.118256 216.294095 C 319.762524 216.938842 320.390949 217.599443 321.000891 218.273256 C 321.613474 218.94707 322.207573 219.636738 322.78583 220.34226 C 323.364087 221.04514 323.923861 221.763874 324.467792 222.49582 C 325.009082 223.225124 325.53453 223.970282 326.038855 224.728652 C 326.54582 225.48438 327.031661 226.25332 327.50166 227.035472 C 327.969018 227.817624 328.417893 228.610346 328.848285 229.410994 C 329.276037 230.214286 329.685306 231.028146 330.076091 231.852577 C 330.464236 232.674365 330.833898 233.506723 331.182436 234.34965 C 331.530975 235.189935 331.85839 236.040789 332.164681 236.896929 C 332.470972 237.75571 332.75614 238.619777 333.022825 239.49177 C 333.286869 240.363764 333.52979 241.241043 333.748946 242.123606 C 333.970744 243.006169 334.171417 243.894018 334.348327 244.787151 C 334.525236 245.682926 334.681022 246.578701 334.815685 247.479761 C 334.950348 248.380822 335.061246 249.284524 335.151021 250.190869 C 335.238156 251.097214 335.306807 252.003559 335.351695 252.915189 C 335.396582 253.824176 335.417706 254.733164 335.417706 255.644794 Z M 335.417706 255.644794 " stroke="#17142b" stroke-width="3" stroke-opacity="1" stroke-miterlimit="10"/></g><path stroke-linecap="round" transform="matrix(1.479392, 0, 0, 1.478293, -124.448747, -128.660178)" fill-opacity="1" fill="#ffffff" fill-rule="nonzero" stroke-linejoin="round" d="M 325.067172 255.644794 C 325.067172 256.38731 325.048689 257.127183 325.014363 257.869699 C 324.977397 258.609572 324.921948 259.349446 324.850656 260.086677 C 324.776723 260.823908 324.686948 261.558497 324.57869 262.293085 C 324.467792 263.025031 324.34105 263.756978 324.198467 264.483639 C 324.053242 265.210301 323.889535 265.93432 323.709985 266.653054 C 323.530435 267.371788 323.332402 268.085237 323.118526 268.796044 C 322.902009 269.504209 322.669651 270.209731 322.418808 270.907326 C 322.170607 271.604921 321.903922 272.297231 321.618754 272.981614 C 321.336227 273.665997 321.035217 274.342453 320.718364 275.013624 C 320.401511 275.684795 320.068815 276.345396 319.720276 277.000713 C 319.369098 277.653387 319.004717 278.298134 318.624493 278.934953 C 318.241629 279.569131 317.845562 280.195381 317.433653 280.813703 C 317.021744 281.429384 316.593993 282.034495 316.153039 282.631678 C 315.712085 283.226219 315.255289 283.810191 314.78529 284.383593 C 314.315291 284.956995 313.83209 285.517185 313.333047 286.066805 C 312.836643 286.616425 312.324398 287.152834 311.79895 287.67603 C 311.276142 288.201868 310.740132 288.711853 310.19092 289.211267 C 309.641708 289.708039 309.079294 290.1916 308.506318 290.661948 C 307.933342 291.132296 307.349804 291.589432 306.753064 292.030714 C 306.158965 292.471995 305.551663 292.900065 304.93644 293.309638 C 304.318577 293.721853 303.692792 294.118214 303.056445 294.501363 C 302.422739 294.881869 301.775831 295.246521 301.123641 295.595318 C 300.468812 295.946758 299.806061 296.279701 299.138029 296.59679 C 298.467356 296.913879 297.788763 297.21247 297.104888 297.49785 C 296.418373 297.780587 295.726577 298.04747 295.029501 298.295856 C 294.332424 298.546885 293.627426 298.779417 292.919787 298.993451 C 292.209508 299.210129 291.493948 299.408309 290.775748 299.587993 C 290.057548 299.767676 289.334067 299.928863 288.605305 300.074195 C 287.879183 300.219527 287.14778 300.346363 286.416378 300.454702 C 285.682335 300.56304 284.945652 300.655524 284.208968 300.726869 C 283.472285 300.798214 282.732961 300.853705 281.990997 300.890698 C 281.251673 300.927692 280.509708 300.946189 279.767744 300.946189 C 279.02842 300.946189 278.286456 300.927692 277.547132 300.890698 C 276.805168 300.853705 276.065844 300.798214 275.329161 300.726869 C 274.592477 300.655524 273.855794 300.56304 273.121751 300.454702 C 272.387708 300.346363 271.658946 300.219527 270.932824 300.074195 C 270.204062 299.928863 269.480581 299.767676 268.762381 299.587993 C 268.04418 299.408309 267.328621 299.210129 266.618342 298.993451 C 265.910703 298.779417 265.205705 298.546885 264.508628 298.295856 C 263.808911 298.04747 263.119756 297.780587 262.433241 297.49785 C 261.749366 297.21247 261.070772 296.913879 260.4001 296.59679 C 259.732068 296.279701 259.069317 295.946758 258.414487 295.595318 C 257.762298 295.246521 257.11539 294.881869 256.481684 294.501363 C 255.845337 294.118214 255.219552 293.721853 254.601689 293.309638 C 253.986466 292.900065 253.379164 292.471995 252.785064 292.030714 C 252.188324 291.589432 251.604787 291.132296 251.031811 290.661948 C 250.458835 290.1916 249.896421 289.708039 249.347209 289.211267 C 248.797997 288.711853 248.261987 288.201868 247.736539 287.67603 C 247.213731 287.152834 246.701485 286.616425 246.205082 286.066805 C 245.706039 285.517185 245.222838 284.956995 244.752839 284.383593 C 244.28284 283.810191 243.826044 283.226219 243.38509 282.631678 C 242.944136 282.034495 242.516384 281.429384 242.104475 280.813703 C 241.692566 280.195381 241.2965 279.569131 240.913636 278.934953 C 240.533412 278.298134 240.169031 277.653387 239.817852 277.000713 C 239.469314 276.345396 239.136618 275.684795 238.819765 275.013624 C 238.502912 274.342453 238.201902 273.665997 237.919374 272.981614 C 237.634207 272.297231 237.367522 271.604921 237.11932 270.907326 C 236.868478 270.209731 236.636119 269.504209 236.419603 268.796044 C 236.205727 268.085237 236.007694 267.371788 235.828144 266.653054 C 235.648594 265.93432 235.484887 265.210301 235.339662 264.483639 C 235.197078 263.756978 235.070337 263.025031 234.959439 262.293085 C 234.85118 261.558497 234.761405 260.823908 234.687473 260.086677 C 234.616181 259.349446 234.560732 258.609572 234.523766 257.869699 C 234.48944 257.127183 234.470957 256.38731 234.470957 255.644794 C 234.470957 254.90492 234.48944 254.165047 234.523766 253.422531 C 234.560732 252.682657 234.616181 251.942784 234.687473 251.205553 C 234.761405 250.468322 234.85118 249.733733 234.959439 248.999144 C 235.070337 248.267198 235.197078 247.535252 235.339662 246.808591 C 235.484887 246.081929 235.648594 245.35791 235.828144 244.639176 C 236.007694 243.920442 236.205727 243.206992 236.419603 242.496185 C 236.636119 241.788021 236.868478 241.082498 237.11668 240.384903 C 237.367522 239.687308 237.634207 238.994998 237.919374 238.310615 C 238.201902 237.626232 238.502912 236.947134 238.819765 236.278606 C 239.136618 235.607435 239.469314 234.946833 239.817852 234.291517 C 240.169031 233.638843 240.533412 232.994096 240.913636 232.357276 C 241.2965 231.720457 241.692566 231.096849 242.104475 230.478526 C 242.516384 229.862846 242.944136 229.257735 243.38509 228.660551 C 243.826044 228.06601 244.28284 227.482039 244.752839 226.908637 C 245.222838 226.335235 245.706039 225.775045 246.205082 225.225425 C 246.701485 224.675804 247.213731 224.139396 247.736539 223.613557 C 248.261987 223.090361 248.797997 222.580377 249.347209 222.080962 C 249.896421 221.58419 250.458835 221.10063 251.031811 220.630282 C 251.604787 220.159934 252.188324 219.702798 252.785064 219.261516 C 253.379164 218.820234 253.986466 218.392165 254.601689 217.979949 C 255.219552 217.570377 255.845337 217.174016 256.481684 216.790867 C 257.11539 216.410361 257.762298 216.045709 258.414487 215.696911 C 259.069317 215.345471 259.732068 215.012528 260.4001 214.69544 C 261.070772 214.378351 261.749366 214.079759 262.433241 213.79438 C 263.119756 213.511642 263.808911 213.244759 264.508628 212.993731 C 265.205705 212.745345 265.910703 212.512813 266.618342 212.298778 C 267.328621 212.082101 268.04418 211.883921 268.762381 211.704237 C 269.480581 211.524553 270.204062 211.360724 270.932824 211.218034 C 271.658946 211.072702 272.387708 210.945867 273.121751 210.837528 C 273.855794 210.72919 274.592477 210.636705 275.329161 210.56536 C 276.065844 210.491373 276.805168 210.438525 277.547132 210.401531 C 278.286456 210.364538 279.02842 210.346041 279.767744 210.346041 C 280.509708 210.346041 281.251673 210.364538 281.990997 210.401531 C 282.732961 210.438525 283.472285 210.491373 284.208968 210.56536 C 284.945652 210.636705 285.682335 210.72919 286.416378 210.837528 C 287.14778 210.945867 287.879183 211.072702 288.605305 211.218034 C 289.334067 211.360724 290.057548 211.524553 290.775748 211.704237 C 291.493948 211.883921 292.209508 212.082101 292.919787 212.298778 C 293.627426 212.512813 294.332424 212.745345 295.029501 212.993731 C 295.726577 213.244759 296.418373 213.511642 297.104888 213.79438 C 297.788763 214.079759 298.467356 214.378351 299.138029 214.69544 C 299.806061 215.012528 300.468812 215.345471 301.123641 215.696911 C 301.775831 216.045709 302.422739 216.410361 303.056445 216.790867 C 303.692792 217.174016 304.318577 217.570377 304.93644 217.979949 C 305.551663 218.392165 306.158965 218.820234 306.753064 219.261516 C 307.349804 219.702798 307.933342 220.159934 308.506318 220.630282 C 309.079294 221.10063 309.641708 221.58419 310.19092 222.080962 C 310.740132 222.580377 311.276142 223.090361 311.79895 223.613557 C 312.324398 224.139396 312.836643 224.675804 313.333047 225.225425 C 313.83209 225.775045 314.315291 226.335235 314.78529 226.908637 C 315.255289 227.482039 315.712085 228.06601 316.153039 228.660551 C 316.593993 229.257735 317.021744 229.862846 317.433653 230.478526 C 317.845562 231.096849 318.241629 231.720457 318.624493 232.357276 C 319.004717 232.994096 319.369098 233.638843 319.720276 234.291517 C 320.068815 234.946833 320.401511 235.607435 320.718364 236.278606 C 321.035217 236.947134 321.336227 237.626232 321.618754 238.310615 C 321.903922 238.994998 322.170607 239.687308 322.418808 240.384903 C 322.669651 241.082498 322.902009 241.788021 323.118526 242.496185 C 323.332402 243.206992 323.530435 243.920442 323.709985 244.639176 C 323.889535 245.35791 324.053242 246.081929 324.198467 246.808591 C 324.34105 247.535252 324.467792 248.267198 324.57869 248.999144 C 324.686948 249.733733 324.776723 250.468322 324.850656 251.205553 C 324.921948 251.942784 324.977397 252.682657 325.014363 253.422531 C 325.048689 254.165047 325.067172 254.90492 325.067172 255.644794 Z M 325.067172 255.644794 " stroke="#17142b" stroke-width="3" stroke-opacity="1" stroke-miterlimit="10"/><path stroke-linecap="round" transform="matrix(1.479392, 0, 0, 1.478293, -124.448747, -128.660178)" fill="none" stroke-linejoin="round" d="M 280.126844 204.812844 C 280.126844 204.812844 331.317099 206.776151 330.42463 258.094303 " stroke="#ffffff" stroke-width="3" stroke-opacity="1" stroke-miterlimit="10"/><path stroke-linecap="round" transform="matrix(1.479392, 0, 0, 1.478293, -124.448747, -128.660178)" fill="none" stroke-linejoin="round" d="M 280.126844 306.659069 C 280.126844 306.659069 320.435836 307.369876 330.42463 264.922278 " stroke="#ffffff" stroke-width="3" stroke-opacity="1" stroke-miterlimit="10"/><path stroke-linecap="round" transform="matrix(1.479392, 0, 0, 1.478293, -124.448747, -128.660178)" fill="none" stroke-linejoin="round" d="M 279.767744 225.368114 L 279.767744 250.293923 " stroke="#17142b" stroke-width="3" stroke-opacity="1" stroke-miterlimit="10"/><path stroke-linecap="round" transform="matrix(1.479392, 0, 0, 1.478293, -124.448747, -128.660178)" fill="none" stroke-linejoin="round" d="M 261.514367 256.284256 L 278.48713 256.284256 " stroke="#17142b" stroke-width="3" stroke-opacity="1" stroke-miterlimit="10"/><path stroke-linecap="round" transform="matrix(1.479392, 0, 0, 1.478293, -124.448747, -128.660178)" fill="none" stroke-linejoin="round" d="M 279.767744 221.515488 L 279.767744 212.827259 " stroke="#17142b" stroke-width="3" stroke-opacity="1" stroke-miterlimit="10"/><path stroke-linecap="round" transform="matrix(1.479392, 0, 0, 1.478293, -124.448747, -128.660178)" fill="none" stroke-linejoin="round" d="M 279.767744 298.46497 L 279.767744 289.7741 " stroke="#17142b" stroke-width="3" stroke-opacity="1" stroke-miterlimit="10"/><path stroke-linecap="round" transform="matrix(1.479392, 0, 0, 1.478293, -124.448747, -128.660178)" fill="none" stroke-linejoin="round" d="M 313.898101 255.644794 L 322.587797 255.644794 " stroke="#17142b" stroke-width="3" stroke-opacity="1" stroke-miterlimit="10"/><path stroke-linecap="round" transform="matrix(1.479392, 0, 0, 1.478293, -124.448747, -128.660178)" fill="none" stroke-linejoin="round" d="M 236.947692 255.644794 L 245.640028 255.644794 " stroke="#17142b" stroke-width="3" stroke-opacity="1" stroke-miterlimit="10"/><path stroke-linecap="round" transform="matrix(1.479392, 0, 0, 1.478293, -124.448747, -128.660178)" fill-opacity="1" fill="#e83f3f" fill-rule="nonzero" stroke-linejoin="round" d="M 285.119921 255.644794 C 285.119921 255.996234 285.085595 256.345031 285.016943 256.688544 C 284.948292 257.034699 284.847955 257.367642 284.713293 257.692658 C 284.57863 258.017674 284.412282 258.326835 284.216889 258.6175 C 284.024137 258.910807 283.80234 259.180332 283.551498 259.428718 C 283.303296 259.677104 283.033971 259.899066 282.740882 260.094604 C 282.450434 260.290142 282.141502 260.453971 281.816727 260.588734 C 281.491953 260.723496 281.156617 260.823908 280.813359 260.89261 C 280.467461 260.961313 280.121563 260.995664 279.767744 260.995664 C 279.416565 260.995664 279.070667 260.961313 278.724769 260.89261 C 278.381512 260.823908 278.046176 260.723496 277.721401 260.588734 C 277.396627 260.453971 277.087695 260.290142 276.797247 260.094604 C 276.504158 259.899066 276.234832 259.677104 275.98399 259.428718 C 275.735789 259.180332 275.513992 258.910807 275.318599 258.6175 C 275.125847 258.326835 274.959499 258.017674 274.824836 257.692658 C 274.690174 257.367642 274.589837 257.034699 274.521185 256.688544 C 274.452534 256.345031 274.418208 255.996234 274.418208 255.644794 C 274.418208 255.293354 274.452534 254.944556 274.521185 254.601044 C 274.589837 254.257531 274.690174 253.921945 274.824836 253.59693 C 274.959499 253.271914 275.125847 252.965395 275.318599 252.672088 C 275.513992 252.378781 275.735789 252.109255 275.98399 251.860869 C 276.234832 251.612483 276.504158 251.390521 276.797247 251.194983 C 277.087695 250.999445 277.396627 250.835616 277.721401 250.700853 C 278.046176 250.566091 278.381512 250.465679 278.724769 250.396977 C 279.070667 250.328274 279.416565 250.293923 279.767744 250.293923 C 280.121563 250.293923 280.467461 250.328274 280.813359 250.396977 C 281.156617 250.465679 281.491953 250.566091 281.816727 250.700853 C 282.141502 250.835616 282.450434 250.999445 282.740882 251.194983 C 283.033971 251.390521 283.303296 251.612483 283.551498 251.860869 C 283.80234 252.109255 284.024137 252.378781 284.216889 252.672088 C 284.412282 252.965395 284.57863 253.271914 284.713293 253.59693 C 284.847955 253.921945 284.948292 254.257531 285.016943 254.601044 C 285.085595 254.944556 285.119921 255.293354 285.119921 255.644794 Z M 285.119921 255.644794 " stroke="#17142b" stroke-width="3" stroke-opacity="1" stroke-miterlimit="10"/><path stroke-linecap="round" transform="matrix(1.479392, 0, 0, 1.478293, -124.448747, -128.660178)" fill="none" stroke-linejoin="round" d="M 264.070315 131.46496 L 278.48713 131.46496 C 278.48713 131.46496 287.794689 134.10208 287.794689 141.403046 C 287.794689 148.704012 287.794689 157.220484 287.794689 157.220484 " stroke="#ffffff" stroke-width="3" stroke-opacity="1" stroke-miterlimit="10"/><path stroke-linecap="round" transform="matrix(1.479392, 0, 0, 1.478293, -124.448747, -128.660178)" fill="none" stroke-linejoin="round" d="M 142.404015 131.46496 L 241.29386 131.46496 " stroke="#ffffff" stroke-width="3" stroke-opacity="1" stroke-miterlimit="10"/><path stroke-linecap="round" transform="matrix(1.479392, 0, 0, 1.478293, -124.448747, -128.660178)" fill="none" stroke-linejoin="round" d="M 253.909893 117.676889 L 253.909893 144.344043 " stroke="#ffffff" stroke-width="3" stroke-opacity="1" stroke-miterlimit="10"/><path stroke-linecap="round" transform="matrix(1.479392, 0, 0, 1.478293, -124.448747, -128.660178)" fill="none" stroke-linejoin="round" d="M 130.358317 117.676889 L 130.358317 144.444454 " stroke="#ffffff" stroke-width="3" stroke-opacity="1" stroke-miterlimit="10"/><path stroke-linecap="round" transform="matrix(1.479392, 0, 0, 1.478293, -124.448747, -128.660178)" fill="none" stroke-linejoin="round" d="M 104.687937 131.46496 L 120.504187 131.46496 " stroke="#ffffff" stroke-width="3" stroke-opacity="1" stroke-miterlimit="10"/></svg>