<svg xmlns="http://www.w3.org/2000/svg" xmlns:xlink="http://www.w3.org/1999/xlink" width="500" zoomAndPan="magnify" viewBox="0 0 375 374.999991" height="500" preserveAspectRatio="xMidYMid meet" version="1.0"><defs><clipPath id="id1"><path d="M 9.453125 339 L 98 339 L 98 365.589844 L 9.453125 365.589844 Z M 9.453125 339 " clip-rule="nonzero"/></clipPath><clipPath id="id2"><path d="M 276 132 L 364.953125 132 L 364.953125 159 L 276 159 Z M 276 132 " clip-rule="nonzero"/></clipPath><clipPath id="id3"><path d="M 125 10.089844 L 177 10.089844 L 177 62 L 125 62 Z M 125 10.089844 " clip-rule="nonzero"/></clipPath></defs><g clip-path="url(#id1)"><path fill="#ffffff" d="M 94.226562 339.71875 L 12.9375 339.71875 C 11.011719 339.71875 9.445312 341.28125 9.445312 343.203125 L 9.445312 362.105469 C 9.445312 364.035156 11.011719 365.589844 12.9375 365.589844 L 94.226562 365.589844 C 96.15625 365.589844 97.71875 364.035156 97.71875 362.105469 L 97.71875 343.203125 C 97.71875 341.28125 96.15625 339.71875 94.226562 339.71875 " fill-opacity="1" fill-rule="nonzero"/></g><path fill="#ffffff" d="M 147.671875 298.292969 L 66.382812 298.292969 C 64.453125 298.292969 62.890625 299.855469 62.890625 301.78125 L 62.890625 320.6875 C 62.890625 322.609375 64.453125 324.171875 66.382812 324.171875 L 147.671875 324.171875 C 149.601562 324.171875 151.164062 322.609375 151.164062 320.6875 L 151.164062 301.78125 C 151.164062 299.855469 149.601562 298.292969 147.671875 298.292969 " fill-opacity="1" fill-rule="nonzero"/><path fill="#ffffff" d="M 201.117188 256.875 L 119.828125 256.875 C 117.898438 256.875 116.335938 258.4375 116.335938 260.363281 L 116.335938 279.261719 C 116.335938 281.1875 117.898438 282.75 119.828125 282.75 L 201.117188 282.75 C 203.046875 282.75 204.609375 281.1875 204.609375 279.261719 L 204.609375 260.363281 C 204.609375 258.4375 203.046875 256.875 201.117188 256.875 " fill-opacity="1" fill-rule="nonzero"/><path fill="#ffffff" d="M 254.5625 215.453125 L 173.273438 215.453125 C 171.34375 215.453125 169.78125 217.015625 169.78125 218.9375 L 169.78125 237.84375 C 169.78125 239.769531 171.34375 241.328125 173.273438 241.328125 L 254.5625 241.328125 C 256.488281 241.328125 258.054688 239.769531 258.054688 237.84375 L 258.054688 218.9375 C 258.054688 217.015625 256.488281 215.453125 254.5625 215.453125 " fill-opacity="1" fill-rule="nonzero"/><path fill="#ffffff" d="M 308.007812 174.03125 L 226.71875 174.03125 C 224.785156 174.03125 223.226562 175.589844 223.226562 177.519531 L 223.226562 196.417969 C 223.226562 198.34375 224.785156 199.90625 226.71875 199.90625 L 308.007812 199.90625 C 309.9375 199.90625 311.496094 198.34375 311.496094 196.417969 L 311.496094 177.519531 C 311.496094 175.589844 309.9375 174.03125 308.007812 174.03125 " fill-opacity="1" fill-rule="nonzero"/><g clip-path="url(#id2)"><path fill="#ffffff" d="M 361.453125 132.609375 L 280.160156 132.609375 C 278.234375 132.609375 276.671875 134.171875 276.671875 136.097656 L 276.671875 154.996094 C 276.671875 156.925781 278.234375 158.484375 280.160156 158.484375 L 361.453125 158.484375 C 363.382812 158.484375 364.945312 156.925781 364.945312 154.996094 L 364.945312 136.097656 C 364.945312 134.171875 363.382812 132.609375 361.453125 132.609375 " fill-opacity="1" fill-rule="nonzero"/></g><g clip-path="url(#id3)"><path fill="#ffffff" d="M 151.011719 61.042969 C 165.0625 61.042969 176.496094 49.628906 176.496094 35.59375 C 176.496094 21.554688 165.0625 10.140625 151.011719 10.140625 C 136.957031 10.140625 125.527344 21.554688 125.527344 35.59375 C 125.527344 49.628906 136.957031 61.042969 151.011719 61.042969 " fill-opacity="1" fill-rule="nonzero"/></g><path fill="#ffffff" d="M 38.148438 213.769531 L 96.917969 226.78125 C 97.171875 226.835938 97.425781 226.867188 97.675781 226.867188 C 99.277344 226.867188 100.722656 225.757812 101.082031 224.132812 L 106.214844 201 C 100.628906 202.164062 94.941406 202.753906 89.246094 202.753906 C 83.242188 202.753906 77.226562 202.101562 71.3125 200.792969 C 60.164062 198.328125 49.695312 193.59375 40.523438 186.941406 L 35.492188 209.609375 C 35.078125 211.492188 36.265625 213.351562 38.148438 213.769531 " fill-opacity="1" fill-rule="nonzero"/><path fill="#ffffff" d="M 72.136719 172.300781 C 72.460938 170.835938 73.339844 169.582031 74.609375 168.773438 C 75.875 167.96875 77.382812 167.703125 78.851562 168.027344 L 79.378906 168.140625 C 80.847656 168.46875 82.101562 169.347656 82.910156 170.613281 C 83.71875 171.882812 83.984375 173.382812 83.660156 174.851562 L 83.597656 175.132812 L 72.074219 172.578125 Z M 107.890625 193.453125 L 109.875 184.519531 C 110.074219 183.613281 109.90625 182.667969 109.410156 181.890625 C 108.910156 181.109375 108.125 180.5625 107.21875 180.363281 L 90.414062 176.640625 L 90.476562 176.359375 C 91.425781 172.089844 90.070312 167.839844 87.242188 164.894531 L 89.792969 165.453125 C 91.390625 165.804688 93.015625 164.996094 93.703125 163.515625 L 113.523438 120.84375 L 123.585938 109.566406 L 123.585938 148.15625 L 109.367188 245.109375 C 109.222656 246.109375 109.519531 247.128906 110.179688 247.894531 C 110.84375 248.664062 111.808594 249.101562 112.824219 249.101562 L 134.941406 249.101562 C 136.601562 249.101562 138.027344 247.9375 138.363281 246.316406 L 155.925781 160.871094 L 185.167969 169.800781 L 185.167969 206.105469 C 185.167969 208.03125 186.730469 209.59375 188.660156 209.59375 L 208.941406 209.59375 C 210.871094 209.59375 212.433594 208.03125 212.433594 206.105469 L 212.433594 147.6875 C 212.433594 146.140625 211.414062 144.777344 209.925781 144.34375 L 174.761719 134.011719 L 174.761719 98.839844 L 194.429688 110.792969 C 194.996094 111.195312 195.6875 111.429688 196.4375 111.429688 L 243.988281 111.429688 C 245.914062 111.429688 247.476562 109.871094 247.476562 107.941406 L 247.476562 89.359375 C 247.476562 87.433594 245.914062 85.871094 243.988281 85.871094 L 201.195312 85.871094 L 173.199219 69.527344 C 172.648438 69.160156 171.984375 68.949219 171.269531 68.949219 L 127.867188 68.949219 C 127.574219 68.890625 127.277344 68.871094 126.972656 68.886719 C 126.289062 68.925781 125.640625 69.160156 125.097656 69.5625 C 124.75 69.804688 124.445312 70.101562 124.207031 70.453125 L 90.832031 107.859375 C 90.589844 108.128906 90.390625 108.441406 90.246094 108.773438 L 69.160156 156.675781 C 68.742188 157.636719 68.773438 158.730469 69.246094 159.660156 C 69.722656 160.59375 70.589844 161.265625 71.613281 161.488281 L 73.011719 161.792969 C 72.265625 162.089844 71.542969 162.457031 70.855469 162.894531 C 68.011719 164.703125 66.046875 167.503906 65.316406 170.792969 L 65.257812 171.070312 L 48.449219 167.351562 C 47.546875 167.148438 46.597656 167.316406 45.816406 167.816406 C 45.035156 168.308594 44.484375 169.097656 44.285156 170 L 42.1875 179.449219 C 51.148438 186.519531 61.609375 191.503906 72.824219 193.984375 C 84.421875 196.550781 96.429688 196.355469 107.890625 193.453125 " fill-opacity="1" fill-rule="nonzero"/></svg>